SplineFontDB: 3.0
FontName: ZXSpectrum
FullName: ZX Spectrum Unicode
FamilyName: Untitled1
Weight: Regular
Copyright: Copyright (c) 2016, Jorge Ferrer,,,
UComments: "2016-8-15: Created with FontForge (http://fontforge.org)"
Version: 001.000
ItalicAngle: 0
UnderlinePosition: -100
UnderlineWidth: 50
Ascent: 700
Descent: 100
InvalidEm: 0
LayerCount: 2
Layer: 0 0 "Back" 1
Layer: 1 0 "Fore" 0
XUID: [1021 537 -1227754202 6313102]
OS2Version: 0
OS2_WeightWidthSlopeOnly: 0
OS2_UseTypoMetrics: 1
CreationTime: 1471286560
ModificationTime: 1471286560
OS2TypoAscent: 0
OS2TypoAOffset: 1
OS2TypoDescent: 0
OS2TypoDOffset: 1
OS2TypoLinegap: 0
OS2WinAscent: 0
OS2WinAOffset: 1
OS2WinDescent: 0
OS2WinDOffset: 1
HheadAscent: 0
HheadAOffset: 1
HheadDescent: 0
HheadDOffset: 1
OS2Vendor: 'PfEd'
DEI: 91125
Encoding: UnicodeBmp
UnicodeInterp: none
NameList: AGL For New Fonts
DisplaySize: -48
AntiAlias: 1
FitToEm: 0
BeginChars: 65536 207

StartChar: A
Encoding: 65 65 0
Width: 800
VWidth: 0
Flags: H
LayerCount: 2
Fore
SplineSet
201 500 m 1
 200 501 l 1
 200 599 l 1
 201 600 l 1
 599 600 l 1
 600 599 l 1
 600 501 l 1
 599 500 l 1
 201 500 l 1
100 499 m 1
 101 500 l 1
 199 500 l 1
 200 499 l 1
 200 301 l 1
 201 300 l 1
 599 300 l 1
 600 301 l 1
 600 499 l 1
 601 500 l 1
 699 500 l 1
 700 499 l 1
 700 1 l 1
 699 0 l 1
 601 0 l 1
 600 1 l 1
 600 199 l 1
 599 200 l 1
 201 200 l 1
 200 199 l 1
 200 1 l 1
 199 0 l 1
 101 0 l 1
 100 1 l 1
 100 499 l 1
EndSplineSet
EndChar

StartChar: AE
Encoding: 198 198 1
Width: 800
VWidth: 0
Flags: H
LayerCount: 2
Fore
SplineSet
200 1 m 1
 199 0 l 1
 101 0 l 1
 100 1 l 1
 100 499 l 1
 101 500 l 1
 199 500 l 1
 200 499 l 1
 200 401 l 1
 201 400 l 1
 399 400 l 1
 400 401 l 1
 400 499 l 1
 399 500 l 1
 201 500 l 1
 200 501 l 1
 200 599 l 1
 201 600 l 1
 699 600 l 1
 700 599 l 1
 700 501 l 1
 699 500 l 1
 501 500 l 1
 500 499 l 1
 500 401 l 1
 501 400 l 1
 599 400 l 1
 600 399 l 1
 600 301 l 1
 599 300 l 1
 501 300 l 1
 500 299 l 1
 500 101 l 1
 501 100 l 1
 699 100 l 1
 700 99 l 1
 700 1 l 1
 699 0 l 1
 401 0 l 1
 400 1 l 1
 400 299 l 1
 399 300 l 1
 201 300 l 1
 200 299 l 1
 200 1 l 1
EndSplineSet
EndChar

StartChar: Aacute
Encoding: 193 193 2
Width: 800
VWidth: 0
Flags: H
LayerCount: 2
Fore
SplineSet
201 400 m 1
 200 401 l 1
 200 499 l 1
 201 500 l 1
 299 500 l 1
 300 501 l 1
 300 599 l 1
 301 600 l 1
 399 600 l 1
 400 599 l 1
 400 501 l 1
 401 500 l 1
 599 500 l 1
 600 499 l 1
 600 401 l 1
 599 400 l 1
 201 400 l 1
100 399 m 1
 101 400 l 1
 199 400 l 1
 200 399 l 1
 200 301 l 1
 201 300 l 1
 599 300 l 1
 600 301 l 1
 600 399 l 1
 601 400 l 1
 699 400 l 1
 700 399 l 1
 700 1 l 1
 699 0 l 1
 601 0 l 1
 600 1 l 1
 600 199 l 1
 599 200 l 1
 201 200 l 1
 200 199 l 1
 200 1 l 1
 199 0 l 1
 101 0 l 1
 100 1 l 1
 100 399 l 1
401 600 m 1
 400 601 l 1
 400 699 l 1
 401 700 l 1
 499 700 l 1
 500 699 l 1
 500 601 l 1
 499 600 l 1
 401 600 l 1
EndSplineSet
EndChar

StartChar: Acircumflex
Encoding: 194 194 3
Width: 800
VWidth: 0
Flags: H
LayerCount: 2
Fore
SplineSet
100 399 m 1
 101 400 l 1
 199 400 l 1
 200 399 l 1
 200 301 l 1
 201 300 l 1
 499 300 l 1
 500 301 l 1
 500 399 l 1
 501 400 l 1
 599 400 l 1
 600 399 l 1
 600 1 l 1
 599 0 l 1
 501 0 l 1
 500 1 l 1
 500 199 l 1
 499 200 l 1
 201 200 l 1
 200 199 l 1
 200 1 l 1
 199 0 l 1
 101 0 l 1
 100 1 l 1
 100 399 l 1
400 599 m 1
 401 600 l 1
 499 600 l 1
 500 599 l 1
 500 401 l 1
 499 400 l 1
 201 400 l 1
 200 401 l 1
 200 599 l 1
 201 600 l 1
 299 600 l 1
 300 599 l 1
 300 501 l 1
 301 500 l 1
 400 500 l 1
 401 501 l 1
 400 599 l 1
301 600 m 1
 300 601 l 1
 300 699 l 1
 301 700 l 1
 399 700 l 1
 400 699 l 1
 400 601 l 1
 399 600 l 1
 301 600 l 1
EndSplineSet
EndChar

StartChar: Adieresis
Encoding: 196 196 4
Width: 800
VWidth: 0
Flags: H
LayerCount: 2
Fore
SplineSet
201 400 m 1
 200 401 l 1
 200 499 l 1
 201 500 l 1
 599 500 l 1
 600 499 l 1
 600 401 l 1
 599 400 l 1
 201 400 l 1
100 399 m 1
 101 400 l 1
 199 400 l 1
 200 399 l 1
 200 301 l 1
 201 300 l 1
 599 300 l 1
 600 301 l 1
 600 399 l 1
 601 400 l 1
 699 400 l 1
 700 399 l 1
 700 1 l 1
 699 0 l 1
 601 0 l 1
 600 1 l 1
 600 199 l 1
 599 200 l 1
 201 200 l 1
 200 199 l 1
 200 1 l 1
 199 0 l 1
 101 0 l 1
 100 1 l 1
 100 399 l 1
201 600 m 1
 200 601 l 1
 200 699 l 1
 201 700 l 1
 299 700 l 1
 300 699 l 1
 300 601 l 1
 299 600 l 1
 201 600 l 1
501 600 m 1
 500 601 l 1
 500 699 l 1
 501 700 l 1
 599 700 l 1
 600 699 l 1
 600 601 l 1
 599 600 l 1
 501 600 l 1
EndSplineSet
EndChar

StartChar: Agrave
Encoding: 192 192 5
Width: 800
VWidth: 0
Flags: H
LayerCount: 2
Fore
SplineSet
201 400 m 1
 200 401 l 1
 200 499 l 1
 201 500 l 1
 299 500 l 1
 300 501 l 1
 300 599 l 1
 301 600 l 1
 399 600 l 1
 400 599 l 1
 400 501 l 1
 401 500 l 1
 599 500 l 1
 600 499 l 1
 600 401 l 1
 599 400 l 1
 201 400 l 1
100 399 m 1
 101 400 l 1
 199 400 l 1
 200 399 l 1
 200 301 l 1
 201 300 l 1
 599 300 l 1
 600 301 l 1
 600 399 l 1
 601 400 l 1
 699 400 l 1
 700 399 l 1
 700 1 l 1
 699 0 l 1
 601 0 l 1
 600 1 l 1
 600 199 l 1
 599 200 l 1
 201 200 l 1
 200 199 l 1
 200 1 l 1
 199 0 l 1
 101 0 l 1
 100 1 l 1
 100 399 l 1
201 600 m 1
 200 601 l 1
 200 699 l 1
 201 700 l 1
 299 700 l 1
 300 699 l 1
 300 601 l 1
 299 600 l 1
 201 600 l 1
EndSplineSet
EndChar

StartChar: Aring
Encoding: 197 197 6
Width: 800
VWidth: 0
Flags: H
LayerCount: 2
Fore
SplineSet
100 299 m 1
 101 300 l 1
 199 300 l 1
 200 299 l 1
 200 201 l 1
 201 200 l 1
 499 200 l 1
 500 201 l 1
 500 299 l 1
 501 300 l 1
 599 300 l 1
 600 299 l 1
 600 1 l 1
 599 0 l 1
 501 0 l 1
 500 1 l 1
 500 99 l 1
 499 100 l 1
 201 100 l 1
 200 99 l 1
 200 1 l 1
 199 0 l 1
 101 0 l 1
 100 1 l 1
 100 299 l 1
201 500 m 1
 200 501 l 1
 200 599 l 1
 201 600 l 1
 299 600 l 1
 300 599 l 1
 300 501 l 1
 299 500 l 1
 201 500 l 1
401 500 m 1
 400 501 l 1
 400 599 l 1
 401 600 l 1
 499 600 l 1
 500 599 l 1
 500 501 l 1
 499 500 l 1
 401 500 l 1
300 499 m 1
 301 500 l 1
 399 500 l 1
 400 499 l 1
 400 401 l 1
 401 400 l 1
 499 400 l 1
 500 399 l 1
 500 301 l 1
 499 300 l 1
 201 300 l 1
 200 301 l 1
 200 399 l 1
 201 400 l 1
 299 400 l 1
 300 401 l 1
 300 499 l 1
301 600 m 1
 300 601 l 1
 300 699 l 1
 301 700 l 1
 399 700 l 1
 400 699 l 1
 400 601 l 1
 399 600 l 1
 301 600 l 1
EndSplineSet
EndChar

StartChar: Atilde
Encoding: 195 195 7
Width: 800
VWidth: 0
Flags: H
LayerCount: 2
Fore
SplineSet
100 399 m 1
 101 400 l 1
 199 400 l 1
 200 399 l 1
 200 301 l 1
 201 300 l 1
 499 300 l 1
 500 301 l 1
 500 399 l 1
 501 400 l 1
 599 400 l 1
 600 399 l 1
 600 1 l 1
 599 0 l 1
 501 0 l 1
 500 1 l 1
 500 199 l 1
 499 200 l 1
 201 200 l 1
 200 199 l 1
 200 1 l 1
 199 0 l 1
 101 0 l 1
 100 1 l 1
 100 399 l 1
400 599 m 1
 401 600 l 1
 499 600 l 1
 500 599 l 1
 500 401 l 1
 499 400 l 1
 201 400 l 1
 200 401 l 1
 200 599 l 1
 201 600 l 1
 299 600 l 1
 300 599 l 1
 300 501 l 1
 301 500 l 1
 400 500 l 1
 401 501 l 1
 400 599 l 1
301 600 m 1
 300 601 l 1
 300 699 l 1
 301 700 l 1
 399 700 l 1
 400 699 l 1
 400 601 l 1
 399 600 l 1
 301 600 l 1
501 600 m 1
 500 601 l 1
 500 699 l 1
 501 700 l 1
 599 700 l 1
 600 699 l 1
 600 601 l 1
 599 600 l 1
 501 600 l 1
EndSplineSet
EndChar

StartChar: B
Encoding: 66 66 8
Width: 800
VWidth: 0
Flags: H
LayerCount: 2
Fore
SplineSet
601 400 m 1
 600 401 l 1
 600 499 l 1
 601 500 l 1
 699 500 l 1
 700 499 l 1
 700 401 l 1
 699 400 l 1
 601 400 l 1
600 299 m 1
 601 300 l 1
 699 300 l 1
 700 299 l 1
 700 101 l 1
 699 100 l 1
 601 100 l 1
 600 101 l 1
 600 299 l 1
599 600 m 1
 600 599 l 1
 600 501 l 1
 599 500 l 1
 201 500 l 1
 200 499 l 1
 200 401 l 1
 201 400 l 1
 599 400 l 1
 600 399 l 1
 600 301 l 1
 599 300 l 1
 201 300 l 1
 200 299 l 1
 200 101 l 1
 201 100 l 1
 599 100 l 1
 600 99 l 1
 600 1 l 1
 599 0 l 1
 101 0 l 1
 100 1 l 1
 100 599 l 1
 101 600 l 1
 599 600 l 1
EndSplineSet
EndChar

StartChar: C
Encoding: 67 67 9
Width: 800
VWidth: 0
Flags: H
LayerCount: 2
Fore
SplineSet
601 400 m 1
 600 401 l 1
 600 499 l 1
 601 500 l 1
 699 500 l 1
 700 499 l 1
 700 401 l 1
 699 400 l 1
 601 400 l 1
601 100 m 1
 600 101 l 1
 600 199 l 1
 601 200 l 1
 699 200 l 1
 700 199 l 1
 700 101 l 1
 699 100 l 1
 601 100 l 1
201 500 m 1
 200 501 l 1
 200 599 l 1
 201 600 l 1
 599 600 l 1
 600 599 l 1
 600 501 l 1
 599 500 l 1
 201 500 l 1
201 0 m 1
 200 1 l 1
 200 99 l 1
 201 100 l 1
 599 100 l 1
 600 99 l 1
 600 1 l 1
 599 0 l 1
 201 0 l 1
100 499 m 1
 101 500 l 1
 199 500 l 1
 200 499 l 1
 200 101 l 1
 199 100 l 1
 101 100 l 1
 100 101 l 1
 100 499 l 1
EndSplineSet
EndChar

StartChar: Ccedilla
Encoding: 199 199 10
Width: 800
VWidth: 0
Flags: H
LayerCount: 2
Fore
SplineSet
601 400 m 1
 600 401 l 1
 600 499 l 1
 601 500 l 1
 699 500 l 1
 700 499 l 1
 700 401 l 1
 699 400 l 1
 601 400 l 1
601 100 m 1
 600 101 l 1
 600 199 l 1
 601 200 l 1
 699 200 l 1
 700 199 l 1
 700 101 l 1
 699 100 l 1
 601 100 l 1
201 500 m 1
 200 501 l 1
 200 599 l 1
 201 600 l 1
 599 600 l 1
 600 599 l 1
 600 501 l 1
 599 500 l 1
 201 500 l 1
100 499 m 1
 101 500 l 1
 199 500 l 1
 200 499 l 1
 200 101 l 1
 199 100 l 1
 101 100 l 1
 100 101 l 1
 100 499 l 1
400 -99 m 1
 400 -1 l 1
 399 0 l 1
 201 0 l 1
 200 1 l 1
 200 99 l 1
 201 100 l 1
 599 100 l 1
 600 99 l 1
 600 1 l 1
 599 0 l 1
 501 0 l 1
 500 -1 l 1
 500 -99 l 1
 499 -100 l 1
 401 -100 l 1
 400 -99 l 1
EndSplineSet
EndChar

StartChar: D
Encoding: 68 68 11
Width: 800
VWidth: 0
Flags: H
LayerCount: 2
Fore
SplineSet
501 400 m 1
 500 401 l 1
 500 499 l 1
 501 500 l 1
 599 500 l 1
 600 499 l 1
 600 401 l 1
 599 400 l 1
 501 400 l 1
501 100 m 1
 500 101 l 1
 500 199 l 1
 501 200 l 1
 599 200 l 1
 600 199 l 1
 600 101 l 1
 599 100 l 1
 501 100 l 1
600 399 m 1
 601 400 l 1
 699 400 l 1
 700 399 l 1
 700 201 l 1
 699 200 l 1
 601 200 l 1
 600 201 l 1
 600 399 l 1
499 100 m 1
 500 99 l 1
 500 1 l 1
 499 0 l 1
 101 0 l 1
 100 1 l 1
 100 599 l 1
 101 600 l 1
 499 600 l 1
 500 599 l 1
 500 501 l 1
 499 500 l 1
 201 500 l 1
 200 499 l 1
 200 100 l 1
 201 99 l 1
 499 100 l 1
EndSplineSet
EndChar

StartChar: E
Encoding: 69 69 12
Width: 800
VWidth: 0
Flags: H
LayerCount: 2
Fore
SplineSet
699 600 m 1
 700 599 l 1
 700 501 l 1
 699 500 l 1
 201 500 l 1
 200 499 l 1
 200 401 l 1
 201 400 l 1
 599 400 l 1
 600 399 l 1
 600 301 l 1
 599 300 l 1
 201 300 l 1
 200 299 l 1
 200 101 l 1
 201 100 l 1
 699 100 l 1
 700 99 l 1
 700 1 l 1
 699 0 l 1
 101 0 l 1
 100 1 l 1
 100 599 l 1
 101 600 l 1
 699 600 l 1
EndSplineSet
EndChar

StartChar: Eacute
Encoding: 201 201 13
Width: 800
VWidth: 0
Flags: H
LayerCount: 2
Fore
SplineSet
401 500 m 1
 699 500 l 1
 700 499 l 1
 700 401 l 1
 699 400 l 1
 201 400 l 1
 200 399 l 1
 200 301 l 1
 201 300 l 1
 599 300 l 1
 600 299 l 1
 600 201 l 1
 599 200 l 1
 201 200 l 1
 200 199 l 1
 200 101 l 1
 201 100 l 1
 699 100 l 1
 700 99 l 1
 700 1 l 1
 699 0 l 1
 101 0 l 1
 100 1 l 1
 100 499 l 1
 101 500 l 1
 299 500 l 1
 300 501 l 1
 300 599 l 1
 301 600 l 1
 399 600 l 1
 400 599 l 1
 400 501 l 1
 401 500 l 1
401 600 m 1
 400 601 l 1
 400 699 l 1
 401 700 l 1
 499 700 l 1
 500 699 l 1
 500 601 l 1
 499 600 l 1
 401 600 l 1
EndSplineSet
EndChar

StartChar: Ecircumflex
Encoding: 202 202 14
Width: 800
VWidth: 0
Flags: H
LayerCount: 2
Fore
SplineSet
301 500 m 1
 399 500 l 1
 400 501 l 1
 400 599 l 1
 401 600 l 1
 499 600 l 1
 500 599 l 1
 500 501 l 1
 501 500 l 1
 699 500 l 1
 700 499 l 1
 700 401 l 1
 699 400 l 1
 201 400 l 1
 200 399 l 1
 200 301 l 1
 201 300 l 1
 599 300 l 1
 600 299 l 1
 600 201 l 1
 599 200 l 1
 201 200 l 1
 200 199 l 1
 200 101 l 1
 201 100 l 1
 699 100 l 1
 700 99 l 1
 700 1 l 1
 699 0 l 1
 101 0 l 1
 100 1 l 1
 100 499 l 1
 101 500 l 1
 199 500 l 1
 200 501 l 1
 200 599 l 1
 201 600 l 1
 299 600 l 1
 300 599 l 1
 300 501 l 1
 301 500 l 1
301 600 m 1
 300 601 l 1
 300 699 l 1
 301 700 l 1
 399 700 l 1
 400 699 l 1
 400 601 l 1
 399 600 l 1
 301 600 l 1
EndSplineSet
EndChar

StartChar: Edieresis
Encoding: 203 203 15
Width: 800
VWidth: 0
Flags: H
LayerCount: 2
Fore
SplineSet
699 500 m 1
 700 499 l 1
 700 401 l 1
 699 400 l 1
 201 400 l 1
 200 399 l 1
 200 301 l 1
 201 300 l 1
 599 300 l 1
 600 299 l 1
 600 201 l 1
 599 200 l 1
 201 200 l 1
 200 199 l 1
 200 101 l 1
 201 100 l 1
 699 100 l 1
 700 99 l 1
 700 1 l 1
 699 0 l 1
 101 0 l 1
 100 1 l 1
 100 499 l 1
 101 500 l 1
 699 500 l 1
201 600 m 1
 200 601 l 1
 200 699 l 1
 201 700 l 1
 299 700 l 1
 300 699 l 1
 300 601 l 1
 299 600 l 1
 201 600 l 1
501 600 m 1
 500 601 l 1
 500 699 l 1
 501 700 l 1
 599 700 l 1
 600 699 l 1
 600 601 l 1
 599 600 l 1
 501 600 l 1
EndSplineSet
EndChar

StartChar: Egrave
Encoding: 200 200 16
Width: 800
VWidth: 0
Flags: H
LayerCount: 2
Fore
SplineSet
501 500 m 1
 699 500 l 1
 700 499 l 1
 700 401 l 1
 699 400 l 1
 201 400 l 1
 200 399 l 1
 200 301 l 1
 201 300 l 1
 599 300 l 1
 600 299 l 1
 600 201 l 1
 599 200 l 1
 201 200 l 1
 200 199 l 1
 200 101 l 1
 201 100 l 1
 699 100 l 1
 700 99 l 1
 700 1 l 1
 699 0 l 1
 101 0 l 1
 100 1 l 1
 100 499 l 1
 101 500 l 1
 399 500 l 1
 400 501 l 1
 400 599 l 1
 401 600 l 1
 499 600 l 1
 500 599 l 1
 500 501 l 1
 501 500 l 1
301 600 m 1
 300 601 l 1
 300 699 l 1
 301 700 l 1
 399 700 l 1
 400 699 l 1
 400 601 l 1
 399 600 l 1
 301 600 l 1
EndSplineSet
EndChar

StartChar: Eth
Encoding: 208 208 17
Width: 800
VWidth: 0
Flags: H
LayerCount: 2
Fore
SplineSet
499 600 m 1
 500 599 l 1
 500 501 l 1
 499 500 l 1
 201 500 l 1
 200 499 l 1
 200 401 l 1
 201 400 l 1
 399 400 l 1
 400 399 l 1
 400 301 l 1
 399 300 l 1
 201 300 l 1
 200 299 l 1
 200 101 l 1
 201 100 l 1
 499 100 l 1
 500 99 l 1
 500 1 l 1
 499 0 l 1
 101 0 l 1
 100 1 l 1
 100 299 l 1
 99 300 l 1
 1 300 l 1
 0 301 l 1
 0 399 l 1
 1 400 l 1
 99 400 l 1
 100 401 l 1
 100 599 l 1
 101 600 l 1
 499 600 l 1
501 400 m 1
 500 401 l 1
 500 499 l 1
 501 500 l 1
 599 500 l 1
 600 499 l 1
 600 401 l 1
 599 400 l 1
 501 400 l 1
600 399 m 1
 601 400 l 1
 699 400 l 1
 700 399 l 1
 700 201 l 1
 699 200 l 1
 601 200 l 1
 600 201 l 1
 600 399 l 1
501 100 m 1
 500 101 l 1
 500 199 l 1
 501 200 l 1
 599 200 l 1
 600 199 l 1
 600 101 l 1
 599 100 l 1
 501 100 l 1
EndSplineSet
EndChar

StartChar: F
Encoding: 70 70 18
Width: 800
VWidth: 0
Flags: H
LayerCount: 2
Fore
SplineSet
699 600 m 1
 700 599 l 1
 700 501 l 1
 699 500 l 1
 201 500 l 1
 200 499 l 1
 200 401 l 1
 201 400 l 1
 599 400 l 1
 600 399 l 1
 600 301 l 1
 599 300 l 1
 201 300 l 1
 200 299 l 1
 200 1 l 1
 199 0 l 1
 101 0 l 1
 100 1 l 1
 100 599 l 1
 101 600 l 1
 699 600 l 1
EndSplineSet
EndChar

StartChar: G
Encoding: 71 71 19
Width: 800
VWidth: 0
Flags: H
LayerCount: 2
Fore
SplineSet
601 400 m 1
 600 401 l 1
 600 499 l 1
 601 500 l 1
 699 500 l 1
 700 499 l 1
 700 401 l 1
 699 400 l 1
 601 400 l 1
201 500 m 1
 200 501 l 1
 200 599 l 1
 201 600 l 1
 599 600 l 1
 600 599 l 1
 600 501 l 1
 599 500 l 1
 201 500 l 1
201 0 m 1
 200 1 l 1
 200 99 l 1
 201 100 l 1
 599 100 l 1
 600 99 l 1
 600 1 l 1
 599 0 l 1
 201 0 l 1
100 499 m 1
 101 500 l 1
 199 500 l 1
 200 499 l 1
 200 101 l 1
 199 100 l 1
 101 100 l 1
 100 101 l 1
 100 499 l 1
601 100 m 1
 600 101 l 1
 600 199 l 1
 599 200 l 1
 401 200 l 1
 400 201 l 1
 400 299 l 1
 401 300 l 1
 699 300 l 1
 700 299 l 1
 700 101 l 1
 699 100 l 1
 601 100 l 1
EndSplineSet
EndChar

StartChar: H
Encoding: 72 72 20
Width: 800
VWidth: 0
Flags: H
LayerCount: 2
Fore
SplineSet
100 599 m 1
 101 600 l 1
 199 600 l 1
 200 599 l 1
 200 301 l 1
 201 300 l 1
 599 300 l 1
 600 301 l 1
 600 599 l 1
 601 600 l 1
 699 600 l 1
 700 599 l 1
 700 1 l 1
 699 0 l 1
 601 0 l 1
 600 1 l 1
 600 199 l 1
 599 200 l 1
 201 200 l 1
 200 199 l 1
 200 1 l 1
 199 0 l 1
 101 0 l 1
 100 1 l 1
 100 599 l 1
EndSplineSet
EndChar

StartChar: H18533
Encoding: 9679 9679 21
Width: 800
VWidth: 0
Flags: H
LayerCount: 2
Fore
SplineSet
599 400 m 1
 600 399 l 1
 600 201 l 1
 599 200 l 1
 501 200 l 1
 500 199 l 1
 500 101 l 1
 499 100 l 1
 301 100 l 1
 300 101 l 1
 300 199 l 1
 299 200 l 1
 201 200 l 1
 200 201 l 1
 200 399 l 1
 201 400 l 1
 299 400 l 1
 300 401 l 1
 300 499 l 1
 301 500 l 1
 499 500 l 1
 500 499 l 1
 500 401 l 1
 501 400 l 1
 599 400 l 1
EndSplineSet
EndChar

StartChar: H18543
Encoding: 9642 9642 22
Width: 800
VWidth: 0
Flags: H
LayerCount: 2
Fore
SplineSet
200 500 m 1
 600 500 l 1
 600 100 l 1
 200 100 l 1
 200 500 l 1
EndSplineSet
EndChar

StartChar: H18551
Encoding: 9643 9643 23
Width: 800
VWidth: 0
Flags: H
LayerCount: 2
Fore
SplineSet
200 500 m 1
 600 500 l 1
 600 100 l 1
 200 100 l 1
 200 500 l 1
300 400 m 1
 300 200 l 1
 500 200 l 1
 500 400 l 1
 300 400 l 1
EndSplineSet
EndChar

StartChar: H22073
Encoding: 9633 9633 24
Width: 800
VWidth: 0
Flags: H
LayerCount: 2
Fore
SplineSet
100 600 m 1
 700 600 l 1
 700 0 l 1
 100 0 l 1
 100 600 l 1
200 500 m 1
 200 100 l 1
 600 100 l 1
 600 500 l 1
 200 500 l 1
EndSplineSet
EndChar

StartChar: I
Encoding: 73 73 25
Width: 800
VWidth: 0
Flags: H
LayerCount: 2
Fore
SplineSet
201 0 m 1
 200 1 l 1
 200 99 l 1
 201 100 l 1
 399 100 l 1
 400 101 l 1
 400 499 l 1
 399 500 l 1
 201 500 l 1
 200 501 l 1
 200 599 l 1
 201 600 l 1
 699 600 l 1
 700 599 l 1
 700 501 l 1
 699 500 l 1
 501 500 l 1
 500 499 l 1
 500 101 l 1
 501 100 l 1
 699 100 l 1
 700 99 l 1
 700 1 l 1
 699 0 l 1
 201 0 l 1
EndSplineSet
EndChar

StartChar: Iacute
Encoding: 205 205 26
Width: 800
VWidth: 0
Flags: H
LayerCount: 2
Fore
SplineSet
401 600 m 1
 400 601 l 1
 400 699 l 1
 401 700 l 1
 499 700 l 1
 500 699 l 1
 500 601 l 1
 499 600 l 1
 401 600 l 1
599 100 m 1
 600 99 l 1
 600 1 l 1
 599 0 l 1
 101 0 l 1
 100 1 l 1
 100 99 l 1
 101 100 l 1
 299 100 l 1
 300 101 l 1
 300 399 l 1
 299 400 l 1
 101 400 l 1
 100 401 l 1
 100 499 l 1
 101 500 l 1
 299 500 l 1
 300 501 l 1
 300 599 l 1
 301 600 l 1
 399 600 l 1
 400 599 l 1
 400 501 l 1
 401 500 l 1
 599 500 l 1
 600 499 l 1
 600 401 l 1
 599 400 l 1
 401 400 l 1
 400 399 l 1
 400 101 l 1
 401 100 l 1
 599 100 l 1
EndSplineSet
EndChar

StartChar: Icircumflex
Encoding: 206 206 27
Width: 800
VWidth: 0
Flags: H
LayerCount: 2
Fore
SplineSet
301 600 m 1
 300 601 l 1
 300 699 l 1
 301 700 l 1
 399 700 l 1
 400 699 l 1
 400 601 l 1
 399 600 l 1
 301 600 l 1
599 100 m 1
 600 99 l 1
 600 1 l 1
 599 0 l 1
 101 0 l 1
 100 1 l 1
 100 99 l 1
 101 100 l 1
 299 100 l 1
 300 101 l 1
 300 399 l 1
 299 400 l 1
 101 400 l 1
 100 401 l 1
 100 499 l 1
 101 500 l 1
 199 500 l 1
 200 501 l 1
 200 599 l 1
 201 600 l 1
 299 600 l 1
 300 599 l 1
 300 501 l 1
 301 500 l 1
 399 500 l 1
 400 501 l 1
 400 599 l 1
 401 600 l 1
 499 600 l 1
 500 599 l 1
 500 501 l 1
 501 500 l 1
 599 500 l 1
 600 499 l 1
 600 401 l 1
 599 400 l 1
 401 400 l 1
 400 399 l 1
 400 101 l 1
 401 100 l 1
 599 100 l 1
EndSplineSet
EndChar

StartChar: Idieresis
Encoding: 207 207 28
Width: 800
VWidth: 0
Flags: H
LayerCount: 2
Fore
SplineSet
101 0 m 1
 100 1 l 1
 100 99 l 1
 101 100 l 1
 299 100 l 1
 300 101 l 1
 300 399 l 1
 299 400 l 1
 101 400 l 1
 100 401 l 1
 100 499 l 1
 101 500 l 1
 599 500 l 1
 600 499 l 1
 600 401 l 1
 599 400 l 1
 401 400 l 1
 400 399 l 1
 400 101 l 1
 401 100 l 1
 599 100 l 1
 600 99 l 1
 600 1 l 1
 599 0 l 1
 101 0 l 1
201 600 m 1
 200 601 l 1
 200 699 l 1
 201 700 l 1
 299 700 l 1
 300 699 l 1
 300 601 l 1
 299 600 l 1
 201 600 l 1
401 600 m 1
 400 601 l 1
 400 699 l 1
 401 700 l 1
 499 700 l 1
 500 699 l 1
 500 601 l 1
 499 600 l 1
 401 600 l 1
EndSplineSet
EndChar

StartChar: Igrave
Encoding: 204 204 29
Width: 800
VWidth: 0
Flags: H
LayerCount: 2
Fore
SplineSet
201 600 m 1
 200 601 l 1
 200 699 l 1
 201 700 l 1
 299 700 l 1
 300 699 l 1
 300 601 l 1
 299 600 l 1
 201 600 l 1
599 100 m 1
 600 99 l 1
 600 1 l 1
 599 0 l 1
 101 0 l 1
 100 1 l 1
 100 99 l 1
 101 100 l 1
 299 100 l 1
 300 101 l 1
 300 399 l 1
 299 400 l 1
 101 400 l 1
 100 401 l 1
 100 499 l 1
 101 500 l 1
 299 500 l 1
 300 501 l 1
 300 599 l 1
 301 600 l 1
 399 600 l 1
 400 599 l 1
 400 501 l 1
 401 500 l 1
 599 500 l 1
 600 499 l 1
 600 401 l 1
 599 400 l 1
 401 400 l 1
 400 399 l 1
 400 101 l 1
 401 100 l 1
 599 100 l 1
EndSplineSet
EndChar

StartChar: J
Encoding: 74 74 30
Width: 800
VWidth: 0
Flags: H
LayerCount: 2
Fore
SplineSet
600 599 m 1
 601 600 l 1
 699 600 l 1
 700 599 l 1
 700 101 l 1
 699 100 l 1
 601 100 l 1
 600 101 l 1
 600 599 l 1
201 0 m 1
 200 1 l 1
 200 99 l 1
 201 100 l 1
 599 100 l 1
 600 99 l 1
 600 1 l 1
 599 0 l 1
 201 0 l 1
100 299 m 1
 101 300 l 1
 199 300 l 1
 200 299 l 1
 200 101 l 1
 199 100 l 1
 101 100 l 1
 100 101 l 1
 100 299 l 1
EndSplineSet
EndChar

StartChar: K
Encoding: 75 75 31
Width: 800
VWidth: 0
Flags: H
LayerCount: 2
Fore
SplineSet
501 500 m 1
 500 501 l 1
 500 599 l 1
 501 600 l 1
 599 600 l 1
 600 599 l 1
 600 501 l 1
 599 500 l 1
 501 500 l 1
401 400 m 1
 400 401 l 1
 400 499 l 1
 401 500 l 1
 499 500 l 1
 500 499 l 1
 500 401 l 1
 499 400 l 1
 401 400 l 1
401 200 m 1
 400 201 l 1
 400 299 l 1
 401 300 l 1
 499 300 l 1
 500 299 l 1
 500 201 l 1
 499 200 l 1
 401 200 l 1
501 100 m 1
 500 101 l 1
 500 199 l 1
 501 200 l 1
 599 200 l 1
 600 199 l 1
 600 101 l 1
 599 100 l 1
 501 100 l 1
601 0 m 1
 600 1 l 1
 600 99 l 1
 601 100 l 1
 699 100 l 1
 700 99 l 1
 700 1 l 1
 699 0 l 1
 601 0 l 1
399 400 m 1
 400 399 l 1
 400 301 l 1
 399 300 l 1
 201 300 l 1
 200 299 l 1
 200 1 l 1
 199 0 l 1
 101 0 l 1
 100 1 l 1
 100 599 l 1
 101 600 l 1
 199 600 l 1
 200 599 l 1
 200 401 l 1
 201 400 l 1
 399 400 l 1
EndSplineSet
EndChar

StartChar: L
Encoding: 76 76 32
Width: 800
VWidth: 0
Flags: H
LayerCount: 2
Fore
SplineSet
101 0 m 1
 100 1 l 1
 100 599 l 1
 101 600 l 1
 199 600 l 1
 200 599 l 1
 200 101 l 1
 201 100 l 1
 699 100 l 1
 700 99 l 1
 700 1 l 1
 699 0 l 1
 101 0 l 1
EndSplineSet
EndChar

StartChar: M
Encoding: 77 77 33
Width: 800
VWidth: 0
Flags: H
LayerCount: 2
Fore
SplineSet
299 500 m 1
 300 499 l 1
 300 401 l 1
 299 400 l 1
 201 400 l 1
 200 399 l 1
 200 1 l 1
 199 0 l 1
 101 0 l 1
 100 1 l 1
 100 599 l 1
 101 600 l 1
 199 600 l 1
 200 599 l 1
 200 501 l 1
 201 500 l 1
 299 500 l 1
501 500 m 1
 599 500 l 1
 600 501 l 1
 600 599 l 1
 601 600 l 1
 699 600 l 1
 700 599 l 1
 700 1 l 1
 699 0 l 1
 601 0 l 1
 600 1 l 1
 600 399 l 1
 599 400 l 1
 501 400 l 1
 500 401 l 1
 500 499 l 1
 501 500 l 1
499 400 m 1
 500 399 l 1
 500 301 l 1
 499 300 l 1
 301 300 l 1
 300 301 l 1
 300 399 l 1
 301 400 l 1
 499 400 l 1
EndSplineSet
EndChar

StartChar: N
Encoding: 78 78 34
Width: 800
VWidth: 0
Flags: H
LayerCount: 2
Fore
SplineSet
299 500 m 1
 300 499 l 1
 300 401 l 1
 299 400 l 1
 201 400 l 1
 200 399 l 1
 200 1 l 1
 199 0 l 1
 101 0 l 1
 100 1 l 1
 100 599 l 1
 101 600 l 1
 199 600 l 1
 200 599 l 1
 200 501 l 1
 201 500 l 1
 299 500 l 1
501 100 m 1
 500 101 l 1
 500 199 l 1
 501 200 l 1
 599 200 l 1
 600 201 l 1
 600 599 l 1
 601 600 l 1
 699 600 l 1
 700 599 l 1
 700 1 l 1
 699 0 l 1
 601 0 l 1
 600 1 l 1
 600 99 l 1
 599 100 l 1
 501 100 l 1
301 300 m 1
 300 301 l 1
 300 399 l 1
 301 400 l 1
 399 400 l 1
 400 399 l 1
 400 301 l 1
 399 300 l 1
 301 300 l 1
401 200 m 1
 400 201 l 1
 400 299 l 1
 401 300 l 1
 499 300 l 1
 500 299 l 1
 500 201 l 1
 499 200 l 1
 401 200 l 1
EndSplineSet
EndChar

StartChar: Ntilde
Encoding: 209 209 35
Width: 800
VWidth: 0
Flags: H
LayerCount: 2
Fore
SplineSet
299 400 m 1
 300 399 l 1
 300 301 l 1
 299 300 l 1
 201 300 l 1
 200 299 l 1
 200 1 l 1
 199 0 l 1
 101 0 l 1
 100 1 l 1
 100 499 l 1
 101 500 l 1
 199 500 l 1
 200 499 l 1
 200 401 l 1
 201 400 l 1
 299 400 l 1
401 100 m 1
 400 101 l 1
 400 199 l 1
 401 200 l 1
 499 200 l 1
 500 201 l 1
 500 499 l 1
 501 500 l 1
 599 500 l 1
 600 499 l 1
 600 1 l 1
 599 0 l 1
 501 0 l 1
 500 1 l 1
 500 99 l 1
 499 100 l 1
 401 100 l 1
301 200 m 1
 300 201 l 1
 300 299 l 1
 301 300 l 1
 399 300 l 1
 400 299 l 1
 400 201 l 1
 399 200 l 1
 301 200 l 1
201 500 m 1
 200 501 l 1
 200 599 l 1
 201 600 l 1
 299 600 l 1
 300 599 l 1
 300 501 l 1
 299 500 l 1
 201 500 l 1
301 600 m 1
 300 601 l 1
 300 699 l 1
 301 700 l 1
 399 700 l 1
 400 699 l 1
 400 601 l 1
 399 600 l 1
 301 600 l 1
401 500 m 1
 400 501 l 1
 400 599 l 1
 401 600 l 1
 499 600 l 1
 500 599 l 1
 500 501 l 1
 499 500 l 1
 401 500 l 1
501 600 m 1
 500 601 l 1
 500 699 l 1
 501 700 l 1
 599 700 l 1
 600 699 l 1
 600 601 l 1
 599 600 l 1
 501 600 l 1
EndSplineSet
EndChar

StartChar: O
Encoding: 79 79 36
Width: 800
VWidth: 0
Flags: H
LayerCount: 2
Fore
SplineSet
201 0 m 1
 200 1 l 1
 200 99 l 1
 201 100 l 1
 599 100 l 1
 600 99 l 1
 600 1 l 1
 599 0 l 1
 201 0 l 1
100 499 m 1
 101 500 l 1
 199 500 l 1
 200 499 l 1
 200 101 l 1
 199 100 l 1
 101 100 l 1
 100 101 l 1
 100 499 l 1
600 499 m 1
 601 500 l 1
 699 500 l 1
 700 499 l 1
 700 101 l 1
 699 100 l 1
 601 100 l 1
 600 101 l 1
 600 499 l 1
201 500 m 1
 200 501 l 1
 200 599 l 1
 201 600 l 1
 599 600 l 1
 600 599 l 1
 600 501 l 1
 599 500 l 1
 201 500 l 1
EndSplineSet
EndChar

StartChar: Oacute
Encoding: 211 211 37
Width: 800
VWidth: 0
Flags: H
LayerCount: 2
Fore
SplineSet
400 599 m 1
 400 501 l 1
 401 500 l 1
 599 500 l 1
 600 499 l 1
 600 401 l 1
 599 400 l 1
 201 400 l 1
 200 401 l 1
 200 499 l 1
 201 500 l 1
 299 500 l 1
 300 501 l 1
 300 599 l 1
 301 600 l 1
 399 600 l 1
 400 599 l 1
201 0 m 1
 200 1 l 1
 200 99 l 1
 201 100 l 1
 599 100 l 1
 600 99 l 1
 600 1 l 1
 599 0 l 1
 201 0 l 1
100 399 m 1
 101 400 l 1
 199 400 l 1
 200 399 l 1
 200 101 l 1
 199 100 l 1
 101 100 l 1
 100 101 l 1
 100 399 l 1
600 399 m 1
 601 400 l 1
 699 400 l 1
 700 399 l 1
 700 101 l 1
 699 100 l 1
 601 100 l 1
 600 101 l 1
 600 399 l 1
401 600 m 1
 400 601 l 1
 400 699 l 1
 401 700 l 1
 499 700 l 1
 500 699 l 1
 500 601 l 1
 499 600 l 1
 401 600 l 1
EndSplineSet
EndChar

StartChar: Ocircumflex
Encoding: 212 212 38
Width: 800
VWidth: 0
Flags: H
LayerCount: 2
Fore
SplineSet
201 0 m 1
 200 1 l 1
 200 99 l 1
 201 100 l 1
 499 100 l 1
 500 99 l 1
 500 1 l 1
 499 0 l 1
 201 0 l 1
100 399 m 1
 101 400 l 1
 199 400 l 1
 200 399 l 1
 200 101 l 1
 199 100 l 1
 101 100 l 1
 100 101 l 1
 100 399 l 1
500 399 m 1
 501 400 l 1
 599 400 l 1
 600 399 l 1
 600 101 l 1
 599 100 l 1
 501 100 l 1
 500 101 l 1
 500 399 l 1
301 600 m 1
 300 601 l 1
 300 699 l 1
 301 700 l 1
 399 700 l 1
 400 699 l 1
 400 601 l 1
 399 600 l 1
 301 600 l 1
400 599 m 1
 401 600 l 1
 499 600 l 1
 500 599 l 1
 500 401 l 1
 499 400 l 1
 201 400 l 1
 200 401 l 1
 200 599 l 1
 201 600 l 1
 299 600 l 1
 300 599 l 1
 300 501 l 1
 301 500 l 1
 400 500 l 1
 401 501 l 1
 400 599 l 1
EndSplineSet
EndChar

StartChar: Odieresis
Encoding: 214 214 39
Width: 800
VWidth: 0
Flags: H
LayerCount: 2
Fore
SplineSet
201 0 m 1
 200 1 l 1
 200 99 l 1
 201 100 l 1
 599 100 l 1
 600 99 l 1
 600 1 l 1
 599 0 l 1
 201 0 l 1
100 399 m 1
 101 400 l 1
 199 400 l 1
 200 399 l 1
 200 101 l 1
 199 100 l 1
 101 100 l 1
 100 101 l 1
 100 399 l 1
600 399 m 1
 601 400 l 1
 699 400 l 1
 700 399 l 1
 700 101 l 1
 699 100 l 1
 601 100 l 1
 600 101 l 1
 600 399 l 1
201 600 m 1
 200 601 l 1
 200 699 l 1
 201 700 l 1
 299 700 l 1
 300 699 l 1
 300 601 l 1
 299 600 l 1
 201 600 l 1
501 600 m 1
 500 601 l 1
 500 699 l 1
 501 700 l 1
 599 700 l 1
 600 699 l 1
 600 601 l 1
 599 600 l 1
 501 600 l 1
201 400 m 1
 200 401 l 1
 200 499 l 1
 201 500 l 1
 599 500 l 1
 600 499 l 1
 600 401 l 1
 599 400 l 1
 201 400 l 1
EndSplineSet
EndChar

StartChar: Ograve
Encoding: 210 210 40
Width: 800
VWidth: 0
Flags: H
LayerCount: 2
Fore
SplineSet
500 599 m 1
 500 501 l 1
 501 500 l 1
 599 500 l 1
 600 499 l 1
 600 401 l 1
 599 400 l 1
 201 400 l 1
 200 401 l 1
 200 499 l 1
 201 500 l 1
 399 500 l 1
 400 501 l 1
 400 599 l 1
 401 600 l 1
 499 600 l 1
 500 599 l 1
201 0 m 1
 200 1 l 1
 200 99 l 1
 201 100 l 1
 599 100 l 1
 600 99 l 1
 600 1 l 1
 599 0 l 1
 201 0 l 1
100 399 m 1
 101 400 l 1
 199 400 l 1
 200 399 l 1
 200 101 l 1
 199 100 l 1
 101 100 l 1
 100 101 l 1
 100 399 l 1
600 399 m 1
 601 400 l 1
 699 400 l 1
 700 399 l 1
 700 101 l 1
 699 100 l 1
 601 100 l 1
 600 101 l 1
 600 399 l 1
301 600 m 1
 300 601 l 1
 300 699 l 1
 301 700 l 1
 399 700 l 1
 400 699 l 1
 400 601 l 1
 399 600 l 1
 301 600 l 1
EndSplineSet
EndChar

StartChar: Otilde
Encoding: 213 213 41
Width: 800
VWidth: 0
Flags: H
LayerCount: 2
Fore
SplineSet
201 0 m 1
 200 1 l 1
 200 99 l 1
 201 100 l 1
 599 100 l 1
 600 99 l 1
 600 1 l 1
 599 0 l 1
 201 0 l 1
100 399 m 1
 101 400 l 1
 199 400 l 1
 200 399 l 1
 200 101 l 1
 199 100 l 1
 101 100 l 1
 100 101 l 1
 100 399 l 1
600 399 m 1
 601 400 l 1
 699 400 l 1
 700 399 l 1
 700 101 l 1
 699 100 l 1
 601 100 l 1
 600 101 l 1
 600 399 l 1
401 600 m 1
 400 601 l 1
 400 699 l 1
 401 700 l 1
 499 700 l 1
 500 699 l 1
 500 601 l 1
 499 600 l 1
 401 600 l 1
600 599 m 1
 600 401 l 1
 599 400 l 1
 201 400 l 1
 200 401 l 1
 200 499 l 1
 201 500 l 1
 299 500 l 1
 300 501 l 1
 300 599 l 1
 301 600 l 1
 399 600 l 1
 400 599 l 1
 400 501 l 1
 401 500 l 1
 499 500 l 1
 500 501 l 1
 500 599 l 1
 501 600 l 1
 599 600 l 1
 600 599 l 1
601 600 m 1
 600 601 l 1
 600 699 l 1
 601 700 l 1
 699 700 l 1
 700 699 l 1
 700 601 l 1
 699 600 l 1
 601 600 l 1
EndSplineSet
EndChar

StartChar: P
Encoding: 80 80 42
Width: 800
VWidth: 0
Flags: H
LayerCount: 2
Fore
SplineSet
599 600 m 1
 600 599 l 1
 600 501 l 1
 599 500 l 1
 201 500 l 1
 200 499 l 1
 200 301 l 1
 201 300 l 1
 599 300 l 1
 600 299 l 1
 600 201 l 1
 599 200 l 1
 201 200 l 1
 200 199 l 1
 200 1 l 1
 199 0 l 1
 101 0 l 1
 100 1 l 1
 100 599 l 1
 101 600 l 1
 599 600 l 1
600 499 m 1
 601 500 l 1
 699 500 l 1
 700 499 l 1
 700 301 l 1
 699 300 l 1
 601 300 l 1
 600 301 l 1
 600 499 l 1
EndSplineSet
EndChar

StartChar: Q
Encoding: 81 81 43
Width: 800
VWidth: 0
Flags: H
LayerCount: 2
Fore
SplineSet
100 499 m 1
 101 500 l 1
 199 500 l 1
 200 499 l 1
 200 101 l 1
 199 100 l 1
 101 100 l 1
 100 101 l 1
 100 499 l 1
600 499 m 1
 601 500 l 1
 699 500 l 1
 700 499 l 1
 700 101 l 1
 699 100 l 1
 601 100 l 1
 600 101 l 1
 600 499 l 1
201 500 m 1
 200 501 l 1
 200 599 l 1
 201 600 l 1
 599 600 l 1
 600 599 l 1
 600 501 l 1
 599 500 l 1
 201 500 l 1
400 199 m 1
 401 200 l 1
 499 200 l 1
 500 199 l 1
 500 101 l 1
 501 100 l 1
 599 100 l 1
 600 99 l 1
 600 1 l 1
 599 0 l 1
 201 0 l 1
 200 1 l 1
 200 99 l 1
 201 100 l 1
 399 100 l 1
 400 101 l 1
 400 199 l 1
301 200 m 1
 300 201 l 1
 300 299 l 1
 301 300 l 1
 399 300 l 1
 400 299 l 1
 400 201 l 1
 399 200 l 1
 301 200 l 1
EndSplineSet
EndChar

StartChar: R
Encoding: 82 82 44
Width: 800
VWidth: 0
Flags: H
LayerCount: 2
Fore
SplineSet
601 0 m 1
 600 1 l 1
 600 99 l 1
 601 100 l 1
 699 100 l 1
 700 99 l 1
 700 1 l 1
 699 0 l 1
 601 0 l 1
600 499 m 1
 601 500 l 1
 699 500 l 1
 700 499 l 1
 700 301 l 1
 699 300 l 1
 601 300 l 1
 600 301 l 1
 600 499 l 1
599 600 m 1
 600 599 l 1
 600 501 l 1
 599 500 l 1
 201 500 l 1
 200 499 l 1
 200 301 l 1
 201 300 l 1
 599 300 l 1
 600 299 l 1
 600 101 l 1
 599 100 l 1
 501 100 l 1
 500 101 l 1
 500 199 l 1
 499 200 l 1
 201 200 l 1
 200 199 l 1
 200 1 l 1
 199 0 l 1
 101 0 l 1
 100 1 l 1
 100 599 l 1
 101 600 l 1
 599 600 l 1
EndSplineSet
EndChar

StartChar: S
Encoding: 83 83 45
Width: 800
VWidth: 0
Flags: H
LayerCount: 2
Fore
SplineSet
101 100 m 1
 100 101 l 1
 100 199 l 1
 101 200 l 1
 199 200 l 1
 200 199 l 1
 200 101 l 1
 199 100 l 1
 101 100 l 1
600 299 m 1
 601 300 l 1
 699 300 l 1
 700 299 l 1
 700 101 l 1
 699 100 l 1
 601 100 l 1
 600 101 l 1
 600 299 l 1
101 400 m 1
 100 401 l 1
 100 499 l 1
 101 500 l 1
 199 500 l 1
 200 499 l 1
 200 401 l 1
 199 400 l 1
 101 400 l 1
201 0 m 1
 200 1 l 1
 200 99 l 1
 201 100 l 1
 599 100 l 1
 600 99 l 1
 600 1 l 1
 599 0 l 1
 201 0 l 1
201 300 m 1
 200 301 l 1
 200 399 l 1
 201 400 l 1
 599 400 l 1
 600 399 l 1
 600 301 l 1
 599 300 l 1
 201 300 l 1
201 500 m 1
 200 501 l 1
 200 599 l 1
 201 600 l 1
 599 600 l 1
 600 599 l 1
 600 501 l 1
 599 500 l 1
 201 500 l 1
EndSplineSet
EndChar

StartChar: T
Encoding: 84 84 46
Width: 800
VWidth: 0
Flags: H
LayerCount: 2
Fore
SplineSet
400 1 m 1
 399 0 l 1
 301 0 l 1
 300 1 l 1
 300 499 l 1
 299 500 l 1
 1 500 l 1
 0 501 l 1
 0 599 l 1
 1 600 l 1
 699 600 l 1
 700 599 l 1
 700 501 l 1
 699 500 l 1
 401 500 l 1
 400 499 l 1
 400 1 l 1
EndSplineSet
EndChar

StartChar: Thorn
Encoding: 222 222 47
Width: 800
VWidth: 0
Flags: H
LayerCount: 2
Fore
SplineSet
501 200 m 1
 500 201 l 1
 500 299 l 1
 501 300 l 1
 599 300 l 1
 600 299 l 1
 600 201 l 1
 599 200 l 1
 501 200 l 1
499 200 m 1
 500 199 l 1
 500 101 l 1
 499 100 l 1
 301 100 l 1
 300 99 l 1
 300 -99 l 1
 299 -100 l 1
 201 -100 l 1
 200 -99 l 1
 200 599 l 1
 201 600 l 1
 299 600 l 1
 300 599 l 1
 300 401 l 1
 301 400 l 1
 499 400 l 1
 500 399 l 1
 500 301 l 1
 499 300 l 1
 301 300 l 1
 300 299 l 1
 300 201 l 1
 301 200 l 1
 499 200 l 1
EndSplineSet
EndChar

StartChar: U
Encoding: 85 85 48
Width: 800
VWidth: 0
Flags: H
LayerCount: 2
Fore
SplineSet
201 0 m 1
 200 1 l 1
 200 99 l 1
 201 100 l 1
 599 100 l 1
 600 99 l 1
 600 1 l 1
 599 0 l 1
 201 0 l 1
100 599 m 1
 101 600 l 1
 199 600 l 1
 200 599 l 1
 200 101 l 1
 199 100 l 1
 101 100 l 1
 100 101 l 1
 100 599 l 1
600 599 m 1
 601 600 l 1
 699 600 l 1
 700 599 l 1
 700 101 l 1
 699 100 l 1
 601 100 l 1
 600 101 l 1
 600 599 l 1
EndSplineSet
EndChar

StartChar: Uacute
Encoding: 218 218 49
Width: 800
VWidth: 0
Flags: H
LayerCount: 2
Fore
SplineSet
401 600 m 1
 400 601 l 1
 400 699 l 1
 401 700 l 1
 499 700 l 1
 500 699 l 1
 500 601 l 1
 499 600 l 1
 401 600 l 1
201 0 m 1
 200 1 l 1
 200 99 l 1
 201 100 l 1
 599 100 l 1
 600 99 l 1
 600 1 l 1
 599 0 l 1
 201 0 l 1
100 499 m 1
 101 500 l 1
 199 500 l 1
 200 499 l 1
 200 101 l 1
 199 100 l 1
 101 100 l 1
 100 101 l 1
 100 499 l 1
600 499 m 1
 601 500 l 1
 699 500 l 1
 700 499 l 1
 700 101 l 1
 699 100 l 1
 601 100 l 1
 600 101 l 1
 600 499 l 1
301 500 m 1
 300 501 l 1
 300 599 l 1
 301 600 l 1
 399 600 l 1
 400 599 l 1
 400 501 l 1
 399 500 l 1
 301 500 l 1
EndSplineSet
EndChar

StartChar: Ucircumflex
Encoding: 219 219 50
Width: 800
VWidth: 0
Flags: H
LayerCount: 2
Fore
SplineSet
401 600 m 1
 400 601 l 1
 400 699 l 1
 401 700 l 1
 499 700 l 1
 500 699 l 1
 500 601 l 1
 499 600 l 1
 401 600 l 1
201 0 m 1
 200 1 l 1
 200 99 l 1
 201 100 l 1
 599 100 l 1
 600 99 l 1
 600 1 l 1
 599 0 l 1
 201 0 l 1
100 499 m 1
 101 500 l 1
 199 500 l 1
 200 499 l 1
 200 101 l 1
 199 100 l 1
 101 100 l 1
 100 101 l 1
 100 499 l 1
600 499 m 1
 601 500 l 1
 699 500 l 1
 700 499 l 1
 700 101 l 1
 699 100 l 1
 601 100 l 1
 600 101 l 1
 600 499 l 1
301 500 m 1
 300 501 l 1
 300 599 l 1
 301 600 l 1
 399 600 l 1
 400 599 l 1
 400 501 l 1
 399 500 l 1
 301 500 l 1
501 500 m 1
 500 501 l 1
 500 599 l 1
 501 600 l 1
 599 600 l 1
 600 599 l 1
 600 501 l 1
 599 500 l 1
 501 500 l 1
EndSplineSet
EndChar

StartChar: Udieresis
Encoding: 220 220 51
Width: 800
VWidth: 0
Flags: H
LayerCount: 2
Fore
SplineSet
101 600 m 1
 100 601 l 1
 100 699 l 1
 101 700 l 1
 199 700 l 1
 200 699 l 1
 200 601 l 1
 199 600 l 1
 101 600 l 1
201 0 m 1
 200 1 l 1
 200 99 l 1
 201 100 l 1
 599 100 l 1
 600 99 l 1
 600 1 l 1
 599 0 l 1
 201 0 l 1
100 499 m 1
 101 500 l 1
 199 500 l 1
 200 499 l 1
 200 101 l 1
 199 100 l 1
 101 100 l 1
 100 101 l 1
 100 499 l 1
600 499 m 1
 601 500 l 1
 699 500 l 1
 700 499 l 1
 700 101 l 1
 699 100 l 1
 601 100 l 1
 600 101 l 1
 600 499 l 1
601 600 m 1
 600 601 l 1
 600 699 l 1
 601 700 l 1
 699 700 l 1
 700 699 l 1
 700 601 l 1
 699 600 l 1
 601 600 l 1
EndSplineSet
EndChar

StartChar: Ugrave
Encoding: 217 217 52
Width: 800
VWidth: 0
Flags: H
LayerCount: 2
Fore
SplineSet
301 600 m 1
 300 601 l 1
 300 699 l 1
 301 700 l 1
 399 700 l 1
 400 699 l 1
 400 601 l 1
 399 600 l 1
 301 600 l 1
201 0 m 1
 200 1 l 1
 200 99 l 1
 201 100 l 1
 599 100 l 1
 600 99 l 1
 600 1 l 1
 599 0 l 1
 201 0 l 1
100 499 m 1
 101 500 l 1
 199 500 l 1
 200 499 l 1
 200 101 l 1
 199 100 l 1
 101 100 l 1
 100 101 l 1
 100 499 l 1
600 499 m 1
 601 500 l 1
 699 500 l 1
 700 499 l 1
 700 101 l 1
 699 100 l 1
 601 100 l 1
 600 101 l 1
 600 499 l 1
401 500 m 1
 400 501 l 1
 400 599 l 1
 401 600 l 1
 499 600 l 1
 500 599 l 1
 500 501 l 1
 499 500 l 1
 401 500 l 1
EndSplineSet
EndChar

StartChar: V
Encoding: 86 86 53
Width: 800
VWidth: 0
Flags: H
LayerCount: 2
Fore
SplineSet
499 100 m 1
 500 99 l 1
 500 1 l 1
 499 0 l 1
 301 0 l 1
 300 1 l 1
 300 99 l 1
 301 100 l 1
 499 100 l 1
600 599 m 1
 601 600 l 1
 699 600 l 1
 700 599 l 1
 700 201 l 1
 699 200 l 1
 601 200 l 1
 600 201 l 1
 600 599 l 1
100 599 m 1
 101 600 l 1
 199 600 l 1
 200 599 l 1
 200 201 l 1
 199 200 l 1
 101 200 l 1
 100 201 l 1
 100 599 l 1
201 100 m 1
 200 101 l 1
 200 199 l 1
 201 200 l 1
 299 200 l 1
 300 199 l 1
 300 101 l 1
 299 100 l 1
 201 100 l 1
501 100 m 1
 500 101 l 1
 500 199 l 1
 501 200 l 1
 599 200 l 1
 600 199 l 1
 600 101 l 1
 599 100 l 1
 501 100 l 1
EndSplineSet
EndChar

StartChar: W
Encoding: 87 87 54
Width: 800
VWidth: 0
Flags: H
LayerCount: 2
Fore
SplineSet
499 200 m 1
 500 199 l 1
 500 101 l 1
 499 100 l 1
 301 100 l 1
 300 101 l 1
 300 199 l 1
 301 200 l 1
 499 200 l 1
600 599 m 1
 601 600 l 1
 699 600 l 1
 700 599 l 1
 700 101 l 1
 699 100 l 1
 601 100 l 1
 600 101 l 1
 600 599 l 1
100 599 m 1
 101 600 l 1
 199 600 l 1
 200 599 l 1
 200 101 l 1
 199 100 l 1
 101 100 l 1
 100 101 l 1
 100 599 l 1
201 0 m 1
 200 1 l 1
 200 99 l 1
 201 100 l 1
 299 100 l 1
 300 99 l 1
 300 1 l 1
 299 0 l 1
 201 0 l 1
501 0 m 1
 500 1 l 1
 500 99 l 1
 501 100 l 1
 599 100 l 1
 600 99 l 1
 600 1 l 1
 599 0 l 1
 501 0 l 1
EndSplineSet
EndChar

StartChar: X
Encoding: 88 88 55
Width: 800
VWidth: 0
Flags: H
LayerCount: 2
Fore
SplineSet
201 100 m 1
 200 101 l 1
 200 199 l 1
 201 200 l 1
 299 200 l 1
 300 199 l 1
 300 101 l 1
 299 100 l 1
 201 100 l 1
501 100 m 1
 500 101 l 1
 500 199 l 1
 501 200 l 1
 599 200 l 1
 600 199 l 1
 600 101 l 1
 599 100 l 1
 501 100 l 1
300 399 m 1
 301 400 l 1
 499 400 l 1
 500 399 l 1
 500 201 l 1
 499 200 l 1
 301 200 l 1
 300 201 l 1
 300 399 l 1
201 400 m 1
 200 401 l 1
 200 499 l 1
 201 500 l 1
 299 500 l 1
 300 499 l 1
 300 401 l 1
 299 400 l 1
 201 400 l 1
501 400 m 1
 500 401 l 1
 500 499 l 1
 501 500 l 1
 599 500 l 1
 600 499 l 1
 600 401 l 1
 599 400 l 1
 501 400 l 1
101 0 m 1
 100 1 l 1
 100 99 l 1
 101 100 l 1
 199 100 l 1
 200 99 l 1
 200 1 l 1
 199 0 l 1
 101 0 l 1
601 0 m 1
 600 1 l 1
 600 99 l 1
 601 100 l 1
 699 100 l 1
 700 99 l 1
 700 1 l 1
 699 0 l 1
 601 0 l 1
101 500 m 1
 100 501 l 1
 100 599 l 1
 101 600 l 1
 199 600 l 1
 200 599 l 1
 200 501 l 1
 199 500 l 1
 101 500 l 1
601 500 m 1
 600 501 l 1
 600 599 l 1
 601 600 l 1
 699 600 l 1
 700 599 l 1
 700 501 l 1
 699 500 l 1
 601 500 l 1
EndSplineSet
EndChar

StartChar: Y
Encoding: 89 89 56
Width: 800
VWidth: 0
Flags: H
LayerCount: 2
Fore
SplineSet
201 300 m 1
 200 301 l 1
 200 399 l 1
 201 400 l 1
 299 400 l 1
 300 399 l 1
 300 301 l 1
 299 300 l 1
 201 300 l 1
101 400 m 1
 100 401 l 1
 100 499 l 1
 101 500 l 1
 199 500 l 1
 200 499 l 1
 200 401 l 1
 199 400 l 1
 101 400 l 1
501 400 m 1
 500 401 l 1
 500 499 l 1
 501 500 l 1
 599 500 l 1
 600 499 l 1
 600 401 l 1
 599 400 l 1
 501 400 l 1
401 300 m 1
 400 301 l 1
 400 399 l 1
 401 400 l 1
 499 400 l 1
 500 399 l 1
 500 301 l 1
 499 300 l 1
 401 300 l 1
1 500 m 1
 0 501 l 1
 0 599 l 1
 1 600 l 1
 99 600 l 1
 100 599 l 1
 100 501 l 1
 99 500 l 1
 1 500 l 1
601 500 m 1
 600 501 l 1
 600 599 l 1
 601 600 l 1
 699 600 l 1
 700 599 l 1
 700 501 l 1
 699 500 l 1
 601 500 l 1
300 299 m 1
 301 300 l 1
 399 300 l 1
 400 299 l 1
 400 1 l 1
 399 0 l 1
 301 0 l 1
 300 1 l 1
 300 299 l 1
EndSplineSet
EndChar

StartChar: Yacute
Encoding: 221 221 57
Width: 800
VWidth: 0
Flags: H
LayerCount: 2
Fore
SplineSet
401 600 m 1
 400 601 l 1
 400 699 l 1
 401 700 l 1
 499 700 l 1
 500 699 l 1
 500 601 l 1
 499 600 l 1
 401 600 l 1
301 500 m 1
 300 501 l 1
 300 599 l 1
 301 600 l 1
 399 600 l 1
 400 599 l 1
 400 501 l 1
 399 500 l 1
 301 500 l 1
201 300 m 1
 200 301 l 1
 200 399 l 1
 201 400 l 1
 299 400 l 1
 300 399 l 1
 300 301 l 1
 299 300 l 1
 201 300 l 1
101 400 m 1
 100 401 l 1
 100 499 l 1
 101 500 l 1
 199 500 l 1
 200 499 l 1
 200 401 l 1
 199 400 l 1
 101 400 l 1
501 400 m 1
 500 401 l 1
 500 499 l 1
 501 500 l 1
 599 500 l 1
 600 499 l 1
 600 401 l 1
 599 400 l 1
 501 400 l 1
401 300 m 1
 400 301 l 1
 400 399 l 1
 401 400 l 1
 499 400 l 1
 500 399 l 1
 500 301 l 1
 499 300 l 1
 401 300 l 1
1 500 m 1
 0 501 l 1
 0 599 l 1
 1 600 l 1
 99 600 l 1
 100 599 l 1
 100 501 l 1
 99 500 l 1
 1 500 l 1
601 500 m 1
 600 501 l 1
 600 599 l 1
 601 600 l 1
 699 600 l 1
 700 599 l 1
 700 501 l 1
 699 500 l 1
 601 500 l 1
300 299 m 1
 301 300 l 1
 399 300 l 1
 400 299 l 1
 400 1 l 1
 399 0 l 1
 301 0 l 1
 300 1 l 1
 300 299 l 1
EndSplineSet
EndChar

StartChar: Z
Encoding: 90 90 58
Width: 800
VWidth: 0
Flags: H
LayerCount: 2
Fore
SplineSet
401 300 m 1
 400 301 l 1
 400 399 l 1
 401 400 l 1
 499 400 l 1
 500 399 l 1
 500 301 l 1
 499 300 l 1
 401 300 l 1
301 200 m 1
 300 201 l 1
 300 299 l 1
 301 300 l 1
 399 300 l 1
 400 299 l 1
 400 201 l 1
 399 200 l 1
 301 200 l 1
200 199 m 1
 201 200 l 1
 299 200 l 1
 300 199 l 1
 300 101 l 1
 301 100 l 1
 699 100 l 1
 700 99 l 1
 700 1 l 1
 699 0 l 1
 101 0 l 1
 100 1 l 1
 100 99 l 1
 101 100 l 1
 199 100 l 1
 200 101 l 1
 200 199 l 1
600 401 m 1
 599 400 l 1
 501 400 l 1
 500 401 l 1
 500 499 l 1
 499 500 l 1
 101 500 l 1
 100 501 l 1
 100 599 l 1
 101 600 l 1
 699 600 l 1
 700 599 l 1
 700 501 l 1
 699 500 l 1
 601 500 l 1
 600 499 l 1
 600 401 l 1
EndSplineSet
EndChar

StartChar: a
Encoding: 97 97 59
Width: 800
VWidth: 0
Flags: H
LayerCount: 2
Fore
SplineSet
101 100 m 1
 100 101 l 1
 100 199 l 1
 101 200 l 1
 199 200 l 1
 200 199 l 1
 200 101 l 1
 199 100 l 1
 101 100 l 1
499 500 m 1
 500 499 l 1
 500 401 l 1
 499 400 l 1
 201 400 l 1
 200 401 l 1
 200 499 l 1
 201 500 l 1
 499 500 l 1
201 0 m 1
 200 1 l 1
 200 99 l 1
 201 100 l 1
 499 100 l 1
 500 101 l 1
 500 199 l 1
 499 200 l 1
 201 200 l 1
 200 201 l 1
 200 299 l 1
 201 300 l 1
 499 300 l 1
 500 301 l 1
 500 399 l 1
 501 400 l 1
 599 400 l 1
 600 399 l 1
 600 1 l 1
 599 0 l 1
 201 0 l 1
EndSplineSet
EndChar

StartChar: acute
Encoding: 180 180 60
Width: 800
VWidth: 0
Flags: H
LayerCount: 2
Fore
SplineSet
301 400 m 1
 300 401 l 1
 300 499 l 1
 301 500 l 1
 399 500 l 1
 400 499 l 1
 400 401 l 1
 399 400 l 1
 301 400 l 1
400 699 m 1
 401 700 l 1
 499 700 l 1
 500 699 l 1
 500 501 l 1
 499 500 l 1
 401 500 l 1
 400 501 l 1
 400 699 l 1
EndSplineSet
EndChar

StartChar: ampersand
Encoding: 38 38 61
Width: 800
VWidth: 0
Flags: H
LayerCount: 2
Fore
SplineSet
101 100 m 1
 100 101 l 1
 100 199 l 1
 101 200 l 1
 199 200 l 1
 200 199 l 1
 200 101 l 1
 199 100 l 1
 101 100 l 1
201 200 m 1
 200 201 l 1
 200 299 l 1
 201 300 l 1
 299 300 l 1
 300 299 l 1
 300 201 l 1
 299 200 l 1
 201 200 l 1
301 300 m 1
 300 301 l 1
 300 399 l 1
 301 400 l 1
 399 400 l 1
 400 399 l 1
 400 301 l 1
 399 300 l 1
 301 300 l 1
401 400 m 1
 400 401 l 1
 400 499 l 1
 401 500 l 1
 499 500 l 1
 500 499 l 1
 500 401 l 1
 499 400 l 1
 401 400 l 1
201 400 m 1
 200 401 l 1
 200 499 l 1
 201 500 l 1
 299 500 l 1
 300 499 l 1
 300 401 l 1
 299 400 l 1
 201 400 l 1
301 500 m 1
 300 501 l 1
 300 599 l 1
 301 600 l 1
 399 600 l 1
 400 599 l 1
 400 501 l 1
 399 500 l 1
 301 500 l 1
501 100 m 1
 500 101 l 1
 500 199 l 1
 501 200 l 1
 599 200 l 1
 600 199 l 1
 600 101 l 1
 599 100 l 1
 501 100 l 1
601 200 m 1
 600 201 l 1
 600 299 l 1
 601 300 l 1
 699 300 l 1
 700 299 l 1
 700 201 l 1
 699 200 l 1
 601 200 l 1
401 200 m 1
 400 201 l 1
 400 299 l 1
 401 300 l 1
 499 300 l 1
 500 299 l 1
 500 201 l 1
 499 200 l 1
 401 200 l 1
601 0 m 1
 600 1 l 1
 600 99 l 1
 601 100 l 1
 699 100 l 1
 700 99 l 1
 700 1 l 1
 699 0 l 1
 601 0 l 1
201 0 m 1
 200 1 l 1
 200 99 l 1
 201 100 l 1
 499 100 l 1
 500 99 l 1
 500 1 l 1
 499 0 l 1
 201 0 l 1
EndSplineSet
EndChar

StartChar: asciicircum
Encoding: 94 94 62
Width: 800
VWidth: 0
Flags: H
LayerCount: 2
Fore
SplineSet
101 300 m 1
 100 301 l 1
 100 399 l 1
 101 400 l 1
 199 400 l 1
 200 399 l 1
 200 301 l 1
 199 300 l 1
 101 300 l 1
501 300 m 1
 500 301 l 1
 500 399 l 1
 501 400 l 1
 599 400 l 1
 600 399 l 1
 600 301 l 1
 599 300 l 1
 501 300 l 1
499 500 m 1
 500 499 l 1
 500 401 l 1
 499 400 l 1
 401 400 l 1
 400 399 l 1
 400 1 l 1
 399 0 l 1
 301 0 l 1
 300 1 l 1
 300 399 l 1
 299 400 l 1
 201 400 l 1
 200 401 l 1
 200 499 l 1
 201 500 l 1
 299 500 l 1
 300 501 l 1
 300 599 l 1
 301 600 l 1
 399 600 l 1
 400 599 l 1
 400 501 l 1
 401 500 l 1
 499 500 l 1
EndSplineSet
EndChar

StartChar: asciitilde
Encoding: 126 126 63
Width: 800
VWidth: 0
Flags: H
LayerCount: 2
Fore
SplineSet
201 400 m 1
 200 401 l 1
 200 499 l 1
 201 500 l 1
 299 500 l 1
 300 499 l 1
 300 401 l 1
 299 400 l 1
 201 400 l 1
301 500 m 1
 300 501 l 1
 300 599 l 1
 301 600 l 1
 399 600 l 1
 400 599 l 1
 400 501 l 1
 399 500 l 1
 301 500 l 1
401 400 m 1
 400 401 l 1
 400 499 l 1
 401 500 l 1
 499 500 l 1
 500 499 l 1
 500 401 l 1
 499 400 l 1
 401 400 l 1
501 500 m 1
 500 501 l 1
 500 599 l 1
 501 600 l 1
 599 600 l 1
 600 599 l 1
 600 501 l 1
 599 500 l 1
 501 500 l 1
EndSplineSet
EndChar

StartChar: asterisk
Encoding: 42 42 64
Width: 800
VWidth: 0
Flags: H
LayerCount: 2
Fore
SplineSet
301 0 m 1
 300 1 l 1
 300 99 l 1
 301 100 l 1
 399 100 l 1
 400 99 l 1
 400 1 l 1
 399 0 l 1
 301 0 l 1
301 400 m 1
 300 401 l 1
 300 499 l 1
 301 500 l 1
 399 500 l 1
 400 499 l 1
 400 401 l 1
 399 400 l 1
 301 400 l 1
501 0 m 1
 500 1 l 1
 500 99 l 1
 501 100 l 1
 599 100 l 1
 600 99 l 1
 600 1 l 1
 599 0 l 1
 501 0 l 1
501 400 m 1
 500 401 l 1
 500 499 l 1
 501 500 l 1
 599 500 l 1
 600 499 l 1
 600 401 l 1
 599 400 l 1
 501 400 l 1
699 300 m 1
 700 299 l 1
 700 201 l 1
 699 200 l 1
 501 200 l 1
 500 199 l 1
 500 101 l 1
 499 100 l 1
 401 100 l 1
 400 101 l 1
 400 199 l 1
 399 200 l 1
 201 200 l 1
 200 201 l 1
 200 299 l 1
 201 300 l 1
 399 300 l 1
 400 301 l 1
 400 399 l 1
 401 400 l 1
 499 400 l 1
 500 399 l 1
 500 301 l 1
 501 300 l 1
 699 300 l 1
EndSplineSet
EndChar

StartChar: at
Encoding: 64 64 65
Width: 800
VWidth: 0
Flags: H
LayerCount: 2
Fore
SplineSet
301 300 m 1
 300 301 l 1
 300 399 l 1
 301 400 l 1
 399 400 l 1
 400 399 l 1
 400 301 l 1
 399 300 l 1
 301 300 l 1
201 0 m 1
 200 1 l 1
 200 99 l 1
 201 100 l 1
 599 100 l 1
 600 99 l 1
 600 1 l 1
 599 0 l 1
 201 0 l 1
100 499 m 1
 101 500 l 1
 199 500 l 1
 200 499 l 1
 200 101 l 1
 199 100 l 1
 101 100 l 1
 100 101 l 1
 100 499 l 1
201 500 m 1
 200 501 l 1
 200 599 l 1
 201 600 l 1
 599 600 l 1
 600 599 l 1
 600 501 l 1
 599 500 l 1
 501 500 l 1
 500 499 l 1
 500 401 l 1
 499 400 l 1
 401 400 l 1
 400 401 l 1
 400 499 l 1
 399 500 l 1
 201 500 l 1
600 499 m 1
 601 500 l 1
 699 500 l 1
 700 499 l 1
 700 201 l 1
 699 200 l 1
 401 200 l 1
 400 201 l 1
 400 299 l 1
 401 300 l 1
 499 300 l 1
 500 301 l 1
 500 399 l 1
 501 400 l 1
 599 400 l 1
 600 401 l 1
 600 499 l 1
EndSplineSet
EndChar

StartChar: b
Encoding: 98 98 66
Width: 800
VWidth: 0
Flags: H
LayerCount: 2
Fore
SplineSet
599 0 m 1
 201 0 l 1
 200 1 l 1
 200 599 l 1
 201 600 l 1
 299 600 l 1
 300 599 l 1
 300 401 l 1
 301 400 l 1
 599 400 l 1
 600 399 l 1
 600 301 l 1
 599 300 l 1
 301 300 l 1
 300 299 l 1
 300 101 l 1
 301 100 l 1
 599 100 l 1
 600 99 l 1
 600 1 l 1
 599 0 l 1
600 299 m 1
 601 300 l 1
 699 300 l 1
 700 299 l 1
 700 101 l 1
 699 100 l 1
 601 100 l 1
 600 101 l 1
 600 299 l 1
EndSplineSet
EndChar

StartChar: backslash
Encoding: 92 92 67
Width: 800
VWidth: 0
Flags: H
LayerCount: 2
Fore
SplineSet
101 400 m 1
 100 401 l 1
 100 499 l 1
 101 500 l 1
 199 500 l 1
 200 499 l 1
 200 401 l 1
 199 400 l 1
 101 400 l 1
201 300 m 1
 200 301 l 1
 200 399 l 1
 201 400 l 1
 299 400 l 1
 300 399 l 1
 300 301 l 1
 299 300 l 1
 201 300 l 1
301 200 m 1
 300 201 l 1
 300 299 l 1
 301 300 l 1
 399 300 l 1
 400 299 l 1
 400 201 l 1
 399 200 l 1
 301 200 l 1
401 100 m 1
 400 101 l 1
 400 199 l 1
 401 200 l 1
 499 200 l 1
 500 199 l 1
 500 101 l 1
 499 100 l 1
 401 100 l 1
501 0 m 1
 500 1 l 1
 500 99 l 1
 501 100 l 1
 599 100 l 1
 600 99 l 1
 600 1 l 1
 599 0 l 1
 501 0 l 1
EndSplineSet
EndChar

StartChar: bar
Encoding: 124 124 68
Width: 800
VWidth: 0
Flags: H
LayerCount: 2
Fore
SplineSet
400 599 m 1
 401 600 l 1
 499 600 l 1
 500 599 l 1
 500 1 l 1
 499 0 l 1
 401 0 l 1
 400 1 l 1
 400 599 l 1
EndSplineSet
EndChar

StartChar: block
Encoding: 9608 9608 69
Width: 800
VWidth: 0
Flags: H
LayerCount: 2
Fore
SplineSet
0 -100 m 1
 0 700 l 1
 800 700 l 1
 800 -100 l 1
 0 -100 l 1
EndSplineSet
EndChar

StartChar: braceleft
Encoding: 123 123 70
Width: 800
VWidth: 0
Flags: H
LayerCount: 2
Fore
SplineSet
401 0 m 1
 400 1 l 1
 400 299 l 1
 401 300 l 1
 499 300 l 1
 500 299 l 1
 500 101 l 1
 501 100 l 1
 699 100 l 1
 700 99 l 1
 700 1 l 1
 699 0 l 1
 401 0 l 1
400 599 m 1
 401 600 l 1
 699 600 l 1
 700 599 l 1
 700 501 l 1
 699 500 l 1
 501 500 l 1
 500 499 l 1
 500 401 l 1
 499 400 l 1
 401 400 l 1
 400 401 l 1
 400 599 l 1
399 400 m 1
 400 399 l 1
 400 301 l 1
 399 300 l 1
 201 300 l 1
 200 301 l 1
 200 399 l 1
 201 400 l 1
 399 400 l 1
EndSplineSet
EndChar

StartChar: braceright
Encoding: 125 125 71
Width: 800
VWidth: 0
Flags: H
LayerCount: 2
Fore
SplineSet
399 0 m 1
 101 0 l 1
 100 1 l 1
 100 99 l 1
 101 100 l 1
 299 100 l 1
 300 101 l 1
 300 299 l 1
 301 300 l 1
 399 300 l 1
 400 299 l 1
 400 1 l 1
 399 0 l 1
400 599 m 1
 400 401 l 1
 399 400 l 1
 301 400 l 1
 300 401 l 1
 300 499 l 1
 299 500 l 1
 101 500 l 1
 100 501 l 1
 100 599 l 1
 101 600 l 1
 399 600 l 1
 400 599 l 1
599 400 m 1
 600 399 l 1
 600 301 l 1
 599 300 l 1
 401 300 l 1
 400 301 l 1
 400 399 l 1
 401 400 l 1
 599 400 l 1
EndSplineSet
EndChar

StartChar: bracketleft
Encoding: 91 91 72
Width: 800
VWidth: 0
Flags: H
LayerCount: 2
Fore
SplineSet
699 100 m 1
 700 99 l 1
 700 1 l 1
 699 0 l 1
 401 0 l 1
 400 1 l 1
 400 599 l 1
 401 600 l 1
 699 600 l 1
 700 599 l 1
 700 501 l 1
 699 500 l 1
 501 500 l 1
 500 499 l 1
 500 100 l 1
 501 99 l 1
 699 100 l 1
EndSplineSet
EndChar

StartChar: bracketright
Encoding: 93 93 73
Width: 800
VWidth: 0
Flags: H
LayerCount: 2
Fore
SplineSet
101 500 m 1
 100 501 l 1
 100 599 l 1
 101 600 l 1
 399 600 l 1
 400 599 l 1
 400 1 l 1
 399 0 l 1
 101 0 l 1
 100 1 l 1
 100 99 l 1
 101 100 l 1
 299 100 l 1
 300 101 l 1
 300 500 l 1
 299 501 l 1
 101 500 l 1
EndSplineSet
EndChar

StartChar: brokenbar
Encoding: 166 166 74
Width: 800
VWidth: 0
Flags: H
LayerCount: 2
Fore
SplineSet
400 699 m 1
 401 700 l 1
 499 700 l 1
 500 699 l 1
 500 401 l 1
 499 400 l 1
 401 400 l 1
 400 401 l 1
 400 699 l 1
400 299 m 1
 401 300 l 1
 499 300 l 1
 500 299 l 1
 500 -99 l 1
 499 -100 l 1
 401 -100 l 1
 400 -99 l 1
 400 299 l 1
EndSplineSet
EndChar

StartChar: bullet
Encoding: 8226 8226 75
Width: 800
VWidth: 0
Flags: H
LayerCount: 2
Fore
SplineSet
499 300 m 1
 500 299 l 1
 500 201 l 1
 499 200 l 1
 401 200 l 1
 400 199 l 1
 400 101 l 1
 399 100 l 1
 301 100 l 1
 300 101 l 1
 300 199 l 1
 299 200 l 1
 201 200 l 1
 200 201 l 1
 200 299 l 1
 201 300 l 1
 299 300 l 1
 300 301 l 1
 300 399 l 1
 301 400 l 1
 399 400 l 1
 400 399 l 1
 400 301 l 1
 401 300 l 1
 499 300 l 1
EndSplineSet
EndChar

StartChar: c
Encoding: 99 99 76
Width: 800
VWidth: 0
Flags: H
LayerCount: 2
Fore
SplineSet
200 399 m 1
 201 400 l 1
 299 400 l 1
 300 399 l 1
 300 101 l 1
 299 100 l 1
 201 100 l 1
 200 101 l 1
 200 399 l 1
599 100 m 1
 600 99 l 1
 600 1 l 1
 599 0 l 1
 301 0 l 1
 300 1 l 1
 300 99 l 1
 301 100 l 1
 599 100 l 1
599 500 m 1
 600 499 l 1
 600 401 l 1
 599 400 l 1
 301 400 l 1
 300 401 l 1
 300 499 l 1
 301 500 l 1
 599 500 l 1
EndSplineSet
EndChar

StartChar: cedilla
Encoding: 184 184 77
Width: 800
VWidth: 0
Flags: H
LayerCount: 2
Fore
SplineSet
499 -100 m 1
 301 -100 l 1
 300 -99 l 1
 300 -1 l 1
 301 0 l 1
 399 0 l 1
 400 1 l 1
 400 99 l 1
 401 100 l 1
 499 100 l 1
 500 99 l 1
 500 -99 l 1
 499 -100 l 1
EndSplineSet
EndChar

StartChar: cent
Encoding: 162 162 78
Width: 800
VWidth: 0
Flags: H
LayerCount: 2
Fore
SplineSet
200 399 m 1
 201 400 l 1
 299 400 l 1
 300 399 l 1
 300 101 l 1
 299 100 l 1
 201 100 l 1
 200 101 l 1
 200 399 l 1
601 300 m 1
 600 301 l 1
 600 399 l 1
 601 400 l 1
 699 400 l 1
 700 399 l 1
 700 301 l 1
 699 300 l 1
 601 300 l 1
601 100 m 1
 600 101 l 1
 600 199 l 1
 601 200 l 1
 699 200 l 1
 700 199 l 1
 700 101 l 1
 699 100 l 1
 601 100 l 1
599 100 m 1
 600 99 l 1
 600 1 l 1
 599 0 l 1
 501 0 l 1
 500 -1 l 1
 500 -99 l 1
 499 -100 l 1
 401 -100 l 1
 400 -99 l 1
 400 -1 l 1
 399 0 l 1
 301 0 l 1
 300 1 l 1
 300 99 l 1
 301 100 l 1
 399 100 l 1
 400 101 l 1
 400 399 l 1
 399 400 l 1
 301 400 l 1
 300 401 l 1
 300 499 l 1
 301 500 l 1
 399 500 l 1
 400 501 l 1
 400 599 l 1
 401 600 l 1
 499 600 l 1
 500 599 l 1
 500 501 l 1
 501 500 l 1
 599 500 l 1
 600 499 l 1
 600 401 l 1
 599 400 l 1
 501 400 l 1
 500 399 l 1
 500 101 l 1
 501 100 l 1
 599 100 l 1
EndSplineSet
EndChar

StartChar: circle
Encoding: 9675 9675 79
Width: 800
VWidth: 0
Flags: H
LayerCount: 2
Fore
SplineSet
200 399 m 1
 201 400 l 1
 299 400 l 1
 300 399 l 1
 300 201 l 1
 299 200 l 1
 201 200 l 1
 200 201 l 1
 200 399 l 1
500 399 m 1
 501 400 l 1
 599 400 l 1
 600 399 l 1
 600 201 l 1
 599 200 l 1
 501 200 l 1
 500 201 l 1
 500 399 l 1
499 500 m 1
 500 499 l 1
 500 401 l 1
 499 400 l 1
 301 400 l 1
 300 401 l 1
 300 499 l 1
 301 500 l 1
 499 500 l 1
499 200 m 1
 500 199 l 1
 500 101 l 1
 499 100 l 1
 301 100 l 1
 300 101 l 1
 300 199 l 1
 301 200 l 1
 499 200 l 1
EndSplineSet
EndChar

StartChar: club
Encoding: 9827 9827 80
Width: 800
VWidth: 0
Flags: H
LayerCount: 2
Fore
SplineSet
201 -100 m 1
 200 -99 l 1
 200 -1 l 1
 201 0 l 1
 299 0 l 1
 300 1 l 1
 300 199 l 1
 299 200 l 1
 201 200 l 1
 200 199 l 1
 200 101 l 1
 199 100 l 1
 1 100 l 1
 0 101 l 1
 0 299 l 1
 1 300 l 1
 299 300 l 1
 300 301 l 1
 300 399 l 1
 299 400 l 1
 201 400 l 1
 200 401 l 1
 200 599 l 1
 201 600 l 1
 499 600 l 1
 500 599 l 1
 500 401 l 1
 499 400 l 1
 401 400 l 1
 400 399 l 1
 400 301 l 1
 401 300 l 1
 699 300 l 1
 700 299 l 1
 700 101 l 1
 699 100 l 1
 501 100 l 1
 500 101 l 1
 500 199 l 1
 499 200 l 1
 401 200 l 1
 400 199 l 1
 400 1 l 1
 401 0 l 1
 499 0 l 1
 500 -1 l 1
 500 -99 l 1
 499 -100 l 1
 201 -100 l 1
EndSplineSet
EndChar

StartChar: colon
Encoding: 58 58 81
Width: 800
VWidth: 0
Flags: H
LayerCount: 2
Fore
SplineSet
301 300 m 1
 300 301 l 1
 300 399 l 1
 301 400 l 1
 399 400 l 1
 400 399 l 1
 400 301 l 1
 399 300 l 1
 301 300 l 1
301 0 m 1
 300 1 l 1
 300 99 l 1
 301 100 l 1
 399 100 l 1
 400 99 l 1
 400 1 l 1
 399 0 l 1
 301 0 l 1
EndSplineSet
EndChar

StartChar: comma
Encoding: 44 44 82
Width: 800
VWidth: 0
Flags: H
LayerCount: 2
Fore
SplineSet
400 199 m 1
 401 200 l 1
 499 200 l 1
 500 199 l 1
 500 1 l 1
 499 0 l 1
 401 0 l 1
 400 1 l 1
 400 199 l 1
301 -100 m 1
 300 -99 l 1
 300 -1 l 1
 301 0 l 1
 399 0 l 1
 400 -1 l 1
 400 -99 l 1
 399 -100 l 1
 301 -100 l 1
EndSplineSet
EndChar

StartChar: copyright
Encoding: 169 169 83
Width: 800
VWidth: 0
Flags: H
LayerCount: 2
Fore
SplineSet
101 0 m 1
 100 1 l 1
 100 99 l 1
 101 100 l 1
 199 100 l 1
 200 99 l 1
 200 1 l 1
 199 0 l 1
 101 0 l 1
101 500 m 1
 100 501 l 1
 100 599 l 1
 101 600 l 1
 199 600 l 1
 200 599 l 1
 200 501 l 1
 199 500 l 1
 101 500 l 1
601 0 m 1
 600 1 l 1
 600 99 l 1
 601 100 l 1
 699 100 l 1
 700 99 l 1
 700 1 l 1
 699 0 l 1
 601 0 l 1
601 500 m 1
 600 501 l 1
 600 599 l 1
 601 600 l 1
 699 600 l 1
 700 599 l 1
 700 501 l 1
 699 500 l 1
 601 500 l 1
201 -100 m 1
 200 -99 l 1
 200 -1 l 1
 201 0 l 1
 599 0 l 1
 600 -1 l 1
 600 -99 l 1
 599 -100 l 1
 201 -100 l 1
201 600 m 1
 200 601 l 1
 200 699 l 1
 201 700 l 1
 599 700 l 1
 600 699 l 1
 600 601 l 1
 599 600 l 1
 201 600 l 1
0 499 m 1
 1 500 l 1
 99 500 l 1
 100 499 l 1
 100 101 l 1
 99 100 l 1
 1 100 l 1
 0 101 l 1
 0 499 l 1
700 499 m 1
 701 500 l 1
 799 500 l 1
 800 499 l 1
 800 101 l 1
 799 100 l 1
 701 100 l 1
 700 101 l 1
 700 499 l 1
200 399 m 1
 201 400 l 1
 299 400 l 1
 300 399 l 1
 300 201 l 1
 299 200 l 1
 201 200 l 1
 200 201 l 1
 200 399 l 1
499 500 m 1
 500 499 l 1
 500 401 l 1
 499 400 l 1
 301 400 l 1
 300 401 l 1
 300 499 l 1
 301 500 l 1
 499 500 l 1
499 200 m 1
 500 199 l 1
 500 101 l 1
 499 100 l 1
 301 100 l 1
 300 101 l 1
 300 199 l 1
 301 200 l 1
 499 200 l 1
EndSplineSet
EndChar

StartChar: currency
Encoding: 164 164 84
Width: 800
VWidth: 0
Flags: H
LayerCount: 2
Fore
SplineSet
501 500 m 1
 500 501 l 1
 500 599 l 1
 501 600 l 1
 599 600 l 1
 600 599 l 1
 600 501 l 1
 599 500 l 1
 501 500 l 1
501 100 m 1
 500 101 l 1
 500 199 l 1
 501 200 l 1
 599 200 l 1
 600 199 l 1
 600 101 l 1
 599 100 l 1
 501 100 l 1
101 500 m 1
 100 501 l 1
 100 599 l 1
 101 600 l 1
 199 600 l 1
 200 599 l 1
 200 501 l 1
 199 500 l 1
 101 500 l 1
101 100 m 1
 100 101 l 1
 100 199 l 1
 101 200 l 1
 199 200 l 1
 200 199 l 1
 200 101 l 1
 199 100 l 1
 101 100 l 1
200 499 m 1
 201 500 l 1
 499 500 l 1
 500 499 l 1
 500 201 l 1
 499 200 l 1
 201 200 l 1
 200 201 l 1
 200 499 l 1
399 300 m 1
 400 301 l 1
 400 399 l 1
 399 400 l 1
 301 400 l 1
 300 399 l 1
 300 301 l 1
 301 300 l 1
 399 300 l 1
EndSplineSet
EndChar

StartChar: d
Encoding: 100 100 85
Width: 800
VWidth: 0
Flags: H
LayerCount: 2
Fore
SplineSet
201 0 m 1
 200 1 l 1
 200 99 l 1
 201 100 l 1
 499 100 l 1
 500 101 l 1
 500 299 l 1
 499 300 l 1
 201 300 l 1
 200 301 l 1
 200 399 l 1
 201 400 l 1
 499 400 l 1
 500 401 l 1
 500 599 l 1
 501 600 l 1
 599 600 l 1
 600 599 l 1
 600 1 l 1
 599 0 l 1
 201 0 l 1
100 299 m 1
 101 300 l 1
 199 300 l 1
 200 299 l 1
 200 101 l 1
 199 100 l 1
 101 100 l 1
 100 101 l 1
 100 299 l 1
EndSplineSet
EndChar

StartChar: degree
Encoding: 176 176 86
Width: 800
VWidth: 0
Flags: H
LayerCount: 2
Fore
SplineSet
200 599 m 1
 201 600 l 1
 299 600 l 1
 300 599 l 1
 300 401 l 1
 299 400 l 1
 201 400 l 1
 200 401 l 1
 200 599 l 1
500 599 m 1
 501 600 l 1
 599 600 l 1
 600 599 l 1
 600 401 l 1
 599 400 l 1
 501 400 l 1
 500 401 l 1
 500 599 l 1
499 700 m 1
 500 699 l 1
 500 601 l 1
 499 600 l 1
 301 600 l 1
 300 601 l 1
 300 699 l 1
 301 700 l 1
 499 700 l 1
499 400 m 1
 500 399 l 1
 500 301 l 1
 499 300 l 1
 301 300 l 1
 300 301 l 1
 300 399 l 1
 301 400 l 1
 499 400 l 1
EndSplineSet
EndChar

StartChar: diamond
Encoding: 9830 9830 87
Width: 800
VWidth: 0
Flags: H
LayerCount: 2
Fore
SplineSet
401 0 m 1
 400 -1 l 1
 400 -99 l 1
 399 -100 l 1
 301 -100 l 1
 300 -99 l 1
 300 -1 l 1
 299 0 l 1
 201 0 l 1
 200 1 l 1
 200 99 l 1
 199 100 l 1
 101 100 l 1
 100 101 l 1
 100 199 l 1
 99 200 l 1
 1 200 l 1
 0 201 l 1
 0 399 l 1
 1 400 l 1
 99 400 l 1
 100 401 l 1
 100 499 l 1
 101 500 l 1
 199 500 l 1
 200 501 l 1
 200 599 l 1
 201 600 l 1
 299 600 l 1
 300 601 l 1
 300 699 l 1
 301 700 l 1
 399 700 l 1
 400 699 l 1
 400 601 l 1
 401 600 l 1
 499 600 l 1
 500 599 l 1
 500 501 l 1
 501 500 l 1
 599 500 l 1
 600 499 l 1
 600 401 l 1
 601 400 l 1
 699 400 l 1
 700 399 l 1
 700 201 l 1
 699 200 l 1
 601 200 l 1
 600 199 l 1
 600 101 l 1
 599 100 l 1
 501 100 l 1
 500 99 l 1
 500 1 l 1
 499 0 l 1
 401 0 l 1
EndSplineSet
EndChar

StartChar: dieresis
Encoding: 168 168 88
Width: 800
VWidth: 0
Flags: H
LayerCount: 2
Fore
SplineSet
200 699 m 1
 201 700 l 1
 399 700 l 1
 400 699 l 1
 400 501 l 1
 399 500 l 1
 201 500 l 1
 200 501 l 1
 200 699 l 1
500 699 m 1
 501 700 l 1
 699 700 l 1
 700 699 l 1
 700 501 l 1
 699 500 l 1
 501 500 l 1
 500 501 l 1
 500 699 l 1
EndSplineSet
EndChar

StartChar: dkshade
Encoding: 9619 9619 89
Width: 800
VWidth: 0
Flags: H
LayerCount: 2
Fore
SplineSet
0 200 m 1
 100 200 l 1
 100 300 l 1
 0 300 l 1
 0 600 l 1
 100 600 l 1
 100 700 l 1
 400 700 l 1
 400 600 l 1
 500 600 l 1
 500 700 l 1
 800 700 l 1
 800 -100 l 1
 0 -100 l 1
 0 200 l 1
200 0 m 1
 300 0 l 1
 300 100 l 1
 200 100 l 1
 200 0 l 1
600 0 m 1
 700 0 l 1
 700 100 l 1
 600 100 l 1
 600 0 l 1
200 400 m 1
 300 400 l 1
 300 500 l 1
 200 500 l 1
 200 400 l 1
600 400 m 1
 700 400 l 1
 700 500 l 1
 600 500 l 1
 600 400 l 1
400 200 m 1
 500 200 l 1
 500 300 l 1
 400 300 l 1
 400 200 l 1
EndSplineSet
EndChar

StartChar: dnblock
Encoding: 9604 9604 90
Width: 800
VWidth: 0
Flags: H
LayerCount: 2
Fore
SplineSet
0 -100 m 1
 0 300 l 1
 800 300 l 1
 800 -100 l 1
 0 -100 l 1
EndSplineSet
EndChar

StartChar: dollar
Encoding: 36 36 91
Width: 800
VWidth: 0
Flags: H
LayerCount: 2
Fore
SplineSet
201 0 m 1
 200 1 l 1
 200 99 l 1
 201 100 l 1
 399 100 l 1
 400 101 l 1
 400 199 l 1
 399 200 l 1
 201 200 l 1
 200 201 l 1
 200 499 l 1
 201 500 l 1
 399 500 l 1
 400 501 l 1
 400 599 l 1
 401 600 l 1
 499 600 l 1
 500 599 l 1
 500 501 l 1
 501 500 l 1
 699 500 l 1
 700 499 l 1
 700 401 l 1
 699 400 l 1
 501 400 l 1
 500 399 l 1
 500 301 l 1
 501 300 l 1
 699 300 l 1
 700 299 l 1
 700 1 l 1
 699 0 l 1
 401 0 l 1
 400 -1 l 1
 400 -99 l 1
 399 -100 l 1
 301 -100 l 1
 300 -99 l 1
 300 -1 l 1
 299 0 l 1
 201 0 l 1
399 300 m 1
 400 301 l 1
 400 399 l 1
 399 400 l 1
 301 400 l 1
 300 399 l 1
 300 301 l 1
 301 300 l 1
 399 300 l 1
599 100 m 1
 600 101 l 1
 600 199 l 1
 599 200 l 1
 501 200 l 1
 500 199 l 1
 500 101 l 1
 501 100 l 1
 599 100 l 1
EndSplineSet
EndChar

StartChar: e
Encoding: 101 101 92
Width: 800
VWidth: 0
Flags: H
LayerCount: 2
Fore
SplineSet
201 0 m 1
 200 1 l 1
 200 99 l 1
 201 100 l 1
 599 100 l 1
 600 99 l 1
 600 1 l 1
 599 0 l 1
 201 0 l 1
499 500 m 1
 500 499 l 1
 500 401 l 1
 499 400 l 1
 201 400 l 1
 200 401 l 1
 200 499 l 1
 201 500 l 1
 499 500 l 1
501 300 m 1
 500 301 l 1
 500 399 l 1
 501 400 l 1
 599 400 l 1
 600 399 l 1
 600 301 l 1
 599 300 l 1
 501 300 l 1
499 300 m 1
 500 299 l 1
 500 201 l 1
 499 200 l 1
 201 200 l 1
 200 199 l 1
 200 101 l 1
 199 100 l 1
 101 100 l 1
 100 101 l 1
 100 399 l 1
 101 400 l 1
 199 400 l 1
 200 399 l 1
 200 301 l 1
 201 300 l 1
 499 300 l 1
EndSplineSet
EndChar

StartChar: eight
Encoding: 56 56 93
Width: 800
VWidth: 0
Flags: H
LayerCount: 2
Fore
SplineSet
100 299 m 1
 101 300 l 1
 199 300 l 1
 200 299 l 1
 200 101 l 1
 199 100 l 1
 101 100 l 1
 100 101 l 1
 100 299 l 1
101 400 m 1
 100 401 l 1
 100 499 l 1
 101 500 l 1
 199 500 l 1
 200 499 l 1
 200 401 l 1
 199 400 l 1
 101 400 l 1
601 400 m 1
 600 401 l 1
 600 499 l 1
 601 500 l 1
 699 500 l 1
 700 499 l 1
 700 401 l 1
 699 400 l 1
 601 400 l 1
201 500 m 1
 200 501 l 1
 200 599 l 1
 201 600 l 1
 599 600 l 1
 600 599 l 1
 600 501 l 1
 599 500 l 1
 201 500 l 1
201 300 m 1
 200 301 l 1
 200 399 l 1
 201 400 l 1
 599 400 l 1
 600 399 l 1
 600 301 l 1
 599 300 l 1
 201 300 l 1
201 0 m 1
 200 1 l 1
 200 99 l 1
 201 100 l 1
 599 100 l 1
 600 99 l 1
 600 1 l 1
 599 0 l 1
 201 0 l 1
600 299 m 1
 601 300 l 1
 699 300 l 1
 700 299 l 1
 700 101 l 1
 699 100 l 1
 601 100 l 1
 600 101 l 1
 600 299 l 1
EndSplineSet
EndChar

StartChar: equal
Encoding: 61 61 94
Width: 800
VWidth: 0
Flags: H
LayerCount: 2
Fore
SplineSet
201 100 m 1
 200 101 l 1
 200 199 l 1
 201 200 l 1
 699 200 l 1
 700 199 l 1
 700 101 l 1
 699 100 l 1
 201 100 l 1
201 300 m 1
 200 301 l 1
 200 399 l 1
 201 400 l 1
 699 400 l 1
 700 399 l 1
 700 301 l 1
 699 300 l 1
 201 300 l 1
EndSplineSet
EndChar

StartChar: exclam
Encoding: 33 33 95
Width: 800
VWidth: 0
Flags: H
LayerCount: 2
Fore
SplineSet
300 599 m 1
 301 600 l 1
 399 600 l 1
 400 599 l 1
 400 201 l 1
 399 200 l 1
 301 200 l 1
 300 201 l 1
 300 599 l 1
300 99 m 1
 301 100 l 1
 399 100 l 1
 400 99 l 1
 400 1 l 1
 399 0 l 1
 301 0 l 1
 300 1 l 1
 300 99 l 1
EndSplineSet
EndChar

StartChar: exclamdown
Encoding: 161 161 96
Width: 800
VWidth: 0
Flags: H
LayerCount: 2
Fore
SplineSet
300 399 m 1
 301 400 l 1
 399 400 l 1
 400 399 l 1
 400 1 l 1
 399 0 l 1
 301 0 l 1
 300 1 l 1
 300 399 l 1
300 599 m 1
 301 600 l 1
 399 600 l 1
 400 599 l 1
 400 501 l 1
 399 500 l 1
 301 500 l 1
 300 501 l 1
 300 599 l 1
EndSplineSet
EndChar

StartChar: f
Encoding: 102 102 97
Width: 800
VWidth: 0
Flags: H
LayerCount: 2
Fore
SplineSet
499 400 m 1
 500 399 l 1
 500 301 l 1
 499 300 l 1
 401 300 l 1
 400 299 l 1
 400 1 l 1
 399 0 l 1
 301 0 l 1
 300 1 l 1
 300 499 l 1
 301 500 l 1
 399 500 l 1
 400 499 l 1
 400 401 l 1
 401 400 l 1
 499 400 l 1
599 600 m 1
 600 599 l 1
 600 501 l 1
 599 500 l 1
 401 500 l 1
 400 501 l 1
 400 599 l 1
 401 600 l 1
 599 600 l 1
EndSplineSet
EndChar

StartChar: female
Encoding: 9792 9792 98
Width: 800
VWidth: 0
Flags: H
LayerCount: 2
Fore
SplineSet
499 700 m 1
 500 699 l 1
 500 601 l 1
 499 600 l 1
 201 600 l 1
 200 601 l 1
 200 699 l 1
 201 700 l 1
 499 700 l 1
100 599 m 1
 101 600 l 1
 199 600 l 1
 200 599 l 1
 200 301 l 1
 199 300 l 1
 101 300 l 1
 100 301 l 1
 100 599 l 1
500 599 m 1
 501 600 l 1
 599 600 l 1
 600 599 l 1
 600 301 l 1
 599 300 l 1
 501 300 l 1
 500 301 l 1
 500 599 l 1
499 100 m 1
 500 99 l 1
 500 1 l 1
 499 0 l 1
 401 0 l 1
 400 -1 l 1
 400 -99 l 1
 399 -100 l 1
 301 -100 l 1
 300 -99 l 1
 300 -1 l 1
 299 0 l 1
 201 0 l 1
 200 1 l 1
 200 99 l 1
 201 100 l 1
 299 100 l 1
 300 101 l 1
 300 199 l 1
 299 200 l 1
 201 200 l 1
 200 201 l 1
 200 299 l 1
 201 300 l 1
 499 300 l 1
 500 299 l 1
 500 201 l 1
 499 200 l 1
 401 200 l 1
 400 199 l 1
 400 101 l 1
 401 100 l 1
 499 100 l 1
EndSplineSet
EndChar

StartChar: filledbox
Encoding: 9632 9632 99
Width: 800
VWidth: 0
Flags: H
LayerCount: 2
Fore
SplineSet
100 600 m 1
 700 600 l 1
 700 0 l 1
 100 0 l 1
 100 600 l 1
EndSplineSet
EndChar

StartChar: filledrect
Encoding: 9644 9644 100
Width: 800
VWidth: 0
Flags: H
LayerCount: 2
Fore
SplineSet
0 300 m 1
 800 300 l 1
 800 100 l 1
 0 100 l 1
 0 300 l 1
EndSplineSet
EndChar

StartChar: five
Encoding: 53 53 101
Width: 800
VWidth: 0
Flags: H
LayerCount: 2
Fore
SplineSet
101 100 m 1
 100 101 l 1
 100 199 l 1
 101 200 l 1
 199 200 l 1
 200 199 l 1
 200 101 l 1
 199 100 l 1
 101 100 l 1
600 299 m 1
 601 300 l 1
 699 300 l 1
 700 299 l 1
 700 101 l 1
 699 100 l 1
 601 100 l 1
 600 101 l 1
 600 299 l 1
201 0 m 1
 200 1 l 1
 200 99 l 1
 201 100 l 1
 599 100 l 1
 600 99 l 1
 600 1 l 1
 599 0 l 1
 201 0 l 1
600 301 m 1
 599 300 l 1
 101 300 l 1
 100 301 l 1
 100 599 l 1
 101 600 l 1
 699 600 l 1
 700 599 l 1
 700 501 l 1
 699 500 l 1
 201 500 l 1
 200 499 l 1
 200 401 l 1
 201 400 l 1
 599 400 l 1
 600 399 l 1
 600 301 l 1
EndSplineSet
EndChar

StartChar: four
Encoding: 52 52 102
Width: 800
VWidth: 0
Flags: H
LayerCount: 2
Fore
SplineSet
201 300 m 1
 200 301 l 1
 200 399 l 1
 201 400 l 1
 299 400 l 1
 300 399 l 1
 300 301 l 1
 299 300 l 1
 201 300 l 1
301 400 m 1
 300 401 l 1
 300 499 l 1
 301 500 l 1
 399 500 l 1
 400 501 l 1
 400 599 l 1
 401 600 l 1
 499 600 l 1
 500 599 l 1
 500 201 l 1
 501 200 l 1
 699 200 l 1
 700 199 l 1
 700 101 l 1
 699 100 l 1
 501 100 l 1
 500 99 l 1
 500 1 l 1
 499 0 l 1
 401 0 l 1
 400 1 l 1
 400 99 l 1
 399 100 l 1
 101 100 l 1
 100 101 l 1
 100 299 l 1
 101 300 l 1
 199 300 l 1
 200 299 l 1
 200 201 l 1
 201 200 l 1
 399 200 l 1
 400 201 l 1
 400 399 l 1
 399 400 l 1
 301 400 l 1
EndSplineSet
EndChar

StartChar: g
Encoding: 103 103 103
Width: 800
VWidth: 0
Flags: H
LayerCount: 2
Fore
SplineSet
201 500 m 1
 599 500 l 1
 600 499 l 1
 600 1 l 1
 599 0 l 1
 501 0 l 1
 500 1 l 1
 500 99 l 1
 499 100 l 1
 201 100 l 1
 200 101 l 1
 200 199 l 1
 201 200 l 1
 499 200 l 1
 500 201 l 1
 500 399 l 1
 499 400 l 1
 201 400 l 1
 200 401 l 1
 200 499 l 1
 201 500 l 1
100 399 m 1
 101 400 l 1
 199 400 l 1
 200 399 l 1
 200 201 l 1
 199 200 l 1
 101 200 l 1
 100 201 l 1
 100 399 l 1
499 0 m 1
 500 -1 l 1
 500 -99 l 1
 499 -100 l 1
 201 -100 l 1
 200 -99 l 1
 200 -1 l 1
 201 0 l 1
 499 0 l 1
EndSplineSet
EndChar

StartChar: germandbls
Encoding: 223 223 104
Width: 800
VWidth: 0
Flags: H
LayerCount: 2
Fore
SplineSet
501 400 m 1
 500 401 l 1
 500 499 l 1
 501 500 l 1
 599 500 l 1
 600 499 l 1
 600 401 l 1
 599 400 l 1
 501 400 l 1
200 499 m 1
 201 500 l 1
 299 500 l 1
 300 499 l 1
 300 -99 l 1
 299 -100 l 1
 201 -100 l 1
 200 -99 l 1
 200 499 l 1
499 600 m 1
 500 599 l 1
 500 501 l 1
 499 500 l 1
 301 500 l 1
 300 501 l 1
 300 599 l 1
 301 600 l 1
 499 600 l 1
401 300 m 1
 400 301 l 1
 400 399 l 1
 401 400 l 1
 499 400 l 1
 500 399 l 1
 500 301 l 1
 499 300 l 1
 401 300 l 1
401 0 m 1
 400 1 l 1
 400 99 l 1
 401 100 l 1
 499 100 l 1
 500 99 l 1
 500 1 l 1
 499 0 l 1
 401 0 l 1
500 299 m 1
 501 300 l 1
 599 300 l 1
 600 299 l 1
 600 101 l 1
 599 100 l 1
 501 100 l 1
 500 101 l 1
 500 299 l 1
EndSplineSet
EndChar

StartChar: grave
Encoding: 96 96 105
Width: 800
VWidth: 0
Flags: H
LayerCount: 2
Fore
SplineSet
401 400 m 1
 400 401 l 1
 400 499 l 1
 401 500 l 1
 499 500 l 1
 500 499 l 1
 500 401 l 1
 499 400 l 1
 401 400 l 1
300 699 m 1
 301 700 l 1
 399 700 l 1
 400 699 l 1
 400 501 l 1
 399 500 l 1
 301 500 l 1
 300 501 l 1
 300 699 l 1
EndSplineSet
EndChar

StartChar: greater
Encoding: 62 62 106
Width: 800
VWidth: 0
Flags: H
LayerCount: 2
Fore
SplineSet
401 100 m 1
 400 101 l 1
 400 199 l 1
 401 200 l 1
 499 200 l 1
 500 199 l 1
 500 101 l 1
 499 100 l 1
 401 100 l 1
301 0 m 1
 300 1 l 1
 300 99 l 1
 301 100 l 1
 399 100 l 1
 400 99 l 1
 400 1 l 1
 399 0 l 1
 301 0 l 1
501 200 m 1
 500 201 l 1
 500 299 l 1
 501 300 l 1
 599 300 l 1
 600 299 l 1
 600 201 l 1
 599 200 l 1
 501 200 l 1
401 300 m 1
 400 301 l 1
 400 399 l 1
 401 400 l 1
 499 400 l 1
 500 399 l 1
 500 301 l 1
 499 300 l 1
 401 300 l 1
301 400 m 1
 300 401 l 1
 300 499 l 1
 301 500 l 1
 399 500 l 1
 400 499 l 1
 400 401 l 1
 399 400 l 1
 301 400 l 1
EndSplineSet
EndChar

StartChar: guillemotleft
Encoding: 171 171 107
Width: 800
VWidth: 0
Flags: H
LayerCount: 2
Fore
SplineSet
201 100 m 1
 200 101 l 1
 200 199 l 1
 201 200 l 1
 299 200 l 1
 300 199 l 1
 300 101 l 1
 299 100 l 1
 201 100 l 1
101 200 m 1
 100 201 l 1
 100 299 l 1
 101 300 l 1
 199 300 l 1
 200 299 l 1
 200 201 l 1
 199 200 l 1
 101 200 l 1
201 300 m 1
 200 301 l 1
 200 399 l 1
 201 400 l 1
 299 400 l 1
 300 399 l 1
 300 301 l 1
 299 300 l 1
 201 300 l 1
501 100 m 1
 500 101 l 1
 500 199 l 1
 501 200 l 1
 599 200 l 1
 600 199 l 1
 600 101 l 1
 599 100 l 1
 501 100 l 1
401 200 m 1
 400 201 l 1
 400 299 l 1
 401 300 l 1
 499 300 l 1
 500 299 l 1
 500 201 l 1
 499 200 l 1
 401 200 l 1
501 300 m 1
 500 301 l 1
 500 399 l 1
 501 400 l 1
 599 400 l 1
 600 399 l 1
 600 301 l 1
 599 300 l 1
 501 300 l 1
EndSplineSet
EndChar

StartChar: guillemotright
Encoding: 187 187 108
Width: 800
VWidth: 0
Flags: H
LayerCount: 2
Fore
SplineSet
101 100 m 1
 100 101 l 1
 100 199 l 1
 101 200 l 1
 199 200 l 1
 200 199 l 1
 200 101 l 1
 199 100 l 1
 101 100 l 1
201 200 m 1
 200 201 l 1
 200 299 l 1
 201 300 l 1
 299 300 l 1
 300 299 l 1
 300 201 l 1
 299 200 l 1
 201 200 l 1
101 300 m 1
 100 301 l 1
 100 399 l 1
 101 400 l 1
 199 400 l 1
 200 399 l 1
 200 301 l 1
 199 300 l 1
 101 300 l 1
401 100 m 1
 400 101 l 1
 400 199 l 1
 401 200 l 1
 499 200 l 1
 500 199 l 1
 500 101 l 1
 499 100 l 1
 401 100 l 1
501 200 m 1
 500 201 l 1
 500 299 l 1
 501 300 l 1
 599 300 l 1
 600 299 l 1
 600 201 l 1
 599 200 l 1
 501 200 l 1
401 300 m 1
 400 301 l 1
 400 399 l 1
 401 400 l 1
 499 400 l 1
 500 399 l 1
 500 301 l 1
 499 300 l 1
 401 300 l 1
EndSplineSet
EndChar

StartChar: h
Encoding: 104 104 109
Width: 800
VWidth: 0
Flags: H
LayerCount: 2
Fore
SplineSet
499 400 m 1
 500 399 l 1
 500 301 l 1
 499 300 l 1
 201 300 l 1
 200 299 l 1
 200 1 l 1
 199 0 l 1
 101 0 l 1
 100 1 l 1
 100 599 l 1
 101 600 l 1
 199 600 l 1
 200 599 l 1
 200 401 l 1
 201 400 l 1
 499 400 l 1
500 299 m 1
 501 300 l 1
 599 300 l 1
 600 299 l 1
 600 1 l 1
 599 0 l 1
 501 0 l 1
 500 1 l 1
 500 299 l 1
EndSplineSet
EndChar

StartChar: heart
Encoding: 9829 9829 110
Width: 800
VWidth: 0
Flags: H
LayerCount: 2
Fore
SplineSet
400 1 m 1
 399 0 l 1
 301 0 l 1
 300 1 l 1
 300 199 l 1
 299 200 l 1
 201 200 l 1
 200 201 l 1
 200 299 l 1
 199 300 l 1
 101 300 l 1
 100 301 l 1
 100 399 l 1
 99 400 l 1
 1 400 l 1
 0 401 l 1
 0 599 l 1
 1 600 l 1
 99 600 l 1
 100 601 l 1
 100 699 l 1
 101 700 l 1
 299 700 l 1
 300 699 l 1
 300 601 l 1
 301 600 l 1
 399 600 l 1
 400 601 l 1
 400 699 l 1
 401 700 l 1
 599 700 l 1
 600 699 l 1
 600 601 l 1
 601 600 l 1
 699 600 l 1
 700 599 l 1
 700 401 l 1
 699 400 l 1
 601 400 l 1
 600 399 l 1
 600 301 l 1
 599 300 l 1
 501 300 l 1
 500 299 l 1
 500 201 l 1
 499 200 l 1
 401 200 l 1
 400 199 l 1
 400 1 l 1
EndSplineSet
EndChar

StartChar: hyphen
Encoding: 45 45 111
Width: 800
VWidth: 0
Flags: H
LayerCount: 2
Fore
SplineSet
201 200 m 1
 200 201 l 1
 200 299 l 1
 201 300 l 1
 699 300 l 1
 700 299 l 1
 700 201 l 1
 699 200 l 1
 201 200 l 1
EndSplineSet
EndChar

StartChar: i
Encoding: 105 105 112
Width: 800
VWidth: 0
Flags: H
LayerCount: 2
Fore
SplineSet
301 500 m 1
 300 501 l 1
 300 599 l 1
 301 600 l 1
 399 600 l 1
 400 599 l 1
 400 501 l 1
 399 500 l 1
 301 500 l 1
200 400 m 1
 201 401 l 1
 399 401 l 1
 400 400 l 1
 400 101 l 1
 401 100 l 1
 499 100 l 1
 500 99 l 1
 500 1 l 1
 499 0 l 1
 201 0 l 1
 200 1 l 1
 200 99 l 1
 201 100 l 1
 299 100 l 1
 300 101 l 1
 300 299 l 1
 299 300 l 1
 201 300 l 1
 200 301 l 1
 200 400 l 1
EndSplineSet
EndChar

StartChar: invbullet
Encoding: 9688 9688 113
Width: 800
VWidth: 0
Flags: H
LayerCount: 2
Fore
SplineSet
0 -100 m 1
 0 700 l 1
 800 700 l 1
 800 -100 l 1
 0 -100 l 1
499 300 m 1
 401 300 l 1
 400 301 l 1
 400 399 l 1
 399 400 l 1
 301 400 l 1
 300 399 l 1
 300 301 l 1
 299 300 l 1
 201 300 l 1
 200 299 l 1
 200 201 l 1
 201 200 l 1
 299 200 l 1
 300 199 l 1
 300 101 l 1
 301 100 l 1
 399 100 l 1
 400 101 l 1
 400 199 l 1
 401 200 l 1
 499 200 l 1
 500 201 l 1
 500 299 l 1
 499 300 l 1
EndSplineSet
EndChar

StartChar: invcircle
Encoding: 9689 9689 114
Width: 800
VWidth: 0
Flags: H
LayerCount: 2
Fore
SplineSet
0 -100 m 1
 0 700 l 1
 800 700 l 1
 800 -100 l 1
 0 -100 l 1
200 399 m 1
 200 201 l 1
 201 200 l 1
 299 200 l 1
 300 201 l 1
 300 399 l 1
 299 400 l 1
 201 400 l 1
 200 399 l 1
500 399 m 1
 500 201 l 1
 501 200 l 1
 599 200 l 1
 600 201 l 1
 600 399 l 1
 599 400 l 1
 501 400 l 1
 500 399 l 1
499 500 m 1
 301 500 l 1
 300 499 l 1
 300 401 l 1
 301 400 l 1
 499 400 l 1
 500 401 l 1
 500 499 l 1
 499 500 l 1
499 200 m 1
 301 200 l 1
 300 199 l 1
 300 101 l 1
 301 100 l 1
 499 100 l 1
 500 101 l 1
 500 199 l 1
 499 200 l 1
EndSplineSet
EndChar

StartChar: invsmileface
Encoding: 9787 9787 115
Width: 800
VWidth: 0
Flags: H
LayerCount: 2
Fore
SplineSet
0 599 m 1
 1 600 l 1
 99 600 l 1
 100 601 l 1
 100 699 l 1
 101 700 l 1
 599 700 l 1
 600 699 l 1
 600 601 l 1
 601 600 l 1
 699 600 l 1
 700 599 l 1
 700 1 l 1
 699 0 l 1
 601 0 l 1
 600 -1 l 1
 600 -99 l 1
 599 -100 l 1
 101 -100 l 1
 100 -99 l 1
 100 -1 l 1
 99 0 l 1
 1 0 l 1
 0 1 l 1
 0 599 l 1
499 100 m 1
 201 100 l 1
 200 99 l 1
 200 1 l 1
 201 0 l 1
 499 0 l 1
 500 1 l 1
 500 99 l 1
 499 100 l 1
201 400 m 1
 299 400 l 1
 300 401 l 1
 300 499 l 1
 299 500 l 1
 201 500 l 1
 200 499 l 1
 200 401 l 1
 201 400 l 1
401 400 m 1
 499 400 l 1
 500 401 l 1
 500 499 l 1
 499 500 l 1
 401 500 l 1
 400 499 l 1
 400 401 l 1
 401 400 l 1
101 100 m 1
 199 100 l 1
 200 101 l 1
 200 199 l 1
 199 200 l 1
 101 200 l 1
 100 199 l 1
 100 101 l 1
 101 100 l 1
501 100 m 1
 599 100 l 1
 600 101 l 1
 600 199 l 1
 599 200 l 1
 501 200 l 1
 500 199 l 1
 500 101 l 1
 501 100 l 1
EndSplineSet
EndChar

StartChar: j
Encoding: 106 106 116
Width: 800
VWidth: 0
Flags: H
LayerCount: 2
Fore
SplineSet
501 500 m 1
 500 501 l 1
 500 599 l 1
 501 600 l 1
 599 600 l 1
 600 599 l 1
 600 501 l 1
 599 500 l 1
 501 500 l 1
500 399 m 1
 501 400 l 1
 599 400 l 1
 600 399 l 1
 600 1 l 1
 599 0 l 1
 501 0 l 1
 500 1 l 1
 500 399 l 1
499 0 m 1
 500 -1 l 1
 500 -99 l 1
 499 -100 l 1
 301 -100 l 1
 300 -99 l 1
 300 -1 l 1
 301 0 l 1
 499 0 l 1
201 0 m 1
 200 1 l 1
 200 99 l 1
 201 100 l 1
 299 100 l 1
 300 99 l 1
 300 1 l 1
 299 0 l 1
 201 0 l 1
EndSplineSet
EndChar

StartChar: k
Encoding: 107 107 117
Width: 800
VWidth: 0
Flags: H
LayerCount: 2
Fore
SplineSet
501 0 m 1
 500 1 l 1
 500 99 l 1
 501 100 l 1
 599 100 l 1
 600 99 l 1
 600 1 l 1
 599 0 l 1
 501 0 l 1
401 100 m 1
 400 101 l 1
 400 199 l 1
 401 200 l 1
 499 200 l 1
 500 199 l 1
 500 101 l 1
 499 100 l 1
 401 100 l 1
401 400 m 1
 400 401 l 1
 400 499 l 1
 401 500 l 1
 499 500 l 1
 500 499 l 1
 500 401 l 1
 499 400 l 1
 401 400 l 1
399 400 m 1
 400 399 l 1
 400 201 l 1
 399 200 l 1
 301 200 l 1
 300 199 l 1
 300 1 l 1
 299 0 l 1
 201 0 l 1
 200 1 l 1
 200 599 l 1
 201 600 l 1
 299 600 l 1
 300 599 l 1
 300 401 l 1
 301 400 l 1
 399 400 l 1
EndSplineSet
EndChar

StartChar: l
Encoding: 108 108 118
Width: 800
VWidth: 0
Flags: H
LayerCount: 2
Fore
SplineSet
300 599 m 1
 301 600 l 1
 399 600 l 1
 400 599 l 1
 400 101 l 1
 399 100 l 1
 301 100 l 1
 300 101 l 1
 300 599 l 1
599 100 m 1
 600 99 l 1
 600 1 l 1
 599 0 l 1
 401 0 l 1
 400 1 l 1
 400 99 l 1
 401 100 l 1
 599 100 l 1
EndSplineSet
EndChar

StartChar: less
Encoding: 60 60 119
Width: 800
VWidth: 0
Flags: H
LayerCount: 2
Fore
SplineSet
401 100 m 1
 400 101 l 1
 400 199 l 1
 401 200 l 1
 499 200 l 1
 500 199 l 1
 500 101 l 1
 499 100 l 1
 401 100 l 1
501 0 m 1
 500 1 l 1
 500 99 l 1
 501 100 l 1
 599 100 l 1
 600 99 l 1
 600 1 l 1
 599 0 l 1
 501 0 l 1
301 200 m 1
 300 201 l 1
 300 299 l 1
 301 300 l 1
 399 300 l 1
 400 299 l 1
 400 201 l 1
 399 200 l 1
 301 200 l 1
401 300 m 1
 400 301 l 1
 400 399 l 1
 401 400 l 1
 499 400 l 1
 500 399 l 1
 500 301 l 1
 499 300 l 1
 401 300 l 1
501 400 m 1
 500 401 l 1
 500 499 l 1
 501 500 l 1
 599 500 l 1
 600 499 l 1
 600 401 l 1
 599 400 l 1
 501 400 l 1
EndSplineSet
EndChar

StartChar: lfblock
Encoding: 9612 9612 120
Width: 800
VWidth: 0
Flags: H
LayerCount: 2
Fore
SplineSet
0 -100 m 1
 0 700 l 1
 400 700 l 1
 400 -100 l 1
 0 -100 l 1
EndSplineSet
EndChar

StartChar: logicalnot
Encoding: 172 172 121
Width: 800
VWidth: 0
Flags: H
LayerCount: 2
Fore
SplineSet
599 400 m 1
 600 399 l 1
 600 201 l 1
 599 200 l 1
 501 200 l 1
 500 201 l 1
 500 299 l 1
 499 300 l 1
 101 300 l 1
 100 301 l 1
 100 399 l 1
 101 400 l 1
 599 400 l 1
EndSplineSet
EndChar

StartChar: lozenge
Encoding: 9674 9674 122
Width: 800
VWidth: 0
Flags: H
LayerCount: 2
Fore
SplineSet
301 100 m 1
 300 101 l 1
 300 199 l 1
 301 200 l 1
 399 200 l 1
 400 199 l 1
 400 101 l 1
 399 100 l 1
 301 100 l 1
401 200 m 1
 400 201 l 1
 400 299 l 1
 401 300 l 1
 499 300 l 1
 500 299 l 1
 500 201 l 1
 499 200 l 1
 401 200 l 1
501 300 m 1
 500 301 l 1
 500 399 l 1
 501 400 l 1
 599 400 l 1
 600 399 l 1
 600 301 l 1
 599 300 l 1
 501 300 l 1
101 300 m 1
 100 301 l 1
 100 399 l 1
 101 400 l 1
 199 400 l 1
 200 399 l 1
 200 301 l 1
 199 300 l 1
 101 300 l 1
201 400 m 1
 200 401 l 1
 200 499 l 1
 201 500 l 1
 299 500 l 1
 300 499 l 1
 300 401 l 1
 299 400 l 1
 201 400 l 1
301 500 m 1
 300 501 l 1
 300 599 l 1
 301 600 l 1
 399 600 l 1
 400 599 l 1
 400 501 l 1
 399 500 l 1
 301 500 l 1
201 200 m 1
 200 201 l 1
 200 299 l 1
 201 300 l 1
 299 300 l 1
 300 299 l 1
 300 201 l 1
 299 200 l 1
 201 200 l 1
401 400 m 1
 400 401 l 1
 400 499 l 1
 401 500 l 1
 499 500 l 1
 500 499 l 1
 500 401 l 1
 499 400 l 1
 401 400 l 1
EndSplineSet
EndChar

StartChar: ltshade
Encoding: 9617 9617 123
Width: 800
VWidth: 0
Flags: H
LayerCount: 2
Fore
SplineSet
1 600 m 1
 0 601 l 1
 0 699 l 1
 1 700 l 1
 99 700 l 1
 100 699 l 1
 100 601 l 1
 99 600 l 1
 1 600 l 1
201 400 m 1
 200 401 l 1
 200 499 l 1
 201 500 l 1
 299 500 l 1
 300 499 l 1
 300 401 l 1
 299 400 l 1
 201 400 l 1
1 100 m 1
 0 101 l 1
 0 199 l 1
 1 200 l 1
 99 200 l 1
 100 199 l 1
 100 101 l 1
 99 100 l 1
 1 100 l 1
201 -100 m 1
 200 -99 l 1
 200 -1 l 1
 201 0 l 1
 299 0 l 1
 300 -1 l 1
 300 -99 l 1
 299 -100 l 1
 201 -100 l 1
401 100 m 1
 400 101 l 1
 400 199 l 1
 401 200 l 1
 499 200 l 1
 500 199 l 1
 500 101 l 1
 499 100 l 1
 401 100 l 1
601 -100 m 1
 600 -99 l 1
 600 -1 l 1
 601 0 l 1
 699 0 l 1
 700 -1 l 1
 700 -99 l 1
 699 -100 l 1
 601 -100 l 1
401 600 m 1
 400 601 l 1
 400 699 l 1
 401 700 l 1
 499 700 l 1
 500 699 l 1
 500 601 l 1
 499 600 l 1
 401 600 l 1
601 400 m 1
 600 401 l 1
 600 499 l 1
 601 500 l 1
 699 500 l 1
 700 499 l 1
 700 401 l 1
 699 400 l 1
 601 400 l 1
EndSplineSet
EndChar

StartChar: m
Encoding: 109 109 124
Width: 800
VWidth: 0
Flags: H
LayerCount: 2
Fore
SplineSet
500 399 m 1
 501 400 l 1
 599 400 l 1
 600 399 l 1
 600 1 l 1
 599 0 l 1
 501 0 l 1
 500 1 l 1
 500 399 l 1
300 399 m 1
 301 400 l 1
 399 400 l 1
 400 399 l 1
 400 1 l 1
 399 0 l 1
 301 0 l 1
 300 1 l 1
 300 399 l 1
401 400 m 1
 400 401 l 1
 400 499 l 1
 401 500 l 1
 499 500 l 1
 500 499 l 1
 500 401 l 1
 499 400 l 1
 401 400 l 1
100 499 m 1
 101 500 l 1
 299 500 l 1
 300 499 l 1
 300 401 l 1
 299 400 l 1
 201 400 l 1
 200 399 l 1
 200 1 l 1
 199 0 l 1
 101 0 l 1
 100 1 l 1
 100 499 l 1
EndSplineSet
EndChar

StartChar: male
Encoding: 9794 9794 125
Width: 800
VWidth: 0
Flags: H
LayerCount: 2
Fore
SplineSet
399 0 m 1
 400 -1 l 1
 400 -99 l 1
 399 -100 l 1
 101 -100 l 1
 100 -99 l 1
 100 -1 l 1
 101 0 l 1
 399 0 l 1
0 299 m 1
 1 300 l 1
 99 300 l 1
 100 299 l 1
 100 1 l 1
 99 0 l 1
 1 0 l 1
 0 1 l 1
 0 299 l 1
499 400 m 1
 500 399 l 1
 500 1 l 1
 499 0 l 1
 401 0 l 1
 400 1 l 1
 400 299 l 1
 399 300 l 1
 101 300 l 1
 100 301 l 1
 100 399 l 1
 101 400 l 1
 499 400 l 1
501 400 m 1
 500 401 l 1
 500 499 l 1
 501 500 l 1
 599 500 l 1
 600 499 l 1
 600 401 l 1
 599 400 l 1
 501 400 l 1
800 301 m 1
 799 300 l 1
 701 300 l 1
 700 301 l 1
 700 499 l 1
 699 500 l 1
 601 500 l 1
 600 501 l 1
 600 599 l 1
 599 600 l 1
 401 600 l 1
 400 601 l 1
 400 699 l 1
 401 700 l 1
 799 700 l 1
 800 699 l 1
 800 301 l 1
EndSplineSet
EndChar

StartChar: periodcentered
Encoding: 183 183 126
Width: 800
VWidth: 0
Flags: H
LayerCount: 2
Fore
SplineSet
301 300 m 1
 300 301 l 1
 300 399 l 1
 301 400 l 1
 399 400 l 1
 400 399 l 1
 400 301 l 1
 399 300 l 1
 301 300 l 1
EndSplineSet
EndChar

StartChar: minus
Encoding: 8722 8722 127
Width: 800
VWidth: 0
Flags: H
LayerCount: 2
Fore
SplineSet
101 200 m 1
 100 201 l 1
 100 299 l 1
 101 300 l 1
 599 300 l 1
 600 299 l 1
 600 201 l 1
 599 200 l 1
 101 200 l 1
EndSplineSet
EndChar

StartChar: mu
Encoding: 181 181 128
Width: 800
VWidth: 0
Flags: H
LayerCount: 2
Fore
SplineSet
501 0 m 1
 500 1 l 1
 500 99 l 1
 501 100 l 1
 599 100 l 1
 600 99 l 1
 600 1 l 1
 599 0 l 1
 501 0 l 1
400 499 m 1
 401 500 l 1
 499 500 l 1
 500 499 l 1
 500 101 l 1
 499 100 l 1
 401 100 l 1
 400 101 l 1
 400 499 l 1
399 100 m 1
 400 99 l 1
 400 1 l 1
 399 0 l 1
 301 0 l 1
 300 -1 l 1
 300 -99 l 1
 299 -100 l 1
 201 -100 l 1
 200 -99 l 1
 200 599 l 1
 201 600 l 1
 299 600 l 1
 300 599 l 1
 300 101 l 1
 301 100 l 1
 399 100 l 1
EndSplineSet
EndChar

StartChar: multiply
Encoding: 215 215 129
Width: 800
VWidth: 0
Flags: H
LayerCount: 2
Fore
SplineSet
201 400 m 1
 200 401 l 1
 200 499 l 1
 201 500 l 1
 299 500 l 1
 300 499 l 1
 300 401 l 1
 299 400 l 1
 201 400 l 1
201 200 m 1
 200 201 l 1
 200 299 l 1
 201 300 l 1
 299 300 l 1
 300 299 l 1
 300 201 l 1
 299 200 l 1
 201 200 l 1
301 300 m 1
 300 301 l 1
 300 399 l 1
 301 400 l 1
 399 400 l 1
 400 399 l 1
 400 301 l 1
 399 300 l 1
 301 300 l 1
401 400 m 1
 400 401 l 1
 400 499 l 1
 401 500 l 1
 499 500 l 1
 500 499 l 1
 500 401 l 1
 499 400 l 1
 401 400 l 1
401 200 m 1
 400 201 l 1
 400 299 l 1
 401 300 l 1
 499 300 l 1
 500 299 l 1
 500 201 l 1
 499 200 l 1
 401 200 l 1
EndSplineSet
EndChar

StartChar: musicalnote
Encoding: 9834 9834 130
Width: 800
VWidth: 0
Flags: H
LayerCount: 2
Fore
SplineSet
600 499 m 1
 601 500 l 1
 699 500 l 1
 700 499 l 1
 700 301 l 1
 699 300 l 1
 601 300 l 1
 600 301 l 1
 600 499 l 1
400 699 m 1
 401 700 l 1
 499 700 l 1
 500 699 l 1
 500 601 l 1
 501 600 l 1
 599 600 l 1
 600 599 l 1
 600 501 l 1
 599 500 l 1
 501 500 l 1
 500 499 l 1
 500 1 l 1
 499 0 l 1
 401 0 l 1
 400 -1 l 1
 400 -99 l 1
 399 -100 l 1
 201 -100 l 1
 200 -99 l 1
 200 -1 l 1
 199 0 l 1
 101 0 l 1
 100 1 l 1
 100 99 l 1
 101 100 l 1
 199 100 l 1
 200 101 l 1
 200 199 l 1
 201 200 l 1
 399 200 l 1
 400 201 l 1
 400 699 l 1
EndSplineSet
EndChar

StartChar: n
Encoding: 110 110 131
Width: 800
VWidth: 0
Flags: H
LayerCount: 2
Fore
SplineSet
500 399 m 1
 501 400 l 1
 599 400 l 1
 600 399 l 1
 600 1 l 1
 599 0 l 1
 501 0 l 1
 500 1 l 1
 500 399 l 1
100 499 m 1
 101 500 l 1
 499 500 l 1
 500 499 l 1
 500 401 l 1
 499 400 l 1
 201 400 l 1
 200 399 l 1
 200 1 l 1
 199 0 l 1
 101 0 l 1
 100 1 l 1
 100 499 l 1
EndSplineSet
EndChar

StartChar: nine
Encoding: 57 57 132
Width: 800
VWidth: 0
Flags: H
LayerCount: 2
Fore
SplineSet
200 301 m 1
 199 300 l 1
 101 300 l 1
 100 301 l 1
 100 499 l 1
 101 500 l 1
 199 500 l 1
 200 499 l 1
 200 301 l 1
599 100 m 1
 600 99 l 1
 600 1 l 1
 599 0 l 1
 201 0 l 1
 200 1 l 1
 200 99 l 1
 201 100 l 1
 599 100 l 1
599 600 m 1
 600 599 l 1
 600 501 l 1
 599 500 l 1
 201 500 l 1
 200 501 l 1
 200 599 l 1
 201 600 l 1
 599 600 l 1
700 101 m 1
 699 100 l 1
 601 100 l 1
 600 101 l 1
 600 199 l 1
 599 200 l 1
 201 200 l 1
 200 201 l 1
 200 299 l 1
 201 300 l 1
 599 300 l 1
 600 301 l 1
 600 499 l 1
 601 500 l 1
 699 500 l 1
 700 499 l 1
 700 101 l 1
EndSplineSet
EndChar

StartChar: uni207F
Encoding: 8319 8319 133
Width: 800
VWidth: 0
Flags: H
LayerCount: 2
Fore
SplineSet
200 599 m 1
 201 600 l 1
 499 600 l 1
 500 599 l 1
 500 501 l 1
 499 500 l 1
 301 500 l 1
 300 499 l 1
 300 201 l 1
 299 200 l 1
 201 200 l 1
 200 201 l 1
 200 599 l 1
500 499 m 1
 501 500 l 1
 599 500 l 1
 600 499 l 1
 600 201 l 1
 599 200 l 1
 501 200 l 1
 500 201 l 1
 500 499 l 1
EndSplineSet
EndChar

StartChar: numbersign
Encoding: 35 35 134
Width: 800
VWidth: 0
Flags: H
LayerCount: 2
Fore
SplineSet
201 0 m 1
 200 1 l 1
 200 99 l 1
 199 100 l 1
 101 100 l 1
 100 101 l 1
 100 199 l 1
 101 200 l 1
 199 200 l 1
 200 201 l 1
 200 399 l 1
 199 400 l 1
 101 400 l 1
 100 401 l 1
 100 499 l 1
 101 500 l 1
 199 500 l 1
 200 501 l 1
 200 599 l 1
 201 600 l 1
 299 600 l 1
 300 599 l 1
 300 501 l 1
 301 500 l 1
 499 500 l 1
 500 501 l 1
 500 599 l 1
 501 600 l 1
 599 600 l 1
 600 599 l 1
 600 501 l 1
 601 500 l 1
 699 500 l 1
 700 499 l 1
 700 401 l 1
 699 400 l 1
 601 400 l 1
 600 399 l 1
 600 201 l 1
 601 200 l 1
 699 200 l 1
 700 199 l 1
 700 101 l 1
 699 100 l 1
 601 100 l 1
 600 99 l 1
 600 1 l 1
 599 0 l 1
 501 0 l 1
 500 1 l 1
 500 99 l 1
 499 100 l 1
 301 100 l 1
 300 99 l 1
 300 1 l 1
 299 0 l 1
 201 0 l 1
500 399 m 1
 499 400 l 1
 301 400 l 1
 300 399 l 1
 300 201 l 1
 301 200 l 1
 499 200 l 1
 500 201 l 1
 500 399 l 1
EndSplineSet
EndChar

StartChar: o
Encoding: 111 111 135
Width: 800
VWidth: 0
Flags: H
LayerCount: 2
Fore
SplineSet
100 399 m 1
 101 400 l 1
 199 400 l 1
 200 399 l 1
 200 101 l 1
 199 100 l 1
 101 100 l 1
 100 101 l 1
 100 399 l 1
499 100 m 1
 500 99 l 1
 500 1 l 1
 499 0 l 1
 201 0 l 1
 200 1 l 1
 200 99 l 1
 201 100 l 1
 499 100 l 1
500 399 m 1
 501 400 l 1
 599 400 l 1
 600 399 l 1
 600 101 l 1
 599 100 l 1
 501 100 l 1
 500 101 l 1
 500 399 l 1
499 500 m 1
 500 499 l 1
 500 401 l 1
 499 400 l 1
 201 400 l 1
 200 401 l 1
 200 499 l 1
 201 500 l 1
 499 500 l 1
EndSplineSet
EndChar

StartChar: one
Encoding: 49 49 136
Width: 800
VWidth: 0
Flags: H
LayerCount: 2
Fore
SplineSet
201 400 m 1
 200 401 l 1
 200 499 l 1
 201 500 l 1
 299 500 l 1
 300 499 l 1
 300 401 l 1
 299 400 l 1
 201 400 l 1
301 500 m 1
 300 501 l 1
 300 599 l 1
 301 600 l 1
 499 600 l 1
 500 599 l 1
 500 101 l 1
 501 100 l 1
 699 100 l 1
 700 99 l 1
 700 1 l 1
 699 0 l 1
 201 0 l 1
 200 1 l 1
 200 99 l 1
 201 100 l 1
 399 100 l 1
 400 101 l 1
 400 499 l 1
 399 500 l 1
 301 500 l 1
EndSplineSet
EndChar

StartChar: onehalf
Encoding: 189 189 137
Width: 800
VWidth: 0
Flags: H
LayerCount: 2
Fore
SplineSet
399 300 m 1
 400 299 l 1
 400 201 l 1
 399 200 l 1
 101 200 l 1
 100 201 l 1
 100 299 l 1
 101 300 l 1
 199 300 l 1
 200 301 l 1
 200 499 l 1
 199 500 l 1
 101 500 l 1
 100 501 l 1
 100 599 l 1
 101 600 l 1
 199 600 l 1
 200 601 l 1
 200 699 l 1
 201 700 l 1
 299 700 l 1
 300 699 l 1
 300 301 l 1
 301 300 l 1
 399 300 l 1
699 300 m 1
 700 299 l 1
 700 201 l 1
 699 200 l 1
 501 200 l 1
 500 201 l 1
 500 299 l 1
 501 300 l 1
 699 300 l 1
699 500 m 1
 700 499 l 1
 700 401 l 1
 699 400 l 1
 401 400 l 1
 400 401 l 1
 400 499 l 1
 401 500 l 1
 699 500 l 1
701 300 m 1
 700 301 l 1
 700 399 l 1
 701 400 l 1
 799 400 l 1
 800 399 l 1
 800 301 l 1
 799 300 l 1
 701 300 l 1
401 0 m 1
 400 1 l 1
 400 199 l 1
 401 200 l 1
 499 200 l 1
 500 199 l 1
 500 101 l 1
 501 100 l 1
 799 100 l 1
 800 99 l 1
 800 1 l 1
 799 0 l 1
 401 0 l 1
EndSplineSet
EndChar

StartChar: onequarter
Encoding: 188 188 138
Width: 800
VWidth: 0
Flags: H
LayerCount: 2
Fore
SplineSet
100 599 m 1
 101 600 l 1
 199 600 l 1
 200 601 l 1
 200 699 l 1
 201 700 l 1
 299 700 l 1
 300 699 l 1
 300 301 l 1
 301 300 l 1
 499 300 l 1
 500 299 l 1
 500 201 l 1
 501 200 l 1
 599 200 l 1
 600 201 l 1
 600 299 l 1
 599 300 l 1
 501 300 l 1
 500 301 l 1
 500 399 l 1
 501 400 l 1
 599 400 l 1
 600 401 l 1
 600 499 l 1
 601 500 l 1
 699 500 l 1
 700 499 l 1
 700 201 l 1
 701 200 l 1
 799 200 l 1
 800 199 l 1
 800 101 l 1
 799 100 l 1
 701 100 l 1
 700 99 l 1
 700 1 l 1
 699 0 l 1
 601 0 l 1
 600 1 l 1
 600 99 l 1
 599 100 l 1
 401 100 l 1
 400 101 l 1
 400 199 l 1
 399 200 l 1
 101 200 l 1
 100 201 l 1
 100 299 l 1
 101 300 l 1
 199 300 l 1
 200 301 l 1
 200 499 l 1
 199 500 l 1
 101 500 l 1
 100 501 l 1
 100 599 l 1
EndSplineSet
EndChar

StartChar: uni00B9
Encoding: 185 185 139
Width: 800
VWidth: 0
Flags: H
LayerCount: 2
Fore
SplineSet
599 300 m 1
 600 299 l 1
 600 201 l 1
 599 200 l 1
 301 200 l 1
 300 201 l 1
 300 299 l 1
 301 300 l 1
 399 300 l 1
 400 301 l 1
 400 499 l 1
 399 500 l 1
 301 500 l 1
 300 501 l 1
 300 599 l 1
 301 600 l 1
 399 600 l 1
 400 601 l 1
 400 699 l 1
 401 700 l 1
 499 700 l 1
 500 699 l 1
 500 301 l 1
 501 300 l 1
 599 300 l 1
EndSplineSet
EndChar

StartChar: ordfeminine
Encoding: 170 170 140
Width: 800
VWidth: 0
Flags: H
LayerCount: 2
Fore
SplineSet
300 700 m 1
 301 701 l 1
 499 701 l 1
 500 700 l 1
 500 501 l 1
 501 500 l 1
 599 500 l 1
 600 499 l 1
 600 401 l 1
 599 400 l 1
 301 400 l 1
 300 401 l 1
 300 499 l 1
 301 500 l 1
 399 500 l 1
 400 501 l 1
 400 599 l 1
 399 600 l 1
 301 600 l 1
 300 601 l 1
 300 700 l 1
201 500 m 1
 200 501 l 1
 200 599 l 1
 201 600 l 1
 299 600 l 1
 300 599 l 1
 300 501 l 1
 299 500 l 1
 201 500 l 1
EndSplineSet
EndChar

StartChar: ordmasculine
Encoding: 186 186 141
Width: 800
VWidth: 0
Flags: H
LayerCount: 2
Fore
SplineSet
200 599 m 1
 201 600 l 1
 299 600 l 1
 300 599 l 1
 300 401 l 1
 299 400 l 1
 201 400 l 1
 200 401 l 1
 200 599 l 1
500 599 m 1
 501 600 l 1
 599 600 l 1
 600 599 l 1
 600 401 l 1
 599 400 l 1
 501 400 l 1
 500 401 l 1
 500 599 l 1
499 700 m 1
 500 699 l 1
 500 601 l 1
 499 600 l 1
 301 600 l 1
 300 601 l 1
 300 699 l 1
 301 700 l 1
 499 700 l 1
499 400 m 1
 500 399 l 1
 500 301 l 1
 499 300 l 1
 301 300 l 1
 300 301 l 1
 300 399 l 1
 301 400 l 1
 499 400 l 1
EndSplineSet
EndChar

StartChar: macron
Encoding: 175 175 142
Width: 800
VWidth: 0
Flags: H
LayerCount: 2
Fore
SplineSet
1 600 m 1
 0 601 l 1
 0 699 l 1
 1 700 l 1
 799 700 l 1
 800 699 l 1
 800 601 l 1
 799 600 l 1
 1 600 l 1
EndSplineSet
EndChar

StartChar: p
Encoding: 112 112 143
Width: 800
VWidth: 0
Flags: H
LayerCount: 2
Fore
SplineSet
499 500 m 1
 500 499 l 1
 500 401 l 1
 499 400 l 1
 201 400 l 1
 200 399 l 1
 200 201 l 1
 201 200 l 1
 499 200 l 1
 500 199 l 1
 500 101 l 1
 499 100 l 1
 201 100 l 1
 200 99 l 1
 200 -99 l 1
 199 -100 l 1
 101 -100 l 1
 100 -99 l 1
 100 499 l 1
 101 500 l 1
 499 500 l 1
500 399 m 1
 501 400 l 1
 599 400 l 1
 600 399 l 1
 600 201 l 1
 599 200 l 1
 501 200 l 1
 500 201 l 1
 500 399 l 1
EndSplineSet
EndChar

StartChar: paragraph
Encoding: 182 182 144
Width: 800
VWidth: 0
Flags: H
LayerCount: 2
Fore
SplineSet
101 400 m 1
 100 401 l 1
 100 499 l 1
 101 500 l 1
 199 500 l 1
 200 499 l 1
 200 401 l 1
 199 400 l 1
 101 400 l 1
301 299 m 1
 300 300 l 1
 201 300 l 1
 200 301 l 1
 200 399 l 1
 201 400 l 1
 299 400 l 1
 300 401 l 1
 300 499 l 1
 299 500 l 1
 201 500 l 1
 200 501 l 1
 200 599 l 1
 201 600 l 1
 699 600 l 1
 700 599 l 1
 700 501 l 1
 699 500 l 1
 601 500 l 1
 600 499 l 1
 600 1 l 1
 599 0 l 1
 501 0 l 1
 500 1 l 1
 500 499 l 1
 499 500 l 1
 401 500 l 1
 400 499 l 1
 400 1 l 1
 399 0 l 1
 301 0 l 1
 300 1 l 1
 301 299 l 1
EndSplineSet
EndChar

StartChar: parenleft
Encoding: 40 40 145
Width: 800
VWidth: 0
Flags: H
LayerCount: 2
Fore
SplineSet
501 0 m 1
 500 1 l 1
 500 99 l 1
 501 100 l 1
 599 100 l 1
 600 99 l 1
 600 1 l 1
 599 0 l 1
 501 0 l 1
501 500 m 1
 500 501 l 1
 500 599 l 1
 501 600 l 1
 599 600 l 1
 600 599 l 1
 600 501 l 1
 599 500 l 1
 501 500 l 1
400 499 m 1
 401 500 l 1
 499 500 l 1
 500 499 l 1
 500 101 l 1
 499 100 l 1
 401 100 l 1
 400 101 l 1
 400 499 l 1
EndSplineSet
EndChar

StartChar: parenright
Encoding: 41 41 146
Width: 800
VWidth: 0
Flags: H
LayerCount: 2
Fore
SplineSet
201 0 m 1
 200 1 l 1
 200 99 l 1
 201 100 l 1
 299 100 l 1
 300 99 l 1
 300 1 l 1
 299 0 l 1
 201 0 l 1
201 500 m 1
 200 501 l 1
 200 599 l 1
 201 600 l 1
 299 600 l 1
 300 599 l 1
 300 501 l 1
 299 500 l 1
 201 500 l 1
300 499 m 1
 301 500 l 1
 399 500 l 1
 400 499 l 1
 400 101 l 1
 399 100 l 1
 301 100 l 1
 300 101 l 1
 300 499 l 1
EndSplineSet
EndChar

StartChar: percent
Encoding: 37 37 147
Width: 800
VWidth: 0
Flags: H
LayerCount: 2
Fore
SplineSet
101 0 m 1
 100 1 l 1
 100 99 l 1
 101 100 l 1
 199 100 l 1
 200 99 l 1
 200 1 l 1
 199 0 l 1
 101 0 l 1
201 100 m 1
 200 101 l 1
 200 199 l 1
 201 200 l 1
 299 200 l 1
 300 199 l 1
 300 101 l 1
 299 100 l 1
 201 100 l 1
301 200 m 1
 300 201 l 1
 300 299 l 1
 301 300 l 1
 399 300 l 1
 400 299 l 1
 400 201 l 1
 399 200 l 1
 301 200 l 1
401 300 m 1
 400 301 l 1
 400 399 l 1
 401 400 l 1
 499 400 l 1
 500 399 l 1
 500 301 l 1
 499 300 l 1
 401 300 l 1
501 400 m 1
 500 401 l 1
 500 499 l 1
 501 500 l 1
 599 500 l 1
 600 499 l 1
 600 401 l 1
 599 400 l 1
 501 400 l 1
601 500 m 1
 600 501 l 1
 600 599 l 1
 601 600 l 1
 699 600 l 1
 700 599 l 1
 700 501 l 1
 699 500 l 1
 601 500 l 1
100 599 m 1
 101 600 l 1
 299 600 l 1
 300 599 l 1
 300 401 l 1
 299 400 l 1
 101 400 l 1
 100 401 l 1
 100 599 l 1
500 199 m 1
 501 200 l 1
 699 200 l 1
 700 199 l 1
 700 1 l 1
 699 0 l 1
 501 0 l 1
 500 1 l 1
 500 199 l 1
EndSplineSet
EndChar

StartChar: period
Encoding: 46 46 148
Width: 800
VWidth: 0
Flags: H
LayerCount: 2
Fore
SplineSet
300 199 m 1
 301 200 l 1
 499 200 l 1
 500 199 l 1
 500 1 l 1
 499 0 l 1
 301 0 l 1
 300 1 l 1
 300 199 l 1
EndSplineSet
EndChar

StartChar: plus
Encoding: 43 43 149
Width: 800
VWidth: 0
Flags: H
LayerCount: 2
Fore
SplineSet
699 300 m 1
 700 299 l 1
 700 201 l 1
 699 200 l 1
 501 200 l 1
 500 199 l 1
 500 1 l 1
 499 0 l 1
 401 0 l 1
 400 1 l 1
 400 199 l 1
 399 200 l 1
 201 200 l 1
 200 201 l 1
 200 299 l 1
 201 300 l 1
 399 300 l 1
 400 301 l 1
 400 499 l 1
 401 500 l 1
 499 500 l 1
 500 499 l 1
 500 301 l 1
 501 300 l 1
 699 300 l 1
EndSplineSet
EndChar

StartChar: plusminus
Encoding: 177 177 150
Width: 800
VWidth: 0
Flags: H
LayerCount: 2
Fore
SplineSet
201 0 m 1
 200 1 l 1
 200 99 l 1
 201 100 l 1
 699 100 l 1
 700 99 l 1
 700 1 l 1
 699 0 l 1
 201 0 l 1
699 500 m 1
 700 499 l 1
 700 401 l 1
 699 400 l 1
 501 400 l 1
 500 399 l 1
 500 201 l 1
 499 200 l 1
 401 200 l 1
 400 201 l 1
 400 399 l 1
 399 400 l 1
 201 400 l 1
 200 401 l 1
 200 499 l 1
 201 500 l 1
 399 500 l 1
 400 501 l 1
 400 699 l 1
 401 700 l 1
 499 700 l 1
 500 699 l 1
 500 501 l 1
 501 500 l 1
 699 500 l 1
EndSplineSet
EndChar

StartChar: q
Encoding: 113 113 151
Width: 800
VWidth: 0
Flags: H
LayerCount: 2
Fore
SplineSet
100 399 m 1
 101 400 l 1
 199 400 l 1
 200 399 l 1
 200 201 l 1
 199 200 l 1
 101 200 l 1
 100 201 l 1
 100 399 l 1
201 400 m 1
 200 401 l 1
 200 499 l 1
 201 500 l 1
 599 500 l 1
 600 499 l 1
 600 1 l 1
 601 0 l 1
 699 0 l 1
 700 -1 l 1
 700 -99 l 1
 699 -100 l 1
 501 -100 l 1
 500 -99 l 1
 500 99 l 1
 499 100 l 1
 201 100 l 1
 200 101 l 1
 200 199 l 1
 201 200 l 1
 499 200 l 1
 500 201 l 1
 500 399 l 1
 499 400 l 1
 201 400 l 1
EndSplineSet
EndChar

StartChar: question
Encoding: 63 63 152
Width: 800
VWidth: 0
Flags: H
LayerCount: 2
Fore
SplineSet
101 400 m 1
 100 401 l 1
 100 499 l 1
 101 500 l 1
 199 500 l 1
 200 499 l 1
 200 401 l 1
 199 400 l 1
 101 400 l 1
201 500 m 1
 200 501 l 1
 200 599 l 1
 201 600 l 1
 599 600 l 1
 600 599 l 1
 600 501 l 1
 599 500 l 1
 201 500 l 1
601 400 m 1
 600 401 l 1
 600 499 l 1
 601 500 l 1
 699 500 l 1
 700 499 l 1
 700 401 l 1
 699 400 l 1
 601 400 l 1
501 300 m 1
 500 301 l 1
 500 399 l 1
 501 400 l 1
 599 400 l 1
 600 399 l 1
 600 301 l 1
 599 300 l 1
 501 300 l 1
401 200 m 1
 400 201 l 1
 400 299 l 1
 401 300 l 1
 499 300 l 1
 500 299 l 1
 500 201 l 1
 499 200 l 1
 401 200 l 1
401 0 m 1
 400 1 l 1
 400 99 l 1
 401 100 l 1
 499 100 l 1
 500 99 l 1
 500 1 l 1
 499 0 l 1
 401 0 l 1
EndSplineSet
EndChar

StartChar: questiondown
Encoding: 191 191 153
Width: 800
VWidth: 0
Flags: H
LayerCount: 2
Fore
SplineSet
699 200 m 1
 700 199 l 1
 700 101 l 1
 699 100 l 1
 601 100 l 1
 600 101 l 1
 600 199 l 1
 601 200 l 1
 699 200 l 1
599 100 m 1
 600 99 l 1
 600 1 l 1
 599 0 l 1
 201 0 l 1
 200 1 l 1
 200 99 l 1
 201 100 l 1
 599 100 l 1
199 200 m 1
 200 199 l 1
 200 101 l 1
 199 100 l 1
 101 100 l 1
 100 101 l 1
 100 199 l 1
 101 200 l 1
 199 200 l 1
299 300 m 1
 300 299 l 1
 300 201 l 1
 299 200 l 1
 201 200 l 1
 200 201 l 1
 200 299 l 1
 201 300 l 1
 299 300 l 1
399 400 m 1
 400 399 l 1
 400 301 l 1
 399 300 l 1
 301 300 l 1
 300 301 l 1
 300 399 l 1
 301 400 l 1
 399 400 l 1
399 600 m 1
 400 599 l 1
 400 501 l 1
 399 500 l 1
 301 500 l 1
 300 501 l 1
 300 599 l 1
 301 600 l 1
 399 600 l 1
EndSplineSet
EndChar

StartChar: quotedbl
Encoding: 34 34 154
Width: 800
VWidth: 0
Flags: H
LayerCount: 2
Fore
SplineSet
200 599 m 1
 201 600 l 1
 299 600 l 1
 300 599 l 1
 300 401 l 1
 299 400 l 1
 201 400 l 1
 200 401 l 1
 200 599 l 1
500 599 m 1
 501 600 l 1
 599 600 l 1
 600 599 l 1
 600 401 l 1
 599 400 l 1
 501 400 l 1
 500 401 l 1
 500 599 l 1
EndSplineSet
EndChar

StartChar: quotesingle
Encoding: 39 39 155
Width: 800
VWidth: 0
Flags: H
LayerCount: 2
Fore
SplineSet
301 400 m 1
 300 401 l 1
 300 499 l 1
 301 500 l 1
 399 500 l 1
 400 499 l 1
 400 401 l 1
 399 400 l 1
 301 400 l 1
401 500 m 1
 400 501 l 1
 400 599 l 1
 401 600 l 1
 499 600 l 1
 500 599 l 1
 500 501 l 1
 499 500 l 1
 401 500 l 1
EndSplineSet
EndChar

StartChar: r
Encoding: 114 114 156
Width: 800
VWidth: 0
Flags: H
LayerCount: 2
Fore
SplineSet
200 399 m 1
 201 400 l 1
 299 400 l 1
 300 399 l 1
 300 1 l 1
 299 0 l 1
 201 0 l 1
 200 1 l 1
 200 399 l 1
599 500 m 1
 600 499 l 1
 600 401 l 1
 599 400 l 1
 301 400 l 1
 300 401 l 1
 300 499 l 1
 301 500 l 1
 599 500 l 1
EndSplineSet
EndChar

StartChar: registered
Encoding: 174 174 157
Width: 800
VWidth: 0
Flags: H
LayerCount: 2
Fore
SplineSet
101 0 m 1
 100 1 l 1
 100 99 l 1
 101 100 l 1
 199 100 l 1
 200 99 l 1
 200 1 l 1
 199 0 l 1
 101 0 l 1
101 500 m 1
 100 501 l 1
 100 599 l 1
 101 600 l 1
 199 600 l 1
 200 599 l 1
 200 501 l 1
 199 500 l 1
 101 500 l 1
601 0 m 1
 600 1 l 1
 600 99 l 1
 601 100 l 1
 699 100 l 1
 700 99 l 1
 700 1 l 1
 699 0 l 1
 601 0 l 1
601 500 m 1
 600 501 l 1
 600 599 l 1
 601 600 l 1
 699 600 l 1
 700 599 l 1
 700 501 l 1
 699 500 l 1
 601 500 l 1
501 100 m 1
 500 101 l 1
 500 199 l 1
 501 200 l 1
 599 200 l 1
 600 199 l 1
 600 101 l 1
 599 100 l 1
 501 100 l 1
501 300 m 1
 500 301 l 1
 500 399 l 1
 501 400 l 1
 599 400 l 1
 600 399 l 1
 600 301 l 1
 599 300 l 1
 501 300 l 1
499 500 m 1
 500 499 l 1
 500 401 l 1
 499 400 l 1
 401 400 l 1
 400 399 l 1
 400 301 l 1
 401 300 l 1
 499 300 l 1
 500 299 l 1
 500 201 l 1
 499 200 l 1
 401 200 l 1
 400 199 l 1
 400 101 l 1
 399 100 l 1
 301 100 l 1
 300 101 l 1
 300 499 l 1
 301 500 l 1
 499 500 l 1
201 -100 m 1
 200 -99 l 1
 200 -1 l 1
 201 0 l 1
 599 0 l 1
 600 -1 l 1
 600 -99 l 1
 599 -100 l 1
 201 -100 l 1
201 600 m 1
 200 601 l 1
 200 699 l 1
 201 700 l 1
 599 700 l 1
 600 699 l 1
 600 601 l 1
 599 600 l 1
 201 600 l 1
0 499 m 1
 1 500 l 1
 99 500 l 1
 100 499 l 1
 100 101 l 1
 99 100 l 1
 1 100 l 1
 0 101 l 1
 0 499 l 1
700 499 m 1
 701 500 l 1
 799 500 l 1
 800 499 l 1
 800 101 l 1
 799 100 l 1
 701 100 l 1
 700 101 l 1
 700 499 l 1
EndSplineSet
EndChar

StartChar: rtblock
Encoding: 9616 9616 158
Width: 800
VWidth: 0
Flags: H
LayerCount: 2
Fore
SplineSet
400 -100 m 1
 400 700 l 1
 800 700 l 1
 800 -100 l 1
 400 -100 l 1
EndSplineSet
EndChar

StartChar: s
Encoding: 115 115 159
Width: 800
VWidth: 0
Flags: H
LayerCount: 2
Fore
SplineSet
499 500 m 1
 500 499 l 1
 500 401 l 1
 499 400 l 1
 201 400 l 1
 200 401 l 1
 200 499 l 1
 201 500 l 1
 499 500 l 1
101 300 m 1
 100 301 l 1
 100 399 l 1
 101 400 l 1
 199 400 l 1
 200 399 l 1
 200 301 l 1
 199 300 l 1
 101 300 l 1
499 300 m 1
 500 299 l 1
 500 201 l 1
 499 200 l 1
 201 200 l 1
 200 201 l 1
 200 299 l 1
 201 300 l 1
 499 300 l 1
501 100 m 1
 500 101 l 1
 500 199 l 1
 501 200 l 1
 599 200 l 1
 600 199 l 1
 600 101 l 1
 599 100 l 1
 501 100 l 1
101 0 m 1
 100 1 l 1
 100 99 l 1
 101 100 l 1
 499 100 l 1
 500 99 l 1
 500 1 l 1
 499 0 l 1
 101 0 l 1
EndSplineSet
EndChar

StartChar: section
Encoding: 167 167 160
Width: 800
VWidth: 0
Flags: H
LayerCount: 2
Fore
SplineSet
499 600 m 1
 500 599 l 1
 500 501 l 1
 499 500 l 1
 301 500 l 1
 300 501 l 1
 300 599 l 1
 301 600 l 1
 499 600 l 1
399 0 m 1
 400 -1 l 1
 400 -99 l 1
 399 -100 l 1
 201 -100 l 1
 200 -99 l 1
 200 -1 l 1
 201 0 l 1
 399 0 l 1
401 0 m 1
 400 1 l 1
 400 99 l 1
 401 100 l 1
 499 100 l 1
 500 99 l 1
 500 1 l 1
 499 0 l 1
 401 0 l 1
301 100 m 1
 300 101 l 1
 300 199 l 1
 301 200 l 1
 399 200 l 1
 400 199 l 1
 400 101 l 1
 399 100 l 1
 301 100 l 1
201 200 m 1
 200 201 l 1
 200 299 l 1
 201 300 l 1
 299 300 l 1
 300 299 l 1
 300 201 l 1
 299 200 l 1
 201 200 l 1
401 200 m 1
 400 201 l 1
 400 299 l 1
 401 300 l 1
 499 300 l 1
 500 299 l 1
 500 201 l 1
 499 200 l 1
 401 200 l 1
301 300 m 1
 300 301 l 1
 300 399 l 1
 301 400 l 1
 399 400 l 1
 400 399 l 1
 400 301 l 1
 399 300 l 1
 301 300 l 1
201 400 m 1
 200 401 l 1
 200 499 l 1
 201 500 l 1
 299 500 l 1
 300 499 l 1
 300 401 l 1
 299 400 l 1
 201 400 l 1
EndSplineSet
EndChar

StartChar: semicolon
Encoding: 59 59 161
Width: 800
VWidth: 0
Flags: H
LayerCount: 2
Fore
SplineSet
301 400 m 1
 300 401 l 1
 300 499 l 1
 301 500 l 1
 399 500 l 1
 400 499 l 1
 400 401 l 1
 399 400 l 1
 301 400 l 1
201 -100 m 1
 200 -99 l 1
 200 -1 l 1
 201 0 l 1
 299 0 l 1
 300 -1 l 1
 300 -99 l 1
 299 -100 l 1
 201 -100 l 1
300 199 m 1
 301 200 l 1
 399 200 l 1
 400 199 l 1
 400 1 l 1
 399 0 l 1
 301 0 l 1
 300 1 l 1
 300 199 l 1
EndSplineSet
EndChar

StartChar: seven
Encoding: 55 55 162
Width: 800
VWidth: 0
Flags: H
LayerCount: 2
Fore
SplineSet
300 199 m 1
 301 200 l 1
 399 200 l 1
 400 199 l 1
 400 1 l 1
 399 0 l 1
 301 0 l 1
 300 1 l 1
 300 199 l 1
401 200 m 1
 400 201 l 1
 400 299 l 1
 401 300 l 1
 499 300 l 1
 500 299 l 1
 500 201 l 1
 499 200 l 1
 401 200 l 1
501 300 m 1
 500 301 l 1
 500 399 l 1
 501 400 l 1
 599 400 l 1
 600 399 l 1
 600 301 l 1
 599 300 l 1
 501 300 l 1
699 600 m 1
 700 599 l 1
 700 401 l 1
 699 400 l 1
 601 400 l 1
 600 401 l 1
 600 499 l 1
 599 500 l 1
 101 500 l 1
 100 501 l 1
 100 599 l 1
 101 600 l 1
 699 600 l 1
EndSplineSet
EndChar

StartChar: shade
Encoding: 9618 9618 163
Width: 800
VWidth: 0
Flags: H
LayerCount: 2
Fore
SplineSet
1 600 m 1
 0 601 l 1
 0 699 l 1
 1 700 l 1
 99 700 l 1
 100 699 l 1
 100 601 l 1
 99 600 l 1
 1 600 l 1
201 400 m 1
 200 401 l 1
 200 499 l 1
 201 500 l 1
 299 500 l 1
 300 499 l 1
 300 401 l 1
 299 400 l 1
 201 400 l 1
101 100 m 1
 100 101 l 1
 100 199 l 1
 101 200 l 1
 199 200 l 1
 200 199 l 1
 200 101 l 1
 199 100 l 1
 101 100 l 1
301 -100 m 1
 300 -99 l 1
 300 -1 l 1
 301 0 l 1
 399 0 l 1
 400 -1 l 1
 400 -99 l 1
 399 -100 l 1
 301 -100 l 1
201 600 m 1
 200 601 l 1
 200 699 l 1
 201 700 l 1
 299 700 l 1
 300 699 l 1
 300 601 l 1
 299 600 l 1
 201 600 l 1
101 -100 m 1
 100 -99 l 1
 100 -1 l 1
 101 0 l 1
 199 0 l 1
 200 -1 l 1
 200 -99 l 1
 199 -100 l 1
 101 -100 l 1
301 500 m 1
 300 501 l 1
 300 599 l 1
 301 600 l 1
 399 600 l 1
 400 599 l 1
 400 501 l 1
 399 500 l 1
 301 500 l 1
1 0 m 1
 0 1 l 1
 0 99 l 1
 1 100 l 1
 99 100 l 1
 100 99 l 1
 100 1 l 1
 99 0 l 1
 1 0 l 1
101 500 m 1
 100 501 l 1
 100 599 l 1
 101 600 l 1
 199 600 l 1
 200 599 l 1
 200 501 l 1
 199 500 l 1
 101 500 l 1
301 300 m 1
 300 301 l 1
 300 399 l 1
 301 400 l 1
 399 400 l 1
 400 399 l 1
 400 301 l 1
 399 300 l 1
 301 300 l 1
1 400 m 1
 0 401 l 1
 0 499 l 1
 1 500 l 1
 99 500 l 1
 100 499 l 1
 100 401 l 1
 99 400 l 1
 1 400 l 1
201 200 m 1
 200 201 l 1
 200 299 l 1
 201 300 l 1
 299 300 l 1
 300 299 l 1
 300 201 l 1
 299 200 l 1
 201 200 l 1
1 200 m 1
 0 201 l 1
 0 299 l 1
 1 300 l 1
 99 300 l 1
 100 299 l 1
 100 201 l 1
 99 200 l 1
 1 200 l 1
201 0 m 1
 200 1 l 1
 200 99 l 1
 201 100 l 1
 299 100 l 1
 300 99 l 1
 300 1 l 1
 299 0 l 1
 201 0 l 1
101 300 m 1
 100 301 l 1
 100 399 l 1
 101 400 l 1
 199 400 l 1
 200 399 l 1
 200 301 l 1
 199 300 l 1
 101 300 l 1
301 100 m 1
 300 101 l 1
 300 199 l 1
 301 200 l 1
 399 200 l 1
 400 199 l 1
 400 101 l 1
 399 100 l 1
 301 100 l 1
401 600 m 1
 400 601 l 1
 400 699 l 1
 401 700 l 1
 499 700 l 1
 500 699 l 1
 500 601 l 1
 499 600 l 1
 401 600 l 1
601 400 m 1
 600 401 l 1
 600 499 l 1
 601 500 l 1
 699 500 l 1
 700 499 l 1
 700 401 l 1
 699 400 l 1
 601 400 l 1
501 100 m 1
 500 101 l 1
 500 199 l 1
 501 200 l 1
 599 200 l 1
 600 199 l 1
 600 101 l 1
 599 100 l 1
 501 100 l 1
701 -100 m 1
 700 -99 l 1
 700 -1 l 1
 701 0 l 1
 799 0 l 1
 800 -1 l 1
 800 -99 l 1
 799 -100 l 1
 701 -100 l 1
601 600 m 1
 600 601 l 1
 600 699 l 1
 601 700 l 1
 699 700 l 1
 700 699 l 1
 700 601 l 1
 699 600 l 1
 601 600 l 1
501 -100 m 1
 500 -99 l 1
 500 -1 l 1
 501 0 l 1
 599 0 l 1
 600 -1 l 1
 600 -99 l 1
 599 -100 l 1
 501 -100 l 1
701 500 m 1
 700 501 l 1
 700 599 l 1
 701 600 l 1
 799 600 l 1
 800 599 l 1
 800 501 l 1
 799 500 l 1
 701 500 l 1
401 0 m 1
 400 1 l 1
 400 99 l 1
 401 100 l 1
 499 100 l 1
 500 99 l 1
 500 1 l 1
 499 0 l 1
 401 0 l 1
501 500 m 1
 500 501 l 1
 500 599 l 1
 501 600 l 1
 599 600 l 1
 600 599 l 1
 600 501 l 1
 599 500 l 1
 501 500 l 1
701 300 m 1
 700 301 l 1
 700 399 l 1
 701 400 l 1
 799 400 l 1
 800 399 l 1
 800 301 l 1
 799 300 l 1
 701 300 l 1
401 400 m 1
 400 401 l 1
 400 499 l 1
 401 500 l 1
 499 500 l 1
 500 499 l 1
 500 401 l 1
 499 400 l 1
 401 400 l 1
601 200 m 1
 600 201 l 1
 600 299 l 1
 601 300 l 1
 699 300 l 1
 700 299 l 1
 700 201 l 1
 699 200 l 1
 601 200 l 1
401 200 m 1
 400 201 l 1
 400 299 l 1
 401 300 l 1
 499 300 l 1
 500 299 l 1
 500 201 l 1
 499 200 l 1
 401 200 l 1
601 0 m 1
 600 1 l 1
 600 99 l 1
 601 100 l 1
 699 100 l 1
 700 99 l 1
 700 1 l 1
 699 0 l 1
 601 0 l 1
501 300 m 1
 500 301 l 1
 500 399 l 1
 501 400 l 1
 599 400 l 1
 600 399 l 1
 600 301 l 1
 599 300 l 1
 501 300 l 1
701 100 m 1
 700 101 l 1
 700 199 l 1
 701 200 l 1
 799 200 l 1
 800 199 l 1
 800 101 l 1
 799 100 l 1
 701 100 l 1
EndSplineSet
EndChar

StartChar: six
Encoding: 54 54 164
Width: 800
VWidth: 0
Flags: H
LayerCount: 2
Fore
SplineSet
600 299 m 1
 601 300 l 1
 699 300 l 1
 700 299 l 1
 700 101 l 1
 699 100 l 1
 601 100 l 1
 600 101 l 1
 600 299 l 1
201 0 m 1
 200 1 l 1
 200 99 l 1
 201 100 l 1
 599 100 l 1
 600 99 l 1
 600 1 l 1
 599 0 l 1
 201 0 l 1
201 500 m 1
 200 501 l 1
 200 599 l 1
 201 600 l 1
 599 600 l 1
 600 599 l 1
 600 501 l 1
 599 500 l 1
 201 500 l 1
100 499 m 1
 101 500 l 1
 199 500 l 1
 200 499 l 1
 200 401 l 1
 201 400 l 1
 599 400 l 1
 600 399 l 1
 600 301 l 1
 599 300 l 1
 201 300 l 1
 200 299 l 1
 200 101 l 1
 199 100 l 1
 101 100 l 1
 100 101 l 1
 100 499 l 1
EndSplineSet
EndChar

StartChar: slash
Encoding: 47 47 165
Width: 800
VWidth: 0
Flags: H
LayerCount: 2
Fore
SplineSet
201 0 m 1
 200 1 l 1
 200 99 l 1
 201 100 l 1
 299 100 l 1
 300 99 l 1
 300 1 l 1
 299 0 l 1
 201 0 l 1
301 100 m 1
 300 101 l 1
 300 199 l 1
 301 200 l 1
 399 200 l 1
 400 199 l 1
 400 101 l 1
 399 100 l 1
 301 100 l 1
401 200 m 1
 400 201 l 1
 400 299 l 1
 401 300 l 1
 499 300 l 1
 500 299 l 1
 500 201 l 1
 499 200 l 1
 401 200 l 1
501 300 m 1
 500 301 l 1
 500 399 l 1
 501 400 l 1
 599 400 l 1
 600 399 l 1
 600 301 l 1
 599 300 l 1
 501 300 l 1
601 400 m 1
 600 401 l 1
 600 499 l 1
 601 500 l 1
 699 500 l 1
 700 499 l 1
 700 401 l 1
 699 400 l 1
 601 400 l 1
EndSplineSet
EndChar

StartChar: smileface
Encoding: 9786 9786 166
Width: 800
VWidth: 0
Flags: H
LayerCount: 2
Fore
SplineSet
101 -100 m 1
 100 -99 l 1
 100 -1 l 1
 101 0 l 1
 599 0 l 1
 600 -1 l 1
 600 -99 l 1
 599 -100 l 1
 101 -100 l 1
101 600 m 1
 100 601 l 1
 100 699 l 1
 101 700 l 1
 599 700 l 1
 600 699 l 1
 600 601 l 1
 599 600 l 1
 101 600 l 1
0 599 m 1
 1 600 l 1
 99 600 l 1
 100 599 l 1
 100 1 l 1
 99 0 l 1
 1 0 l 1
 0 1 l 1
 0 599 l 1
600 599 m 1
 601 600 l 1
 699 600 l 1
 700 599 l 1
 700 1 l 1
 699 0 l 1
 601 0 l 1
 600 1 l 1
 600 599 l 1
201 400 m 1
 200 401 l 1
 200 499 l 1
 201 500 l 1
 299 500 l 1
 300 499 l 1
 300 401 l 1
 299 400 l 1
 201 400 l 1
401 400 m 1
 400 401 l 1
 400 499 l 1
 401 500 l 1
 499 500 l 1
 500 499 l 1
 500 401 l 1
 499 400 l 1
 401 400 l 1
201 200 m 1
 200 201 l 1
 200 299 l 1
 201 300 l 1
 299 300 l 1
 300 299 l 1
 300 201 l 1
 299 200 l 1
 201 200 l 1
401 200 m 1
 400 201 l 1
 400 299 l 1
 401 300 l 1
 499 300 l 1
 500 299 l 1
 500 201 l 1
 499 200 l 1
 401 200 l 1
301 100 m 1
 300 101 l 1
 300 199 l 1
 301 200 l 1
 399 200 l 1
 400 199 l 1
 400 101 l 1
 399 100 l 1
 301 100 l 1
EndSplineSet
EndChar

StartChar: spade
Encoding: 9824 9824 167
Width: 800
VWidth: 0
Flags: H
LayerCount: 2
Fore
SplineSet
201 -100 m 1
 200 -99 l 1
 200 -1 l 1
 201 0 l 1
 299 0 l 1
 300 1 l 1
 300 199 l 1
 299 200 l 1
 201 200 l 1
 200 199 l 1
 200 101 l 1
 199 100 l 1
 1 100 l 1
 0 101 l 1
 0 399 l 1
 1 400 l 1
 99 400 l 1
 100 401 l 1
 100 499 l 1
 101 500 l 1
 199 500 l 1
 200 501 l 1
 200 599 l 1
 201 600 l 1
 299 600 l 1
 300 601 l 1
 300 699 l 1
 301 700 l 1
 399 700 l 1
 400 699 l 1
 400 601 l 1
 401 600 l 1
 499 600 l 1
 500 599 l 1
 500 501 l 1
 501 500 l 1
 599 500 l 1
 600 499 l 1
 600 401 l 1
 601 400 l 1
 699 400 l 1
 700 399 l 1
 700 101 l 1
 699 100 l 1
 501 100 l 1
 500 101 l 1
 500 199 l 1
 499 200 l 1
 401 200 l 1
 400 199 l 1
 400 1 l 1
 401 0 l 1
 499 0 l 1
 500 -1 l 1
 500 -99 l 1
 499 -100 l 1
 201 -100 l 1
EndSplineSet
EndChar

StartChar: sterling
Encoding: 163 163 168
Width: 800
VWidth: 0
Flags: H
LayerCount: 2
Fore
SplineSet
601 400 m 1
 600 401 l 1
 600 499 l 1
 601 500 l 1
 699 500 l 1
 700 499 l 1
 700 401 l 1
 699 400 l 1
 601 400 l 1
599 600 m 1
 600 599 l 1
 600 501 l 1
 599 500 l 1
 301 500 l 1
 300 501 l 1
 300 599 l 1
 301 600 l 1
 599 600 l 1
199 400 m 1
 200 401 l 1
 200 499 l 1
 201 500 l 1
 299 500 l 1
 300 499 l 1
 300 401 l 1
 301 400 l 1
 499 400 l 1
 500 399 l 1
 500 301 l 1
 499 300 l 1
 301 300 l 1
 300 299 l 1
 300 101 l 1
 301 100 l 1
 699 100 l 1
 700 99 l 1
 700 1 l 1
 699 0 l 1
 101 0 l 1
 100 1 l 1
 100 99 l 1
 101 100 l 1
 199 100 l 1
 200 101 l 1
 200 299 l 1
 199 300 l 1
 101 300 l 1
 100 301 l 1
 100 399 l 1
 101 400 l 1
 199 400 l 1
EndSplineSet
EndChar

StartChar: sun
Encoding: 9788 9788 169
Width: 800
VWidth: 0
Flags: H
LayerCount: 2
Fore
SplineSet
301 400 m 1
 300 401 l 1
 300 599 l 1
 301 600 l 1
 399 600 l 1
 400 599 l 1
 400 501 l 1
 401 500 l 1
 499 500 l 1
 500 499 l 1
 500 401 l 1
 499 400 l 1
 301 400 l 1
501 500 m 1
 500 501 l 1
 500 599 l 1
 501 600 l 1
 599 600 l 1
 600 599 l 1
 600 501 l 1
 599 500 l 1
 501 500 l 1
500 399 m 1
 501 400 l 1
 699 400 l 1
 700 399 l 1
 700 301 l 1
 699 300 l 1
 601 300 l 1
 600 299 l 1
 600 201 l 1
 599 200 l 1
 501 200 l 1
 500 201 l 1
 500 399 l 1
600 199 m 1
 601 200 l 1
 699 200 l 1
 700 199 l 1
 700 101 l 1
 699 100 l 1
 601 100 l 1
 600 101 l 1
 600 199 l 1
300 201 m 1
 299 200 l 1
 101 200 l 1
 100 201 l 1
 100 299 l 1
 101 300 l 1
 199 300 l 1
 200 301 l 1
 200 399 l 1
 201 400 l 1
 299 400 l 1
 300 399 l 1
 300 201 l 1
200 401 m 1
 199 400 l 1
 101 400 l 1
 100 401 l 1
 100 499 l 1
 101 500 l 1
 199 500 l 1
 200 499 l 1
 200 401 l 1
499 200 m 1
 500 199 l 1
 500 1 l 1
 499 0 l 1
 401 0 l 1
 400 1 l 1
 400 99 l 1
 399 100 l 1
 301 100 l 1
 300 101 l 1
 300 199 l 1
 301 200 l 1
 499 200 l 1
299 100 m 1
 300 99 l 1
 300 1 l 1
 299 0 l 1
 201 0 l 1
 200 1 l 1
 200 99 l 1
 201 100 l 1
 299 100 l 1
EndSplineSet
EndChar

StartChar: t
Encoding: 116 116 170
Width: 800
VWidth: 0
Flags: H
LayerCount: 2
Fore
SplineSet
499 500 m 1
 500 499 l 1
 500 401 l 1
 499 400 l 1
 401 400 l 1
 400 399 l 1
 400 101 l 1
 399 100 l 1
 301 100 l 1
 300 101 l 1
 300 399 l 1
 299 400 l 1
 201 400 l 1
 200 401 l 1
 200 499 l 1
 201 500 l 1
 299 500 l 1
 300 501 l 1
 300 599 l 1
 301 600 l 1
 399 600 l 1
 400 599 l 1
 400 501 l 1
 401 500 l 1
 499 500 l 1
599 100 m 1
 600 99 l 1
 600 1 l 1
 599 0 l 1
 401 0 l 1
 400 1 l 1
 400 99 l 1
 401 100 l 1
 599 100 l 1
EndSplineSet
EndChar

StartChar: three
Encoding: 51 51 171
Width: 800
VWidth: 0
Flags: H
LayerCount: 2
Fore
SplineSet
101 400 m 1
 100 401 l 1
 100 499 l 1
 101 500 l 1
 199 500 l 1
 200 499 l 1
 200 401 l 1
 199 400 l 1
 101 400 l 1
600 299 m 1
 601 300 l 1
 699 300 l 1
 700 299 l 1
 700 101 l 1
 699 100 l 1
 601 100 l 1
 600 101 l 1
 600 299 l 1
201 500 m 1
 200 501 l 1
 200 599 l 1
 201 600 l 1
 599 600 l 1
 600 599 l 1
 600 501 l 1
 599 500 l 1
 201 500 l 1
201 0 m 1
 200 1 l 1
 200 99 l 1
 201 100 l 1
 599 100 l 1
 600 99 l 1
 600 1 l 1
 599 0 l 1
 201 0 l 1
101 100 m 1
 100 101 l 1
 100 199 l 1
 101 200 l 1
 199 200 l 1
 200 199 l 1
 200 101 l 1
 199 100 l 1
 101 100 l 1
601 400 m 1
 600 401 l 1
 600 499 l 1
 601 500 l 1
 699 500 l 1
 700 499 l 1
 700 401 l 1
 699 400 l 1
 601 400 l 1
599 400 m 1
 600 399 l 1
 600 301 l 1
 599 300 l 1
 401 300 l 1
 400 301 l 1
 400 399 l 1
 401 400 l 1
 599 400 l 1
EndSplineSet
EndChar

StartChar: threequarters
Encoding: 190 190 172
Width: 800
VWidth: 0
Flags: H
LayerCount: 2
Fore
SplineSet
299 500 m 1
 300 499 l 1
 300 401 l 1
 299 400 l 1
 101 400 l 1
 100 401 l 1
 100 499 l 1
 101 500 l 1
 299 500 l 1
299 700 m 1
 300 699 l 1
 300 601 l 1
 299 600 l 1
 101 600 l 1
 100 601 l 1
 100 699 l 1
 101 700 l 1
 299 700 l 1
301 500 m 1
 300 501 l 1
 300 599 l 1
 301 600 l 1
 399 600 l 1
 400 599 l 1
 400 501 l 1
 399 500 l 1
 301 500 l 1
301 300 m 1
 300 301 l 1
 300 399 l 1
 301 400 l 1
 399 400 l 1
 400 399 l 1
 400 301 l 1
 399 300 l 1
 301 300 l 1
299 300 m 1
 300 299 l 1
 300 201 l 1
 299 200 l 1
 101 200 l 1
 100 201 l 1
 100 299 l 1
 101 300 l 1
 299 300 l 1
400 299 m 1
 401 300 l 1
 499 300 l 1
 500 299 l 1
 500 201 l 1
 501 200 l 1
 599 200 l 1
 600 201 l 1
 600 299 l 1
 599 300 l 1
 501 300 l 1
 500 301 l 1
 500 399 l 1
 501 400 l 1
 599 400 l 1
 600 401 l 1
 600 499 l 1
 601 500 l 1
 699 500 l 1
 700 499 l 1
 700 201 l 1
 701 200 l 1
 799 200 l 1
 800 199 l 1
 800 101 l 1
 799 100 l 1
 701 100 l 1
 700 99 l 1
 700 1 l 1
 699 0 l 1
 601 0 l 1
 600 1 l 1
 600 99 l 1
 599 100 l 1
 401 100 l 1
 400 101 l 1
 400 299 l 1
EndSplineSet
EndChar

StartChar: uni00B3
Encoding: 179 179 173
Width: 800
VWidth: 0
Flags: H
LayerCount: 2
Fore
SplineSet
499 500 m 1
 500 499 l 1
 500 401 l 1
 499 400 l 1
 301 400 l 1
 300 401 l 1
 300 499 l 1
 301 500 l 1
 499 500 l 1
499 700 m 1
 500 699 l 1
 500 601 l 1
 499 600 l 1
 201 600 l 1
 200 601 l 1
 200 699 l 1
 201 700 l 1
 499 700 l 1
501 500 m 1
 500 501 l 1
 500 599 l 1
 501 600 l 1
 599 600 l 1
 600 599 l 1
 600 501 l 1
 599 500 l 1
 501 500 l 1
501 300 m 1
 500 301 l 1
 500 399 l 1
 501 400 l 1
 599 400 l 1
 600 399 l 1
 600 301 l 1
 599 300 l 1
 501 300 l 1
499 300 m 1
 500 299 l 1
 500 201 l 1
 499 200 l 1
 201 200 l 1
 200 201 l 1
 200 299 l 1
 201 300 l 1
 499 300 l 1
EndSplineSet
EndChar

StartChar: triagdn
Encoding: 9660 9660 174
Width: 800
VWidth: 0
Flags: H
LayerCount: 2
Fore
SplineSet
600 500 m 1
 600 300 l 1
 500 300 l 1
 500 100 l 1
 400 100 l 1
 400 0 l 1
 300 0 l 1
 300 100 l 1
 200 100 l 1
 200 300 l 1
 100 300 l 1
 100 500 l 1
 600 500 l 1
EndSplineSet
EndChar

StartChar: triaglf
Encoding: 9668 9668 175
Width: 800
VWidth: 0
Flags: H
LayerCount: 2
Fore
SplineSet
600 0 m 1
 400 0 l 1
 400 100 l 1
 200 100 l 1
 200 200 l 1
 100 200 l 1
 100 300 l 1
 200 300 l 1
 200 400 l 1
 400 400 l 1
 400 500 l 1
 600 500 l 1
 600 0 l 1
EndSplineSet
EndChar

StartChar: triagrt
Encoding: 9658 9658 176
Width: 800
VWidth: 0
Flags: H
LayerCount: 2
Fore
SplineSet
200 500 m 1
 400 500 l 1
 400 400 l 1
 600 400 l 1
 600 300 l 1
 700 300 l 1
 700 200 l 1
 600 200 l 1
 600 100 l 1
 400 100 l 1
 400 0 l 1
 200 0 l 1
 200 500 l 1
EndSplineSet
EndChar

StartChar: triagup
Encoding: 9650 9650 177
Width: 800
VWidth: 0
Flags: H
LayerCount: 2
Fore
SplineSet
100 0 m 1
 100 200 l 1
 200 200 l 1
 200 400 l 1
 300 400 l 1
 300 500 l 1
 400 500 l 1
 400 400 l 1
 500 400 l 1
 500 200 l 1
 600 200 l 1
 600 0 l 1
 100 0 l 1
EndSplineSet
EndChar

StartChar: two
Encoding: 50 50 178
Width: 800
VWidth: 0
Flags: H
LayerCount: 2
Fore
SplineSet
101 400 m 1
 100 401 l 1
 100 499 l 1
 101 500 l 1
 199 500 l 1
 200 499 l 1
 200 401 l 1
 199 400 l 1
 101 400 l 1
600 499 m 1
 601 500 l 1
 699 500 l 1
 700 499 l 1
 700 301 l 1
 699 300 l 1
 601 300 l 1
 600 301 l 1
 600 499 l 1
201 500 m 1
 200 501 l 1
 200 599 l 1
 201 600 l 1
 599 600 l 1
 600 599 l 1
 600 501 l 1
 599 500 l 1
 201 500 l 1
201 200 m 1
 200 201 l 1
 200 299 l 1
 201 300 l 1
 599 300 l 1
 600 299 l 1
 600 201 l 1
 599 200 l 1
 201 200 l 1
101 0 m 1
 100 1 l 1
 100 199 l 1
 101 200 l 1
 199 200 l 1
 200 199 l 1
 200 101 l 1
 201 100 l 1
 699 100 l 1
 700 99 l 1
 700 1 l 1
 699 0 l 1
 101 0 l 1
EndSplineSet
EndChar

StartChar: uni00B2
Encoding: 178 178 179
Width: 800
VWidth: 0
Flags: H
LayerCount: 2
Fore
SplineSet
499 500 m 1
 500 499 l 1
 500 401 l 1
 499 400 l 1
 301 400 l 1
 300 401 l 1
 300 499 l 1
 301 500 l 1
 499 500 l 1
499 700 m 1
 500 699 l 1
 500 601 l 1
 499 600 l 1
 201 600 l 1
 200 601 l 1
 200 699 l 1
 201 700 l 1
 499 700 l 1
501 500 m 1
 500 501 l 1
 500 599 l 1
 501 600 l 1
 599 600 l 1
 600 599 l 1
 600 501 l 1
 599 500 l 1
 501 500 l 1
201 200 m 1
 200 201 l 1
 200 399 l 1
 201 400 l 1
 299 400 l 1
 300 399 l 1
 300 301 l 1
 301 300 l 1
 599 300 l 1
 600 299 l 1
 600 201 l 1
 599 200 l 1
 201 200 l 1
EndSplineSet
EndChar

StartChar: u
Encoding: 117 117 180
Width: 800
VWidth: 0
Flags: H
LayerCount: 2
Fore
SplineSet
100 499 m 1
 101 500 l 1
 199 500 l 1
 200 499 l 1
 200 101 l 1
 199 100 l 1
 101 100 l 1
 100 101 l 1
 100 499 l 1
499 100 m 1
 500 99 l 1
 500 1 l 1
 499 0 l 1
 201 0 l 1
 200 1 l 1
 200 99 l 1
 201 100 l 1
 499 100 l 1
500 499 m 1
 501 500 l 1
 599 500 l 1
 600 499 l 1
 600 101 l 1
 599 100 l 1
 501 100 l 1
 500 101 l 1
 500 499 l 1
EndSplineSet
EndChar

StartChar: underscore
Encoding: 95 95 181
Width: 800
VWidth: 0
Flags: H
LayerCount: 2
Fore
SplineSet
1 -100 m 1
 0 -99 l 1
 0 -1 l 1
 1 0 l 1
 799 0 l 1
 800 -1 l 1
 800 -99 l 1
 799 -100 l 1
 1 -100 l 1
EndSplineSet
EndChar

StartChar: upblock
Encoding: 9600 9600 182
Width: 800
VWidth: 0
Flags: H
LayerCount: 2
Fore
SplineSet
0 300 m 1
 0 700 l 1
 800 700 l 1
 800 300 l 1
 0 300 l 1
EndSplineSet
EndChar

StartChar: v
Encoding: 118 118 183
Width: 800
VWidth: 0
Flags: H
LayerCount: 2
Fore
SplineSet
100 499 m 1
 101 500 l 1
 199 500 l 1
 200 499 l 1
 200 301 l 1
 199 300 l 1
 101 300 l 1
 100 301 l 1
 100 499 l 1
200 299 m 1
 201 300 l 1
 299 300 l 1
 300 299 l 1
 300 101 l 1
 299 100 l 1
 201 100 l 1
 200 101 l 1
 200 299 l 1
400 299 m 1
 401 300 l 1
 499 300 l 1
 500 299 l 1
 500 101 l 1
 499 100 l 1
 401 100 l 1
 400 101 l 1
 400 299 l 1
500 499 m 1
 501 500 l 1
 599 500 l 1
 600 499 l 1
 600 301 l 1
 599 300 l 1
 501 300 l 1
 500 301 l 1
 500 499 l 1
301 0 m 1
 300 1 l 1
 300 99 l 1
 301 100 l 1
 399 100 l 1
 400 99 l 1
 400 1 l 1
 399 0 l 1
 301 0 l 1
EndSplineSet
EndChar

StartChar: w
Encoding: 119 119 184
Width: 800
VWidth: 0
Flags: H
LayerCount: 2
Fore
SplineSet
201 0 m 1
 200 1 l 1
 200 99 l 1
 201 100 l 1
 299 100 l 1
 300 99 l 1
 300 1 l 1
 299 0 l 1
 201 0 l 1
401 0 m 1
 400 1 l 1
 400 99 l 1
 401 100 l 1
 499 100 l 1
 500 99 l 1
 500 1 l 1
 499 0 l 1
 401 0 l 1
300 399 m 1
 301 400 l 1
 399 400 l 1
 400 399 l 1
 400 101 l 1
 399 100 l 1
 301 100 l 1
 300 101 l 1
 300 399 l 1
100 499 m 1
 101 500 l 1
 199 500 l 1
 200 499 l 1
 200 101 l 1
 199 100 l 1
 101 100 l 1
 100 101 l 1
 100 499 l 1
500 499 m 1
 501 500 l 1
 599 500 l 1
 600 499 l 1
 600 101 l 1
 599 100 l 1
 501 100 l 1
 500 101 l 1
 500 499 l 1
EndSplineSet
EndChar

StartChar: x
Encoding: 120 120 185
Width: 800
VWidth: 0
Flags: H
LayerCount: 2
Fore
SplineSet
101 0 m 1
 100 1 l 1
 100 99 l 1
 101 100 l 1
 199 100 l 1
 200 99 l 1
 200 1 l 1
 199 0 l 1
 101 0 l 1
201 100 m 1
 200 101 l 1
 200 199 l 1
 201 200 l 1
 299 200 l 1
 300 199 l 1
 300 101 l 1
 299 100 l 1
 201 100 l 1
301 200 m 1
 300 201 l 1
 300 299 l 1
 301 300 l 1
 399 300 l 1
 400 299 l 1
 400 201 l 1
 399 200 l 1
 301 200 l 1
401 300 m 1
 400 301 l 1
 400 399 l 1
 401 400 l 1
 499 400 l 1
 500 399 l 1
 500 301 l 1
 499 300 l 1
 401 300 l 1
501 400 m 1
 500 401 l 1
 500 499 l 1
 501 500 l 1
 599 500 l 1
 600 499 l 1
 600 401 l 1
 599 400 l 1
 501 400 l 1
501 0 m 1
 500 1 l 1
 500 99 l 1
 501 100 l 1
 599 100 l 1
 600 99 l 1
 600 1 l 1
 599 0 l 1
 501 0 l 1
401 100 m 1
 400 101 l 1
 400 199 l 1
 401 200 l 1
 499 200 l 1
 500 199 l 1
 500 101 l 1
 499 100 l 1
 401 100 l 1
201 300 m 1
 200 301 l 1
 200 399 l 1
 201 400 l 1
 299 400 l 1
 300 399 l 1
 300 301 l 1
 299 300 l 1
 201 300 l 1
101 400 m 1
 100 401 l 1
 100 499 l 1
 101 500 l 1
 199 500 l 1
 200 499 l 1
 200 401 l 1
 199 400 l 1
 101 400 l 1
EndSplineSet
EndChar

StartChar: y
Encoding: 121 121 186
Width: 800
VWidth: 0
Flags: H
LayerCount: 2
Fore
SplineSet
100 499 m 1
 101 500 l 1
 199 500 l 1
 200 499 l 1
 200 201 l 1
 199 200 l 1
 101 200 l 1
 100 201 l 1
 100 499 l 1
499 0 m 1
 500 -1 l 1
 500 -99 l 1
 499 -100 l 1
 201 -100 l 1
 200 -99 l 1
 200 -1 l 1
 201 0 l 1
 499 0 l 1
201 100 m 1
 200 101 l 1
 200 199 l 1
 201 200 l 1
 499 200 l 1
 500 201 l 1
 500 499 l 1
 501 500 l 1
 599 500 l 1
 600 499 l 1
 600 1 l 1
 599 0 l 1
 501 0 l 1
 500 1 l 1
 500 99 l 1
 499 100 l 1
 201 100 l 1
EndSplineSet
EndChar

StartChar: yen
Encoding: 165 165 187
Width: 800
VWidth: 0
Flags: H
LayerCount: 2
Fore
SplineSet
599 100 m 1
 600 99 l 1
 600 1 l 1
 599 0 l 1
 401 0 l 1
 400 -1 l 1
 400 -99 l 1
 399 -100 l 1
 301 -100 l 1
 300 -99 l 1
 300 -1 l 1
 299 0 l 1
 101 0 l 1
 100 1 l 1
 100 99 l 1
 101 100 l 1
 299 100 l 1
 300 101 l 1
 300 199 l 1
 299 200 l 1
 101 200 l 1
 100 201 l 1
 100 299 l 1
 101 300 l 1
 299 300 l 1
 300 301 l 1
 300 399 l 1
 301 400 l 1
 399 400 l 1
 400 399 l 1
 400 301 l 1
 401 300 l 1
 599 300 l 1
 600 299 l 1
 600 201 l 1
 599 200 l 1
 401 200 l 1
 400 199 l 1
 400 101 l 1
 401 100 l 1
 599 100 l 1
101 500 m 1
 100 501 l 1
 100 599 l 1
 101 600 l 1
 199 600 l 1
 200 599 l 1
 200 501 l 1
 199 500 l 1
 101 500 l 1
201 400 m 1
 200 401 l 1
 200 499 l 1
 201 500 l 1
 299 500 l 1
 300 499 l 1
 300 401 l 1
 299 400 l 1
 201 400 l 1
401 400 m 1
 400 401 l 1
 400 499 l 1
 401 500 l 1
 499 500 l 1
 500 499 l 1
 500 401 l 1
 499 400 l 1
 401 400 l 1
501 500 m 1
 500 501 l 1
 500 599 l 1
 501 600 l 1
 599 600 l 1
 600 599 l 1
 600 501 l 1
 599 500 l 1
 501 500 l 1
EndSplineSet
EndChar

StartChar: z
Encoding: 122 122 188
Width: 800
VWidth: 0
Flags: H
LayerCount: 2
Fore
SplineSet
200 199 m 1
 201 200 l 1
 299 200 l 1
 300 199 l 1
 300 101 l 1
 301 100 l 1
 599 100 l 1
 600 99 l 1
 600 1 l 1
 599 0 l 1
 101 0 l 1
 100 1 l 1
 100 99 l 1
 101 100 l 1
 199 100 l 1
 200 101 l 1
 200 199 l 1
500 301 m 1
 499 300 l 1
 401 300 l 1
 400 301 l 1
 400 399 l 1
 399 400 l 1
 101 400 l 1
 100 401 l 1
 100 499 l 1
 101 500 l 1
 599 500 l 1
 600 499 l 1
 600 401 l 1
 599 400 l 1
 501 400 l 1
 500 399 l 1
 500 301 l 1
301 200 m 1
 300 201 l 1
 300 299 l 1
 301 300 l 1
 399 300 l 1
 400 299 l 1
 400 201 l 1
 399 200 l 1
 301 200 l 1
EndSplineSet
EndChar

StartChar: zero
Encoding: 48 48 189
Width: 800
VWidth: 0
Flags: H
LayerCount: 2
Fore
SplineSet
301 200 m 1
 300 201 l 1
 300 299 l 1
 301 300 l 1
 399 300 l 1
 400 299 l 1
 400 201 l 1
 399 200 l 1
 301 200 l 1
401 300 m 1
 400 301 l 1
 400 399 l 1
 401 400 l 1
 499 400 l 1
 500 399 l 1
 500 301 l 1
 499 300 l 1
 401 300 l 1
700 101 m 1
 699 100 l 1
 601 100 l 1
 600 101 l 1
 600 399 l 1
 599 400 l 1
 501 400 l 1
 500 401 l 1
 500 499 l 1
 499 500 l 1
 201 500 l 1
 200 501 l 1
 200 599 l 1
 201 600 l 1
 599 600 l 1
 600 599 l 1
 600 501 l 1
 601 500 l 1
 699 500 l 1
 700 499 l 1
 700 101 l 1
100 499 m 1
 101 500 l 1
 199 500 l 1
 200 499 l 1
 200 201 l 1
 201 200 l 1
 299 200 l 1
 300 199 l 1
 300 101 l 1
 301 100 l 1
 599 100 l 1
 600 99 l 1
 600 1 l 1
 599 0 l 1
 201 0 l 1
 200 1 l 1
 200 99 l 1
 199 100 l 1
 101 100 l 1
 100 101 l 1
 100 499 l 1
EndSplineSet
EndChar

StartChar: uni2585
Encoding: 9605 9605 190
Width: 800
VWidth: 0
Flags: H
LayerCount: 2
Fore
SplineSet
0 -100 m 1
 0 400 l 1
 800 400 l 1
 800 -100 l 1
 0 -100 l 1
EndSplineSet
EndChar

StartChar: uni258B
Encoding: 9611 9611 191
Width: 800
VWidth: 0
Flags: H
LayerCount: 2
Fore
SplineSet
0 -100 m 1
 0 700 l 1
 500 700 l 1
 500 -100 l 1
 0 -100 l 1
EndSplineSet
EndChar

StartChar: uni258F
Encoding: 9615 9615 192
Width: 800
VWidth: 0
Flags: H
LayerCount: 2
Fore
SplineSet
0 -100 m 1
 0 700 l 1
 100 700 l 1
 100 -100 l 1
 0 -100 l 1
EndSplineSet
EndChar

StartChar: uni258E
Encoding: 9614 9614 193
Width: 800
VWidth: 0
Flags: H
LayerCount: 2
Fore
SplineSet
0 -100 m 1
 0 700 l 1
 200 700 l 1
 200 -100 l 1
 0 -100 l 1
EndSplineSet
EndChar

StartChar: uni258A
Encoding: 9610 9610 194
Width: 800
VWidth: 0
Flags: H
LayerCount: 2
Fore
SplineSet
0 -100 m 1
 0 700 l 1
 600 700 l 1
 600 -100 l 1
 0 -100 l 1
EndSplineSet
EndChar

StartChar: uni2586
Encoding: 9606 9606 195
Width: 800
VWidth: 0
Flags: H
LayerCount: 2
Fore
SplineSet
0 -100 m 1
 0 500 l 1
 800 500 l 1
 800 -100 l 1
 0 -100 l 1
EndSplineSet
EndChar

StartChar: uni25E4
Encoding: 9700 9700 196
Width: 800
VWidth: 0
Flags: H
LayerCount: 2
Fore
SplineSet
800 700 m 1
 800 601 l 1
 799 600 l 1
 701 600 l 1
 700 599 l 1
 700 501 l 1
 699 500 l 1
 601 500 l 1
 600 499 l 1
 600 401 l 1
 599 400 l 1
 501 400 l 1
 500 399 l 1
 500 301 l 1
 499 300 l 1
 401 300 l 1
 400 299 l 1
 400 201 l 1
 399 200 l 1
 301 200 l 1
 300 199 l 1
 300 101 l 1
 299 100 l 1
 201 100 l 1
 200 99 l 1
 200 1 l 1
 199 0 l 1
 101 0 l 1
 100 -1 l 1
 100 -99 l 1
 99 -100 l 1
 0 -100 l 1
 0 700 l 1
 800 700 l 1
EndSplineSet
EndChar

StartChar: uni2583
Encoding: 9603 9603 197
Width: 800
VWidth: 0
Flags: H
LayerCount: 2
Fore
SplineSet
0 -100 m 1
 0 200 l 1
 800 200 l 1
 800 -100 l 1
 0 -100 l 1
EndSplineSet
EndChar

StartChar: uni25E3
Encoding: 9699 9699 198
Width: 800
VWidth: 0
Flags: H
LayerCount: 2
Fore
SplineSet
0 700 m 1
 99 700 l 1
 100 699 l 1
 100 601 l 1
 101 600 l 1
 199 600 l 1
 200 599 l 1
 200 501 l 1
 201 500 l 1
 299 500 l 1
 300 499 l 1
 300 401 l 1
 301 400 l 1
 399 400 l 1
 400 399 l 1
 400 301 l 1
 401 300 l 1
 499 300 l 1
 500 299 l 1
 500 201 l 1
 501 200 l 1
 599 200 l 1
 600 199 l 1
 600 101 l 1
 601 100 l 1
 699 100 l 1
 700 99 l 1
 700 1 l 1
 701 0 l 1
 799 0 l 1
 800 -1 l 1
 800 -100 l 1
 0 -100 l 1
 0 700 l 1
EndSplineSet
EndChar

StartChar: uni2587
Encoding: 9607 9607 199
Width: 800
VWidth: 0
Flags: H
LayerCount: 2
Fore
SplineSet
0 -100 m 1
 0 600 l 1
 800 600 l 1
 800 -100 l 1
 0 -100 l 1
EndSplineSet
EndChar

StartChar: uni258D
Encoding: 9613 9613 200
Width: 800
VWidth: 0
Flags: H
LayerCount: 2
Fore
SplineSet
0 -100 m 1
 0 700 l 1
 300 700 l 1
 300 -100 l 1
 0 -100 l 1
EndSplineSet
EndChar

StartChar: uni25E5
Encoding: 9701 9701 201
Width: 800
VWidth: 0
Flags: H
LayerCount: 2
Fore
SplineSet
800 -100 m 1
 701 -100 l 1
 700 -99 l 1
 700 -1 l 1
 699 0 l 1
 601 0 l 1
 600 1 l 1
 600 99 l 1
 599 100 l 1
 501 100 l 1
 500 101 l 1
 500 199 l 1
 499 200 l 1
 401 200 l 1
 400 201 l 1
 400 299 l 1
 399 300 l 1
 301 300 l 1
 300 301 l 1
 300 399 l 1
 299 400 l 1
 201 400 l 1
 200 401 l 1
 200 499 l 1
 199 500 l 1
 101 500 l 1
 100 501 l 1
 100 599 l 1
 99 600 l 1
 1 600 l 1
 0 601 l 1
 0 700 l 1
 800 700 l 1
 800 -100 l 1
EndSplineSet
EndChar

StartChar: uni2581
Encoding: 9601 9601 202
Width: 800
VWidth: 0
Flags: H
LayerCount: 2
Fore
SplineSet
0 -100 m 1
 0 0 l 1
 800 0 l 1
 800 -100 l 1
 0 -100 l 1
EndSplineSet
EndChar

StartChar: uni2582
Encoding: 9602 9602 203
Width: 800
VWidth: 0
Flags: H
LayerCount: 2
Fore
SplineSet
0 -100 m 1
 0 100 l 1
 800 100 l 1
 800 -100 l 1
 0 -100 l 1
EndSplineSet
EndChar

StartChar: uni2589
Encoding: 9609 9609 204
Width: 800
VWidth: 0
Flags: H
LayerCount: 2
Fore
SplineSet
0 -100 m 1
 0 700 l 1
 700 700 l 1
 700 -100 l 1
 0 -100 l 1
EndSplineSet
EndChar

StartChar: uni25E2
Encoding: 9698 9698 205
Width: 800
VWidth: 0
Flags: H
LayerCount: 2
Fore
SplineSet
0 -100 m 1
 0 -1 l 1
 1 0 l 1
 99 0 l 1
 100 1 l 1
 100 99 l 1
 101 100 l 1
 199 100 l 1
 200 101 l 1
 200 199 l 1
 201 200 l 1
 299 200 l 1
 300 201 l 1
 300 299 l 1
 301 300 l 1
 399 300 l 1
 400 301 l 1
 400 399 l 1
 401 400 l 1
 499 400 l 1
 500 401 l 1
 500 499 l 1
 501 500 l 1
 599 500 l 1
 600 501 l 1
 600 599 l 1
 601 600 l 1
 699 600 l 1
 700 601 l 1
 700 699 l 1
 701 700 l 1
 800 700 l 1
 800 -100 l 1
 0 -100 l 1
EndSplineSet
EndChar

